<?xml version="1.0" encoding="UTF-8"?>
<!-- Generator: visioncortex VTracer 0.6.4 -->
<svg version="1.1" xmlns="http://www.w3.org/2000/svg" width="400" height="400" viewBox="-15 24 250 250">
<path d="M0 0 C2.51112712 0.55507893 5.02253058 1.10890888 7.53417969 1.66162109 C8.1804085 1.8048005 8.82663731 1.94797991 9.49244881 2.09549809 C16.56838681 3.66038129 23.66589365 5.11763445 30.765625 6.5703125 C33.3086036 7.09305102 35.85157236 7.61583744 38.39453125 8.13867188 C42.26978451 8.93417622 46.14519732 9.72888694 50.02099609 10.52172852 C53.85314794 11.30580258 57.68438508 12.09429425 61.515625 12.8828125 C62.6861441 13.12131424 63.85666321 13.35981598 65.06265259 13.60554504 C66.66866837 13.93675606 66.66866837 13.93675606 68.30712891 14.2746582 C69.24859772 14.46751907 70.19006653 14.66037994 71.1600647 14.85908508 C73.4140625 15.39453125 73.4140625 15.39453125 75.4140625 16.39453125 C75.7440625 15.73453125 76.0740625 15.07453125 76.4140625 14.39453125 C77.32376104 17.12362688 77.54132146 18.71390642 77.54777527 21.51994324 C77.55417274 22.77881096 77.55417274 22.77881096 77.56069946 24.06311035 C77.56024628 24.98096313 77.55979309 25.89881592 77.55932617 26.84448242 C77.56268478 27.81408401 77.5660434 28.78368561 77.56950378 29.78266907 C77.57903033 33.00095898 77.58095859 36.21919684 77.58203125 39.4375 C77.58524563 41.68174765 77.58860984 43.9259951 77.59211731 46.17024231 C77.59811492 50.88718144 77.59995686 55.60410225 77.59936523 60.32104492 C77.59926426 66.32688599 77.61284652 72.33260711 77.63013744 78.33841991 C77.64133838 82.98253401 77.64328188 87.62662002 77.64275551 92.27074623 C77.64392616 94.48202231 77.64829576 96.69329934 77.65608788 98.904562 C77.75851316 131.00910367 72.06374794 159.26111121 52.4140625 185.39453125 C51.7540625 185.39453125 51.0940625 185.39453125 50.4140625 185.39453125 C50.18332031 185.93980469 49.95257813 186.48507813 49.71484375 187.046875 C39.10207782 206.20084594 14.94725089 219.75917286 -3.3984375 230.08203125 C-4.14504639 230.50427979 -4.89165527 230.92652832 -5.66088867 231.36157227 C-12.98084494 235.37736414 -12.98084494 235.37736414 -16.5859375 235.39453125 C-19.26421119 234.3384759 -21.63102517 233.24888104 -24.1484375 231.89453125 C-24.85371582 231.527229 -25.55899414 231.15992676 -26.28564453 230.78149414 C-55.95444253 215.18773519 -84.13552989 193.50540881 -98.5859375 162.39453125 C-98.5859375 161.73453125 -98.5859375 161.07453125 -98.5859375 160.39453125 C-99.2459375 160.06453125 -99.9059375 159.73453125 -100.5859375 159.39453125 C-105.7575022 145.99547726 -108.75016309 131.85653106 -108.69946289 117.52392578 C-108.69960892 116.44040329 -108.69975494 115.3568808 -108.6999054 114.24052429 C-108.69921034 110.66944354 -108.69143697 107.09841536 -108.68359375 103.52734375 C-108.68172813 101.04727202 -108.6803049 98.56719992 -108.67930603 96.08712769 C-108.67549224 89.56712828 -108.66567164 83.04715123 -108.65460205 76.52716064 C-108.64382155 69.87097597 -108.63980317 63.21478478 -108.63476562 56.55859375 C-108.62404837 43.50389672 -108.60717846 30.44921518 -108.5859375 17.39453125 C-81.8092961 10.93880315 -81.8092961 10.93880315 -69.90234375 8.25390625 C-68.22639381 7.87422699 -68.22639381 7.87422699 -66.5165863 7.48687744 C-64.21297631 6.96540296 -61.90919129 6.44470099 -59.60522461 5.92480469 C-56.09764169 5.13306551 -52.59078383 4.33817018 -49.08398438 3.54296875 C-46.81514572 3.02976418 -44.54626701 2.51673663 -42.27734375 2.00390625 C-41.24807266 1.7705658 -40.21880157 1.53722534 -39.15834045 1.29681396 C-36.30284176 0.65342301 -33.44492318 0.0222211 -30.5859375 -0.60546875 C-29.70565887 -0.80555542 -28.82538025 -1.00564209 -27.91842651 -1.21179199 C-17.86222484 -3.39613726 -9.94473631 -2.26346891 0 0 Z " fill="#013363" transform="translate(127.5859375,34.60546875)"/>
<path d="M0 0 C12.71713904 10.59533013 20.14079853 25.24654363 22.6796875 41.4921875 C22.94807514 44.59456721 23.01266301 47.67755644 23.03369141 50.79052734 C23.0468338 51.66028702 23.0599762 52.53004669 23.07351685 53.42616272 C23.11253423 56.26848831 23.13619925 59.11060552 23.15625 61.953125 C23.16440105 62.93293964 23.17255211 63.91275429 23.18095016 64.92226028 C23.22247031 70.10376356 23.25116534 75.28516393 23.27001953 80.46679688 C23.29217043 85.78860111 23.36104818 91.10873804 23.44036293 96.42995262 C23.49286886 100.55149244 23.50941761 104.67263841 23.51658249 108.79448318 C23.52626182 110.75518753 23.5493396 112.7158774 23.58665848 114.67625046 C23.80655614 126.98716082 23.26475525 135.00560092 14.6796875 144.4921875 C13.97965103 145.28465378 13.27961456 146.07712006 12.55836487 146.89360046 C10.68824405 148.94717784 8.74489777 150.88067783 6.7421875 152.8046875 C6.04851074 153.48402344 5.35483398 154.16335937 4.64013672 154.86328125 C-8.40018419 167.4921875 -8.40018419 167.4921875 -12.3203125 167.4921875 C-15.21679116 157.07897056 -17.67534517 146.64568999 -19.8203125 136.0546875 C-19.96927979 135.32482635 -20.11824707 134.59496521 -20.27172852 133.84298706 C-22.25621288 124.10419104 -24.14564863 114.35223234 -25.8203125 104.5546875 C-26.07844727 103.07367554 -26.07844727 103.07367554 -26.34179688 101.56274414 C-26.48939453 100.66418701 -26.63699219 99.76562988 -26.7890625 98.83984375 C-26.98145508 97.67980835 -26.98145508 97.67980835 -27.17773438 96.49633789 C-27.3203125 94.4921875 -27.3203125 94.4921875 -26.3203125 91.4921875 C-25.62808594 92.41837891 -25.62808594 92.41837891 -24.921875 93.36328125 C-17.57307238 102.91255141 -17.57307238 102.91255141 -8.3203125 110.4921875 C-5.57902445 110.34370025 -5.57902445 110.34370025 -3.3203125 109.4921875 C-2.77049078 106.3165817 -2.938366 104.15798247 -4.55224609 101.34472656 C-6.31203551 98.88444853 -8.13716934 96.49426851 -10.0078125 94.1171875 C-12.46765868 90.92521409 -14.91130549 87.72274167 -17.3203125 84.4921875 C-17.83352051 83.80632568 -18.34672852 83.12046387 -18.87548828 82.41381836 C-22.29420302 77.47452458 -22.92612233 73.73519936 -22.8203125 67.8046875 C-23.04061274 56.41469637 -27.0351705 47.4572813 -32.40234375 37.515625 C-33.3203125 35.4921875 -33.3203125 35.4921875 -33.3203125 32.4921875 C-32.1859375 32.0796875 -31.0515625 31.6671875 -29.8828125 31.2421875 C-26.25599247 29.96539781 -26.25599247 29.96539781 -25.62109375 27.6328125 C-25.52183594 26.92640625 -25.42257813 26.22 -25.3203125 25.4921875 C-25.23007813 24.8528125 -25.13984375 24.2134375 -25.046875 23.5546875 C-24.70058138 16.52226321 -26.83174061 10.56007584 -30.3203125 4.4921875 C-34.52563235 0.88762762 -39.33376091 0.9770882 -44.69921875 1.14453125 C-48.48621685 1.64683055 -50.53449327 2.9102087 -53.3203125 5.4921875 C-53.9803125 6.5234375 -54.6403125 7.5546875 -55.3203125 8.6171875 C-57.75640798 12.11907475 -59.35540429 12.25315369 -63.3203125 13.4921875 C-66.3986377 16.42656224 -67.26769052 17.98438541 -67.7109375 22.26171875 C-67.68463087 23.60993335 -67.63733054 24.95788268 -67.5703125 26.3046875 C-67.55226562 26.99755859 -67.53421875 27.69042969 -67.515625 28.40429688 C-67.46882314 30.10086414 -67.39708874 31.79671226 -67.3203125 33.4921875 C-68.3103125 33.8221875 -69.3003125 34.1521875 -70.3203125 34.4921875 C-70.3203125 35.4821875 -70.3203125 36.4721875 -70.3203125 37.4921875 C-63.91005362 37.14850848 -63.91005362 37.14850848 -58.3203125 34.4921875 C-57.32847019 30.90629607 -57.13602118 29.04506147 -58.3203125 25.4921875 C-58.35985484 23.15918925 -58.36432982 20.82510561 -58.3203125 18.4921875 C-56.98367796 20.4971393 -55.67111307 22.51834144 -54.3828125 24.5546875 C-52.47274388 27.65216499 -52.47274388 27.65216499 -49.3203125 29.4921875 C-48.72136938 32.88619853 -48.69580544 35.29460337 -50.31640625 38.40234375 C-53.83765363 43.10066533 -57.36160117 44.41672146 -62.92578125 45.8515625 C-66.55383275 46.82219944 -68.57933397 47.87869634 -71.3203125 50.4921875 C-75.61938786 58.82164602 -77.51054983 66.11891363 -77.5703125 75.3671875 C-77.5909375 76.15738281 -77.6115625 76.94757813 -77.6328125 77.76171875 C-77.66590552 82.73394569 -77.19542791 86.24705065 -74.3203125 90.4921875 C-72.3463804 92.01499608 -72.3463804 92.01499608 -70.1328125 92.8671875 C-69.05966797 93.34285156 -69.05966797 93.34285156 -67.96484375 93.828125 C-67.42214844 94.04726562 -66.87945312 94.26640625 -66.3203125 94.4921875 C-66.58585937 95.60335937 -66.85140625 96.71453125 -67.125 97.859375 C-68.99316397 105.71431587 -70.80922069 113.5589555 -72.3203125 121.4921875 C-70.0103125 122.8121875 -67.7003125 124.1321875 -65.3203125 125.4921875 C-66.73527404 130.1078044 -68.61510529 134.34795593 -70.796875 138.640625 C-71.29204117 139.62671249 -71.29204117 139.62671249 -71.79721069 140.63272095 C-72.84280647 142.71280067 -73.8939572 144.79001394 -74.9453125 146.8671875 C-75.6592244 148.28496988 -76.3727698 149.70293688 -77.0859375 151.12109375 C-78.82649822 154.58027427 -80.57204332 158.03689687 -82.3203125 161.4921875 C-86.11940199 159.70724423 -89.00558608 157.32416222 -92.0703125 154.4921875 C-92.85994385 153.76612305 -92.85994385 153.76612305 -93.66552734 153.02539062 C-108.03877609 139.53374792 -108.03877609 139.53374792 -108.59446716 131.55659485 C-108.61555209 129.87156778 -108.62542316 128.1863792 -108.62670898 126.5012207 C-108.6350325 125.58038696 -108.64335602 124.65955322 -108.65193176 123.71081543 C-108.67609407 120.65482377 -108.68481668 117.59904595 -108.69140625 114.54296875 C-108.70037627 112.41082192 -108.70949818 110.27867572 -108.71876526 108.14653015 C-108.73528054 103.66497267 -108.74295852 99.18349004 -108.74584961 94.7019043 C-108.75119954 88.99847623 -108.78872752 83.29576793 -108.83459377 77.59254169 C-108.8645717 73.18002366 -108.87157783 68.76767343 -108.87257576 64.35506248 C-108.8767463 62.25540093 -108.88905105 60.15573739 -108.91009331 58.05617714 C-109.1063895 36.7523113 -104.96810063 19.63778687 -90.0703125 3.6171875 C-82.21030046 -3.74900179 -72.55193191 -9.20167698 -62.3203125 -12.5078125 C-61.66546875 -12.73210938 -61.010625 -12.95640625 -60.3359375 -13.1875 C-39.97214344 -18.94934871 -16.35899573 -12.76489995 0 0 Z " fill="#F5CC59" transform="translate(155.3203125,71.5078125)"/>
<path d="M0 0 C0.66 0 1.32 0 2 0 C2.24121582 0.81452637 2.48243164 1.62905273 2.73095703 2.46826172 C3.85919495 6.27143746 4.99137676 10.07342711 6.125 13.875 C6.32808777 14.55728668 6.53117554 15.23957336 6.74041748 15.9425354 C9.4346222 24.98176426 12.19789024 33.98541879 15.41064453 42.85693359 C17.10562313 47.68313061 17.10562313 47.68313061 16 51 C13.48828125 52.60546875 13.48828125 52.60546875 10.3125 54.1875 C9.27738281 54.71730469 8.24226563 55.24710938 7.17578125 55.79296875 C2.84793233 57.43787074 -0.36901467 57.66525093 -4.70068359 55.8984375 C-5.59094238 55.39570313 -6.48120117 54.89296875 -7.3984375 54.375 C-8.85830078 53.56289062 -8.85830078 53.56289062 -10.34765625 52.734375 C-11.84619141 51.87585938 -11.84619141 51.87585938 -13.375 51 C-14.90833984 50.14148438 -14.90833984 50.14148438 -16.47265625 49.265625 C-18.98836954 47.85494465 -21.49689086 46.43288866 -24 45 C-23.42137029 41.2077887 -22.3503864 38.50456834 -20.375 35.2265625 C-19.56820801 33.87558472 -19.56820801 33.87558472 -18.74511719 32.49731445 C-18.16922852 31.54945068 -17.59333984 30.60158691 -17 29.625 C-16.41637695 28.65071045 -15.83275391 27.6764209 -15.23144531 26.67260742 C-13.49515528 23.77712211 -11.74933373 20.8876197 -10 18 C-8.63826048 15.74917229 -7.27681598 13.49818049 -5.91796875 11.24560547 C-5.15848284 9.98858008 -4.39563842 8.73357566 -3.62890625 7.48095703 C-2.11948022 4.99344028 -0.92472231 2.77416693 0 0 Z " fill="#F5CC59" transform="translate(111,199)"/>
<path d="M0 0 C-2.70729416 1.80486278 -4.04135746 2.39853622 -7.08984375 3.0703125 C-8.26643555 3.33134766 -8.26643555 3.33134766 -9.46679688 3.59765625 C-10.68979492 3.85869141 -10.68979492 3.85869141 -11.9375 4.125 C-13.15469727 4.39763672 -13.15469727 4.39763672 -14.39648438 4.67578125 C-18.08787025 5.48128465 -21.1846071 6 -25 6 C-24.67 44.94 -24.34 83.88 -24 124 C-28.04501739 119.95498261 -27.11652944 113.61771779 -27.12442017 108.20927429 C-27.12082489 107.19291397 -27.11722961 106.17655365 -27.11352539 105.12939453 C-27.11367142 104.04587204 -27.11381744 102.96234955 -27.1139679 101.84599304 C-27.11327284 98.27491229 -27.10549947 94.70388411 -27.09765625 91.1328125 C-27.09579063 88.65274077 -27.0943674 86.17266867 -27.09336853 83.69259644 C-27.08955474 77.17259703 -27.07973414 70.65261998 -27.06866455 64.13262939 C-27.05788405 57.47644472 -27.05386567 50.82025353 -27.04882812 44.1640625 C-27.03811087 31.10936547 -27.02124096 18.05468393 -27 5 C-23.62772763 4.15535944 -20.25180079 3.32633353 -16.875 2.5 C-15.92367188 2.26152344 -14.97234375 2.02304687 -13.9921875 1.77734375 C-9.23935199 0.62214067 -4.93266691 -0.33216612 0 0 Z " fill="#011731" transform="translate(46,47)"/>
<path d="M0 0 C0.33 0 0.66 0 1 0 C0.45401532 5.18019612 -0.75762763 9.59808236 -2.875 14.375 C-3.17237061 15.05111328 -3.46974121 15.72722656 -3.77612305 16.42382812 C-6.36078441 22.05651836 -9.46251275 27.29172209 -12.8125 32.5 C-13.53252197 33.62220947 -13.53252197 33.62220947 -14.26708984 34.76708984 C-15.45144067 36.55264251 -16.71850296 38.28283648 -18 40 C-18.66 40 -19.32 40 -20 40 C-20.23074219 40.54527344 -20.46148437 41.09054688 -20.69921875 41.65234375 C-31.31198468 60.80631469 -55.46681161 74.36464161 -73.8125 84.6875 C-74.55910889 85.10974854 -75.30571777 85.53199707 -76.07495117 85.96704102 C-83.18911947 89.86993582 -83.18911947 89.86993582 -87 90 C-89.45703125 89.00390625 -89.45703125 89.00390625 -91.8125 87.5625 C-92.99779297 86.85287109 -92.99779297 86.85287109 -94.20703125 86.12890625 C-94.79871094 85.75636719 -95.39039062 85.38382812 -96 85 C-95.01 84.505 -95.01 84.505 -94 84 C-92.78661322 84.63628819 -91.57931076 85.28419629 -90.375 85.9375 C-86.10666212 87.42629625 -83.52188204 86.76236647 -79.46142578 84.86083984 C-75.90565306 83.01904394 -72.4458998 81.03871123 -69 79 C-68.32984863 78.61585938 -67.65969727 78.23171875 -66.96923828 77.8359375 C-55.35844885 71.15739098 -44.0608617 63.22672087 -34.671875 53.6171875 C-33 52 -33 52 -31 52 C-30.62875 51.14341797 -30.62875 51.14341797 -30.25 50.26953125 C-28.80434303 47.64476031 -27.08325584 45.84143774 -25 43.6875 C-13.4576938 31.03178806 -5.59308147 16.12123483 0 0 Z " fill="#081F36" transform="translate(198,180)"/>
<path d="M0 0 C2.05731841 3.08597761 2.24979619 3.71030266 2.24723816 7.19270325 C2.25143265 8.04639999 2.25562714 8.90009674 2.25994873 9.77966309 C2.25151947 11.18000793 2.25151947 11.18000793 2.24291992 12.60864258 C2.24481827 13.5943071 2.24671661 14.57997162 2.24867249 15.59550476 C2.25238444 18.86192722 2.24166763 22.12812846 2.23046875 25.39453125 C2.22927677 27.66273472 2.22882383 29.93093869 2.2290802 32.19914246 C2.22751446 36.95806967 2.21921959 41.71692176 2.20581055 46.47583008 C2.18884965 52.57230823 2.18499538 58.66870354 2.18575573 64.76520252 C2.18548354 69.45180551 2.17999401 74.13839044 2.17275429 78.82498741 C2.16957419 81.07243399 2.16760175 83.31988261 2.16686058 85.56733131 C2.16468841 88.71264744 2.15592429 91.85787647 2.14526367 95.00317383 C2.14571686 95.93066437 2.14617004 96.85815491 2.14663696 97.81375122 C2.12433124 102.3227998 1.91719083 106.56240196 1 111 C0.67 111 0.34 111 0 111 C0 75.69 0 40.38 0 4 C-3.3 3.34 -6.6 2.68 -10 2 C-10 1.67 -10 1.34 -10 1 C-2.25 0.875 -2.25 0.875 0 2 C0 1.34 0 0.68 0 0 Z " fill="#0A2741" transform="translate(203,49)"/>
<path d="M0 0 C2.51046708 2.51046708 2.85162494 4.46491575 3.8125 7.875 C9.32746441 26.27841603 18.01103609 41.04252393 31 55 C31.4630957 55.50160645 31.92619141 56.00321289 32.40332031 56.52001953 C39.29692661 63.9131265 46.87703217 70.04660068 55 76 C54.01 76.33 53.02 76.66 52 77 C49.65234375 75.4453125 49.65234375 75.4453125 46.9375 73.125 C45.95910156 72.29097656 44.98070312 71.45695312 43.97265625 70.59765625 C42.99167969 69.74042969 42.01070312 68.88320312 41 68 C40.13246094 67.25621094 39.26492187 66.51242188 38.37109375 65.74609375 C25.35878712 54.3628709 14.32128249 40.76229054 7 25 C7 24.34 7 23.68 7 23 C6.34 22.67 5.68 22.34 5 22 C4.21875 20.1796875 4.21875 20.1796875 3.5 17.875 C3.24605469 17.06160156 2.99210937 16.24820313 2.73046875 15.41015625 C2.48941406 14.61480469 2.24835937 13.81945312 2 13 C1.608125 11.783125 1.21625 10.56625 0.8125 9.3125 C0.01630834 6.06648784 -0.16224969 3.32611863 0 0 Z " fill="#081E36" transform="translate(22,172)"/>
<path d="M0 0 C2 1 2 1 3.25268555 4.18701172 C3.72244575 5.59846384 4.18316209 7.01294543 4.63671875 8.4296875 C4.88041702 9.17582306 5.1241153 9.92195862 5.37519836 10.69070435 C5.88909115 12.27158098 6.39909119 13.85372746 6.90551758 15.43701172 C7.68329558 17.86189187 8.47845571 20.28057672 9.27539062 22.69921875 C9.77189697 24.23403132 10.26737414 25.76917729 10.76171875 27.3046875 C11.0012175 28.02977509 11.24071625 28.75486267 11.48747253 29.50192261 C13.11479708 34.65560875 13.11479708 34.65560875 12 38 C9.61841308 35.61841308 9.50683907 34.44483564 8.8125 31.1875 C7.13031573 24.00317133 4.75239853 17.09140001 2.3371582 10.1237793 C1.88602661 8.8076062 1.88602661 8.8076062 1.42578125 7.46484375 C1.15161377 6.677146 0.87744629 5.88944824 0.5949707 5.07788086 C0 3 0 3 0 0 Z " fill="#EEE65C" transform="translate(115,212)"/>
<path d="M0 0 C-2.95156958 1.96771305 -4.70699857 2.54257772 -8.10546875 3.2890625 C-9.08837891 3.50820313 -10.07128906 3.72734375 -11.08398438 3.953125 C-12.62022461 4.28570312 -12.62022461 4.28570312 -14.1875 4.625 C-15.22326172 4.85445312 -16.25902344 5.08390625 -17.32617188 5.3203125 C-19.88292611 5.88586182 -22.44082691 6.44551778 -25 7 C-25.33 6.34 -25.66 5.68 -26 5 C-23.60468067 4.35220924 -21.20878252 3.70670991 -18.8125 3.0625 C-18.13896484 2.88009766 -17.46542969 2.69769531 -16.77148438 2.50976562 C-11.0157937 0.96555593 -5.96977222 -0.13883191 0 0 Z " fill="#041A32" transform="translate(46,47)"/>
<path d="M0 0 C4.97357688 1.7342733 9.31498953 4.43327957 13.8125 7.125 C14.60076172 7.59292969 15.38902344 8.06085938 16.20117188 8.54296875 C18.13602454 9.69215397 20.06887228 10.84457003 22 12 C19 13 19 13 15.8203125 11.5234375 C14.58240029 10.81796065 13.35080566 10.10130897 12.125 9.375 C11.51269531 9.03082031 10.90039062 8.68664062 10.26953125 8.33203125 C6.23460297 5.99056324 3.16344348 3.42806613 0 0 Z " fill="#062037" transform="translate(78,250)"/>
<path d="M0 0 C5.5021816 -0.23136637 10.13853778 0.5649654 15.4375 2 C16.16904297 2.19078125 16.90058594 2.3815625 17.65429688 2.578125 C19.43819666 3.04450403 21.21939845 3.52118278 23 4 C23 4.33 23 4.66 23 5 C14.97383806 4.59378936 7.67278805 3.40152224 0 1 C0 0.67 0 0.34 0 0 Z " fill="#061F39" transform="translate(160,43)"/>
<path d="M0 0 C1.33663454 2.0049518 2.64919943 4.02615394 3.9375 6.0625 C5.84756862 9.15997749 5.84756862 9.15997749 9 11 C9.1875 14.625 9.1875 14.625 9 18 C8.34 18.33 7.68 18.66 7 19 C7 16.36 7 13.72 7 11 C6.030625 10.71125 5.06125 10.4225 4.0625 10.125 C1 9 1 9 0 7 C-0.04022391 4.6670134 -0.04320247 2.33293334 0 0 Z " fill="#F2E65D" transform="translate(97,90)"/>
<path d="M0 0 C0.33 1.32 0.66 2.64 1 4 C-3.91382311 8.16930446 -9.19589269 11.21402849 -15 14 C-10.2347969 9.0759568 -5.11342667 4.55740358 0 0 Z " fill="#081D5F" transform="translate(159,226)"/>
<path d="M0 0 C0.33 1.32 0.66 2.64 1 4 C1.66 4 2.32 4 3 4 C3.33 8.95 3.66 13.9 4 19 C0.33458746 13.5018812 -0.34357529 6.52793043 0 0 Z " fill="#F8EB5D" transform="translate(135,198)"/>
<path d="M0 0 C-4.50353262 1.75747614 -8.17639811 2.19294408 -13 2 C-12 0 -12 0 -10.29296875 -0.703125 C-3.34405145 -2.50803859 -3.34405145 -2.50803859 0 0 Z " fill="#031F37" transform="translate(101,36)"/>
<path d="M0 0 C0.33 0 0.66 0 1 0 C1 2.64 1 5.28 1 8 C0.01 8.33 -0.98 8.66 -2 9 C-2.66 9.66 -3.32 10.32 -4 11 C-3.39301257 6.87248551 -1.96189209 3.6678852 0 0 Z " fill="#F4E05C" transform="translate(111,199)"/>
<path d="M0 0 C0.66 0.33 1.32 0.66 2 1 C0.12050295 4.57104439 -1.17053157 6.54744301 -5 8 C-3.62845496 5.04590299 -2.01136276 2.55991624 0 0 Z " fill="#03175F" transform="translate(172,212)"/>
<path d="M0 0 C3 1 3 1 3 1 Z " fill="#005555" transform="translate(154,39)"/>
<path d="M0 0 C3 1 3 1 3 1 Z " fill="#003155" transform="translate(67,39)"/>
<path d="M0 0 C2 1 2 1 2 1 Z " fill="#006080" transform="translate(192,47)"/>
<path d="M0 0 C2 1 2 1 2 1 Z " fill="#002A2A" transform="translate(115,31)"/>
<path d="" fill="#000000" transform="translate(0,0)"/>
<path d="" fill="#000000" transform="translate(0,0)"/>
<path d="" fill="#008080" transform="translate(0,0)"/>
<path d="" fill="#000000" transform="translate(0,0)"/>
<path d="" fill="#000000" transform="translate(0,0)"/>
<path d="" fill="#000000" transform="translate(0,0)"/>
<path d="" fill="#000000" transform="translate(0,0)"/>
<path d="" fill="#000000" transform="translate(0,0)"/>
<path d="" fill="#000000" transform="translate(0,0)"/>
<path d="" fill="#000000" transform="translate(0,0)"/>
<path d="" fill="#000000" transform="translate(0,0)"/>
<path d="" fill="#000000" transform="translate(0,0)"/>
<path d="" fill="#008080" transform="translate(0,0)"/>
<path d="" fill="#000000" transform="translate(0,0)"/>
<path d="" fill="#000000" transform="translate(0,0)"/>
<path d="" fill="#000000" transform="translate(0,0)"/>
<path d="" fill="#005555" transform="translate(0,0)"/>
<path d="" fill="#000000" transform="translate(0,0)"/>
<path d="" fill="#008080" transform="translate(0,0)"/>
</svg>
