<?xml version="1.0" encoding="UTF-8"?>
<svg version="1.1" xmlns="http://www.w3.org/2000/svg" width="1024" height="1024">
<path d="M0 0 C1.42840186 0.44319789 2.86972645 0.84711452 4.3215332 1.20629883 C6.7391411 1.81792157 8.85757228 2.81362061 11.11865234 3.86425781 C12.58238281 4.54294922 12.58238281 4.54294922 14.07568359 5.23535156 C15.10048828 5.71101563 16.12529297 6.18667969 17.18115234 6.67675781 C18.17501953 7.12148437 19.16888672 7.56621094 20.19287109 8.02441406 C33.84115025 14.17213328 46.95510393 21.00580149 59.18115234 29.67675781 C60.07962891 30.30066406 60.97810547 30.92457031 61.90380859 31.56738281 C68.30997772 36.1023975 74.29391048 41.04475612 80.23583984 46.16113281 C82.04513028 47.70646841 83.87910925 49.2240918 85.75146484 50.69238281 C127.80462552 85.03805102 151.61978271 142.95609439 157.52880859 195.52441406 C158.39072624 204.8365954 158.546093 214.14147261 158.55615234 223.48925781 C158.558237 224.28507263 158.56032166 225.08088745 158.56246948 225.90081787 C158.55802437 240.80587559 158.55802437 240.80587559 156.77001953 247.44555664 C156.02474172 250.26939326 155.51575765 253.11269725 154.98974609 255.98535156 C148.85873114 288.28444661 137.62754497 317.39758524 119.18115234 344.67675781 C118.74270996 345.32757324 118.30426758 345.97838867 117.85253906 346.64892578 C112.65433984 354.29921898 106.98254963 361.40829341 100.95849609 368.41894531 C82.83924301 389.56335896 67.21342149 413.06918735 56.18115234 438.67675781 C55.77171387 439.62421875 55.77171387 439.62421875 55.35400391 440.59082031 C46.96150891 460.42574051 43.44144876 481.31819012 41.09301758 502.59545898 C39.69345892 514.71431357 37.41128663 527.84968616 28.18115234 536.67675781 C18.73005575 543.74088803 8.3456836 546.78628978 -3.3752594 546.81719971 C-4.67732834 546.82290985 -5.97939728 546.82862 -7.32092285 546.83450317 C-8.75195303 546.83574834 -10.18298331 546.83687347 -11.61401367 546.83789062 C-13.13073343 546.84252333 -14.64745204 546.84754859 -16.16416931 546.85293579 C-20.27612557 546.86602125 -24.38806553 546.87249761 -28.50003934 546.87694645 C-31.07412956 546.87988438 -33.64821539 546.88399061 -36.22230339 546.88845062 C-44.29061599 546.90211756 -52.35891849 546.91178724 -60.42724186 546.91565251 C-69.71324908 546.92012657 -78.99910861 546.9376475 -88.28507096 546.96665311 C-95.48024305 546.98834059 -102.67537383 546.99836061 -109.87057823 546.99969363 C-114.15950488 547.00073693 -118.44829255 547.00654235 -122.73718452 547.02451324 C-126.77805713 547.04111587 -130.81868813 547.04309101 -134.8595829 547.03437424 C-136.33284914 547.03361024 -137.80612903 547.03786116 -139.27936172 547.04783249 C-153.37945429 547.13757671 -167.19181439 545.88902986 -177.85009766 535.74316406 C-186.3241823 525.95846886 -187.50798041 512.70930775 -189.02832031 500.33773804 C-189.5222345 496.34517859 -190.06003266 492.35861216 -190.60009766 488.37207031 C-190.70427002 487.60176987 -190.80844238 486.83146942 -190.91577148 486.03782654 C-196.75903212 443.52112996 -217.79155889 404.75106614 -245.65209961 372.57446289 C-287.15468438 324.45367531 -309.55183451 264.10172475 -305.61230469 200.33349609 C-303.99974777 179.28490339 -299.33361538 159.29021949 -293.06884766 139.17675781 C-292.77526367 138.2321167 -292.48167969 137.28747559 -292.17919922 136.31420898 C-291.90043945 135.4541626 -291.62167969 134.59411621 -291.33447266 133.70800781 C-291.08987305 132.95068359 -290.84527344 132.19335938 -290.59326172 131.41308594 C-289.81884766 129.67675781 -289.81884766 129.67675781 -287.81884766 128.67675781 C-287.15516738 126.6158559 -286.49196718 124.55479867 -285.83056641 122.49316406 C-277.5941816 99.56484959 -261.77578826 78.86814835 -245.22900391 61.29785156 C-242.80920938 58.73257616 -242.80920938 58.73257616 -240.74853516 56.05175781 C-238.92805913 53.81117193 -237.1010489 52.07215963 -234.88134766 50.23925781 C-232.39042862 48.12519369 -230.23658599 46.08586172 -228.25634766 43.48925781 C-225.34296138 40.12765826 -222.72927969 38.74264643 -218.81884766 36.67675781 C-217.82884766 35.68675781 -217.82884766 35.68675781 -216.81884766 34.67675781 C-217.14884766 34.01675781 -217.47884766 33.35675781 -217.81884766 32.67675781 C-217.15240234 32.61359375 -216.48595703 32.55042969 -215.79931641 32.48535156 C-211.66553984 31.36386828 -208.64417573 29.13629874 -205.13134766 26.73925781 C-182.23237356 11.59146867 -157.90340429 1.76347977 -131.56884766 -5.78027344 C-129.73605134 -6.29710725 -129.73605134 -6.29710725 -127.81884766 -7.32324219 C-126.4772442 -7.51607313 -125.1293492 -7.66645135 -123.77978516 -7.79199219 C-120.57675758 -8.11932754 -117.4100692 -8.51994295 -114.23291016 -9.04199219 C-75.66262594 -15.37945569 -37.19830828 -12.00920003 0 0 Z " fill="#FECE15" transform="translate(585.81884765625,215.3232421875)"/>
<path d="M0 0 C1.3303125 0.86625 1.3303125 0.86625 2.6875 1.75 C15.41313952 14.13170332 18.90257417 30.98348444 21.63916016 47.81298828 C21.92859579 49.56722671 22.26021056 51.31448302 22.60546875 53.05859375 C23.1349195 57.00588502 23 61.01735936 23 65 C37.19 65 51.38 65 66 65 C66.4125 61.37 66.825 57.74 67.25 54 C69.71359141 33.98888822 73.81609274 12.75239939 90 -1 C99.89270401 -7.84328873 110.06880318 -10.1725992 122 -9 C134.7496404 -6.34759254 145.43105891 -0.79835595 153 10 C158.91937832 20.8669184 161.17776897 32.01032675 157.875 44.25 C152.96702411 58.13320957 142.9246113 68.25010483 130 75 C122.19309044 78.52095544 114.16278042 80.56749049 105.8125 82.3125 C105.00562744 82.48418701 104.19875488 82.65587402 103.36743164 82.83276367 C98.9273707 83.69487213 94.71791236 84.08182447 90.19018555 84.04370117 C89.21397751 84.03739182 88.23776947 84.03108246 87.23197937 84.02458191 C86.49542618 84.01646988 85.75887299 84.00835785 85 84 C84.97494385 84.55581757 84.9498877 85.11163513 84.92407227 85.68429565 C84.4990059 95.1023831 84.07334051 104.52040828 83.62280273 113.93731689 C83.45490334 117.45177163 83.28987759 120.96635939 83.125 124.48095703 C83.04284899 126.21864354 82.95955014 127.95627623 82.875 129.69384766 C81.17499939 164.72315708 80.77353443 199.76416209 80.46777344 234.828125 C80.41651114 240.62241874 80.36138581 246.4166758 80.30664062 252.2109375 C80.20076772 263.47392746 80.09934227 274.73695054 80 286 C73.07 286 66.14 286 59 286 C58.95304534 270.29701942 58.91768358 254.59406507 58.89637566 238.89103127 C58.88620474 231.59448421 58.87237069 224.29798288 58.84912109 217.00146484 C58.7459782 183.95416457 58.86250548 150.99482764 61 118 C61.0955568 116.50081074 61.19108162 115.00161943 61.28657532 113.50242615 C62.69803936 91.50980318 62.69803936 91.50980318 64 85 C51.46 85 38.92 85 26 85 C26.33 86.65 26.66 88.3 27 90 C27.19914111 92.21216035 27.36224568 94.42770145 27.5 96.64453125 C27.54060547 97.29080978 27.58121094 97.93708832 27.62304688 98.60295105 C27.70868238 99.97876989 27.79262875 101.35469476 27.875 102.73071289 C27.99568645 104.74066079 28.12272572 106.75022413 28.25 108.75976562 C29.44207766 127.92271575 30.14724677 147.11783981 30.5625 166.3125 C30.58367889 167.26607391 30.60485779 168.21964783 30.62667847 169.20211792 C31.45070823 208.12260736 31.08153879 247.07337949 31 286 C24.07 286 17.14 286 10 286 C9.970271 281.89763916 9.970271 281.89763916 9.93994141 277.71240234 C9.54423099 213.47176623 9.54423099 213.47176623 8.0625 149.25 C8.0249762 148.05284363 7.98745239 146.85568726 7.9487915 145.62225342 C7.52642674 132.46746086 6.82238012 119.37202619 5.66822815 106.25970459 C5.04637534 99.14753893 4.74441366 92.14221824 5 85 C4.20980469 84.97421875 3.41960937 84.9484375 2.60546875 84.921875 C-20.37713631 83.76617829 -43.26201813 78.08950572 -59.51171875 60.75390625 C-66.46284979 52.5621534 -70.9910552 41.22738808 -70.3828125 30.33984375 C-68.88399241 21.17868832 -65.84466276 13.22406005 -60 6 C-59.52175781 5.38640625 -59.04351562 4.7728125 -58.55078125 4.140625 C-43.41235804 -13.09506088 -17.72603219 -12.4516196 0 0 Z " fill="#FCFBFA" transform="translate(467,454)"/>
<path d="M0 0 C0.96250671 -0.00175232 1.92501343 -0.00350464 2.91668701 -0.00531006 C6.06019966 -0.00966825 9.20365487 -0.00681249 12.34716797 -0.00341797 C14.55191051 -0.00409263 16.75665298 -0.00506401 18.96139526 -0.00631714 C23.56574212 -0.00778584 28.17006948 -0.00566581 32.77441406 -0.00097656 C38.65961313 0.00472694 44.54476665 0.00143251 50.42996407 -0.00454903 C54.97684062 -0.00817126 59.52370646 -0.00700852 64.07058334 -0.00442123 C66.24019247 -0.00375692 68.40980259 -0.00456298 70.57941055 -0.00690079 C73.61546641 -0.00945542 76.65144953 -0.00554757 79.6875 0 C81.01565231 -0.00303635 81.01565231 -0.00303635 82.37063599 -0.00613403 C99.63693464 0.0519737 99.63693464 0.0519737 106.52685547 6.94189453 C108.81730897 11.16115098 109.10702687 14.28565927 108.12451172 18.89892578 C105.90463203 26.32075531 102.4951004 32.08378883 97.71435547 38.12939453 C97.22193359 38.77392578 96.72951172 39.41845703 96.22216797 40.08251953 C95.11577648 41.4835123 93.92377453 42.81631098 92.71435547 44.12939453 C92.05435547 44.12939453 91.39435547 44.12939453 90.71435547 44.12939453 C90.71435547 44.78939453 90.71435547 45.44939453 90.71435547 46.12939453 C88.85088056 47.65433308 87.01053861 49.02571031 85.02685547 50.37939453 C84.44033203 50.77980957 83.85380859 51.18022461 83.24951172 51.59277344 C69.34981899 60.84067263 55.03796782 64.71825204 38.40185547 64.56689453 C37.22486084 64.55932129 36.04786621 64.55174805 34.83520508 64.54394531 C13.34006247 64.13896222 -3.45883622 56.42633112 -18.47314453 41.00439453 C-24.85514793 33.75669351 -31.18024527 24.10409476 -31.55126953 14.16064453 C-31.04400059 10.28152909 -29.66899011 7.21757097 -27.28564453 4.12939453 C-20.12635687 -1.28372541 -8.62451199 -0.01980744 0 0 Z " fill="#FECE15" transform="translate(473.28564453125,879.87060546875)"/>
<path d="M0 0 C1.60128863 -0.00299884 3.20257654 -0.00640302 4.80386353 -0.01017761 C9.11774028 -0.01894352 13.43159716 -0.02135245 17.74548197 -0.0219934 C20.44655338 -0.0227076 23.14761985 -0.02484878 25.84869003 -0.02749062 C35.28780179 -0.03671625 44.7268995 -0.0408286 54.16601562 -0.04003906 C62.94113181 -0.03943754 71.71618668 -0.05001116 80.49128735 -0.06578273 C88.05001237 -0.07888034 95.60871738 -0.0842221 103.16745365 -0.08358365 C107.67134128 -0.08332952 112.17517421 -0.08613445 116.67905045 -0.0967617 C120.91283663 -0.10648136 125.14651618 -0.1064955 129.38030624 -0.09924507 C130.92739773 -0.09820435 132.47449601 -0.10053142 134.02157593 -0.10660553 C155.2632678 -0.18456034 155.2632678 -0.18456034 161.30419922 4.64526367 C164.29287727 7.71057449 164.93267769 9.23354595 165.11669922 13.39526367 C165.05725239 17.08691182 164.69050562 18.23325267 162.74169922 21.58276367 C157.32426562 26.21015487 150.97666542 26.39521239 144.07592773 26.39923096 C143.34786454 26.40235094 142.61980135 26.40547092 141.86967564 26.40868545 C139.4532342 26.41660209 137.03704834 26.4103668 134.62060547 26.40405273 C132.87873183 26.40676542 131.13685934 26.4103279 129.39498901 26.41467285 C124.68017115 26.42376614 119.96544113 26.42026523 115.2506218 26.41391468 C110.30827351 26.40883883 105.36593257 26.41355054 100.42358398 26.41668701 C92.12498632 26.42032204 83.82642429 26.41553972 75.52783203 26.40600586 C65.94387105 26.39512221 56.35999518 26.39864812 46.77603626 26.40965867 C38.53632029 26.41874475 30.29662988 26.42001036 22.05691051 26.41478133 C17.14055678 26.4116689 12.22424299 26.41123231 7.30789185 26.41785431 C2.68511104 26.42364635 -1.9375604 26.4195969 -6.56032944 26.4080658 C-8.25338434 26.40542914 -9.94644849 26.40616725 -11.63949966 26.41059113 C-13.95729901 26.41608747 -16.27475179 26.40916337 -18.5925293 26.39923096 C-19.88739761 26.39847691 -21.18226593 26.39772285 -22.51637268 26.39694595 C-27.91150395 26.03406914 -32.78307658 25.65831413 -36.69580078 21.64526367 C-39.29044907 17.49382641 -39.74750113 15.1188006 -39.25830078 10.14526367 C-37.48506036 6.33891139 -35.40645351 3.76134562 -31.69580078 1.77026367 C-21.23426199 -0.13183429 -10.59592481 -0.00400139 0 0 Z " fill="#FECF15" transform="translate(448.25830078125,783.854736328125)"/>
<path d="M0 0 C3.07754973 -0.00160931 6.15509188 -0.00516429 9.23263931 -0.00918579 C14.1556851 -0.01509959 19.07869993 -0.01522343 24.00174713 -0.01093674 C25.83094771 -0.00994903 27.66014993 -0.01050643 29.48934937 -0.01277542 C63.62131727 -0.04751526 63.62131727 -0.04751526 70.84308243 6.24838257 C73.04102339 10.29259394 73.29323434 13.62171932 72.40558243 18.12338257 C70.01991201 22.35602363 68.43616452 23.79685706 63.798069 25.26637268 C56.33161213 26.75103726 48.64298338 26.4104879 41.06329727 26.39804077 C39.30980081 26.40239313 37.55630625 26.40757802 35.80281448 26.41352844 C31.06127151 26.42686948 26.31980848 26.42750286 21.57825041 26.42496514 C17.61435358 26.42389267 13.65047274 26.42878556 9.68657935 26.43357056 C0.33573998 26.44464758 -9.0150592 26.44511252 -18.36590195 26.4390564 C-28.0050311 26.43300959 -37.64401454 26.44534969 -47.28311884 26.46662647 C-55.57039939 26.48424504 -63.85763356 26.49024364 -72.14493215 26.48698872 C-77.08976991 26.48517704 -82.03450358 26.48780115 -86.97932434 26.50170326 C-91.62677517 26.51428208 -96.2739985 26.512337 -100.92144585 26.49929237 C-102.6245996 26.49692763 -104.32776939 26.49965762 -106.03090477 26.5079155 C-108.36008817 26.51839298 -110.68850948 26.51027503 -113.01766586 26.49760437 C-114.3195315 26.49777211 -115.62139713 26.49793985 -116.96271324 26.49811268 C-122.38100364 25.93903728 -126.25433572 24.53046852 -130.09441757 20.49838257 C-132.07892695 16.03323648 -132.05903062 12.76560639 -130.59441757 8.12338257 C-127.36377907 3.65749994 -123.89082329 2.05938433 -118.59441757 1.12338257 C-114.87756707 0.90027736 -111.17924105 0.96063336 -107.45769882 1.02963257 C-105.29186408 1.04990134 -103.12600905 1.06809701 -100.96014023 1.08432007 C-99.88250412 1.09366577 -98.80486801 1.10301147 -97.69457626 1.11264038 C-93.2974419 1.12787665 -88.90746148 1.02926711 -84.51238632 0.90463257 C-82.78298174 0.85866222 -81.05357071 0.81293361 -79.3241539 0.76742554 C-77.98098602 0.73186554 -77.98098602 0.73186554 -76.61068344 0.69558716 C-51.07643729 0.04382245 -25.54096206 0.00879346 0 0 Z " fill="#FECF15" transform="translate(540.5944175720215,831.8766174316406)"/>
<path d="M0 0 C0.94708832 -0.00700928 1.89417664 -0.01401855 2.8699646 -0.02124023 C5.99043377 -0.03879846 9.10999087 -0.02720488 12.23046875 -0.01367188 C14.40470554 -0.0163674 16.57894116 -0.02025033 18.75317383 -0.02526855 C23.30594378 -0.03116068 27.85839944 -0.0226096 32.41113281 -0.00390625 C38.24208088 0.01888281 44.07229245 0.00575824 49.9032135 -0.01819611 C54.39169853 -0.03266162 58.88000943 -0.02804456 63.36849976 -0.01768494 C65.51826057 -0.01501975 67.66803729 -0.01828006 69.81777954 -0.02760315 C72.82425719 -0.03778085 75.82954807 -0.0222499 78.8359375 0 C79.72131195 -0.00809692 80.6066864 -0.01619385 81.51889038 -0.02453613 C86.95764185 0.04989721 90.12788995 0.85751525 94.41796875 4.51757812 C96.66113344 7.88232517 97.2661384 9.49407379 97.41796875 13.51757812 C96.1227094 17.81881673 94.7295712 20.71281288 90.83520508 23.10229492 C86.88839147 24.73690795 83.4468832 24.97537932 79.24609375 24.99414062 C78.48246521 25.00972015 77.71883667 25.02529968 76.93206787 25.04135132 C74.51071084 25.08859625 72.08963869 25.11655421 69.66796875 25.14257812 C67.23221593 25.1790976 64.79662368 25.21968523 62.36102295 25.26522827 C60.84976645 25.2924103 59.33839198 25.31378099 57.82696533 25.32876587 C53.99554512 25.32035336 53.99554512 25.32035336 50.41796875 26.51757812 C50.41796875 25.85757812 50.41796875 25.19757813 50.41796875 24.51757812 C45.46796875 24.84757812 40.51796875 25.17757813 35.41796875 25.51757812 C35.41796875 25.84757812 35.41796875 26.17757813 35.41796875 26.51757812 C32.07544151 26.59185651 29.61437735 26.58304766 26.41796875 25.51757812 C23.75867531 25.41132343 21.12077818 25.35650352 18.4609375 25.34179688 C16.8574088 25.31859511 15.25389313 25.29447762 13.65039062 25.26953125 C11.129062 25.2344617 8.60821247 25.20509275 6.08666992 25.19165039 C3.64833906 25.17611658 1.21139815 25.13587443 -1.2265625 25.09179688 C-1.97363968 25.09370529 -2.72071686 25.09561371 -3.49043274 25.09757996 C-8.64548781 24.97794811 -11.60686112 23.76999005 -15.58203125 20.51757812 C-17.39720414 17.67117658 -18.17522421 14.86243598 -18.58203125 11.51757812 C-17.52578623 7.2221817 -16.4029671 5.22067724 -13.05200195 2.35070801 C-8.52583164 -0.04039519 -5.03899018 -0.04608256 0 0 Z " fill="#FECE15" transform="translate(153.58203125,411.482421875)"/>
<path d="M0 0 C4.78714131 3.83833852 9.02980583 8.33640252 13 13 C13 13.66 13 14.32 13 15 C13.61875 15.2475 14.2375 15.495 14.875 15.75 C17.40358627 17.23740369 17.71839004 18.43678009 19 21 C19.66 21.33 20.32 21.66 21 22 C23.49016793 23.24508396 23.98686718 24.46716796 25 27 C25.66 27 26.32 27 27 27 C27 27.66 27 28.32 27 29 C27.66 29 28.32 29 29 29 C30.625 30.375 30.625 30.375 32 32 C32 32.66 32 33.32 32 34 C32.66 34 33.32 34 34 34 C35.55078125 35.57421875 35.55078125 35.57421875 37.3125 37.6875 C41.72030808 42.85872226 46.36300634 47.39995609 51.64453125 51.66796875 C52.09183594 52.10753906 52.53914063 52.54710937 53 53 C53 53.66 53 54.32 53 55 C53.66 55 54.32 55 55 55 C56.83899622 56.82477718 58.4491444 58.8000538 60.11328125 60.78515625 C61.93384494 62.97873814 61.93384494 62.97873814 63.79296875 64.80859375 C66.65329122 67.7504456 68.39425751 69.86935206 68.625 74.0625 C67.91475986 78.53701287 67.03888015 80.64943983 64 84 C60.39687673 86.13518416 58.24725757 87.15922437 54.0625 86.625 C44.39333784 81.49442416 36.63829586 71.8191994 28.9453125 64.1484375 C28.28215908 63.48811146 27.61900566 62.82778542 26.93575668 62.14744949 C23.43592215 58.66251541 19.9389025 55.17478666 16.44433594 51.68457031 C12.83975537 48.0855043 9.22596685 44.49583238 5.61000252 40.90820885 C2.82203707 38.13885412 0.04078962 35.36282679 -2.73865128 32.58491898 C-4.06862389 31.25796986 -5.40109351 29.9335185 -6.73611069 28.61164474 C-8.59798795 26.76681715 -10.45017605 24.91276354 -12.30029297 23.05615234 C-12.85092911 22.51473099 -13.40156525 21.97330963 -13.96888733 21.41548157 C-16.87190076 18.48041882 -18.90294301 16.01239164 -20 12 C-19.92231804 7.6498105 -19.48654944 5.6081868 -16.75 2.1875 C-11.15019263 -2.26689222 -6.5153537 -3.31914245 0 0 Z " fill="#FECE16" transform="translate(260,157)"/>
<path d="M0 0 C5.52315179 -0.00910217 11.04410305 0.01233056 16.56665039 0.09738159 C18.15672999 0.12037444 19.746933 0.13609597 21.3371582 0.14419556 C23.5131388 0.15944857 25.68587911 0.20692639 27.86108398 0.26495361 C29.0525 0.28702881 30.24391602 0.309104 31.47143555 0.33184814 C35.83362878 1.23850778 37.55390812 2.90692696 40.72045898 6.00714111 C42.58007985 9.72638284 42.29444606 13.95734342 41.72045898 18.00714111 C39.15098739 21.43310324 36.61322297 23.33723799 32.72045898 25.00714111 C30.77699471 25.26441002 30.77699471 25.26441002 28.71121216 25.27456665 C27.52957489 25.2873616 27.52957489 25.2873616 26.32406616 25.30041504 C25.04132309 25.29905548 25.04132309 25.29905548 23.73266602 25.29766846 C22.82488403 25.30438568 21.91710205 25.31110291 20.98181152 25.31802368 C17.98057585 25.33702305 14.97956356 25.34092885 11.97827148 25.34307861 C9.89085803 25.34950514 7.80344549 25.3562334 5.71603394 25.36325073 C1.33972078 25.37522832 -3.03651341 25.37893105 -7.4128418 25.37774658 C-13.01735925 25.37754336 -18.62136982 25.40484721 -24.22576714 25.439291 C-28.53750936 25.4615412 -32.84912924 25.4655847 -37.160923 25.46452713 C-39.2269681 25.46688585 -41.29301643 25.4757246 -43.35900497 25.49119186 C-46.25068286 25.51081366 -49.14126297 25.50502863 -52.03295898 25.49298096 C-52.88407257 25.50421997 -53.73518616 25.51545898 -54.61209106 25.52703857 C-59.96834895 25.47040428 -63.03030706 24.57040889 -67.27954102 21.00714111 C-69.0947139 18.16073957 -69.87273398 15.35199897 -70.27954102 12.00714111 C-69.11742987 7.28122244 -67.43138795 4.44478315 -63.27685547 1.82785034 C-58.87807207 0.02036223 -54.02707458 0.38121266 -49.34204102 0.36260986 C-48.16470398 0.34306747 -46.98736694 0.32352509 -45.77435303 0.3033905 C-41.94268479 0.24623307 -38.11154932 0.21878266 -34.27954102 0.19464111 C-31.64965236 0.16703491 -29.01976946 0.138875 -26.38989258 0.11016846 C-17.59320667 0.02672389 -8.79696962 0.01915517 0 0 Z " fill="#FECE15" transform="translate(845.279541015625,410.99285888671875)"/>
<path d="M0 0 C5.37486288 3.02052154 9.40723793 7.17216195 13.6875 11.5625 C14.35072266 12.23474609 15.01394531 12.90699219 15.69726562 13.59960938 C16.92641234 14.84608545 18.15348034 16.09461762 19.37768555 17.34594727 C20.4631451 18.45264229 21.57477178 19.53423827 22.71020508 20.58959961 C24 22 24 22 24 24 C24.66 24 25.32 24 26 24 C28.61946454 26.41266471 30.91593966 28.89368839 33.125 31.6875 C34.96561073 34.19153669 34.96561073 34.19153669 38 36 C38 36.66 38 37.32 38 38 C38.66 38 39.32 38 40 38 C41.35386936 39.65002828 42.68678142 41.3174387 44 43 C44.99 43.495 44.99 43.495 46 44 C46 44.66 46 45.32 46 46 C46.55171875 46.21398437 47.1034375 46.42796875 47.671875 46.6484375 C50.78318639 48.45466861 52.90555391 50.95085976 55.25 53.625 C59.15406733 58.00272497 63.14046141 62.1866658 67.44140625 66.18359375 C69.74896204 68.8728505 70.91543452 71.51164748 71.1171875 75.0625 C70.531695 79.74644004 69.65571003 82.72910155 66 86 C61.88895758 87.86160412 59.93676302 88.31669248 55.62901306 86.86036682 C51.88867749 85.13347107 49.10660344 82.65940124 46.24829102 79.73413086 C45.72057602 79.21021255 45.19286102 78.68629425 44.64915466 78.14649963 C42.92417137 76.42886886 41.21391734 74.69737041 39.50390625 72.96484375 C38.30394837 71.76249957 37.10324793 70.56089608 35.90184021 69.36000061 C33.39518093 66.85022311 30.89535579 64.33389927 28.40063477 61.81225586 C25.1972592 58.5747551 21.98072714 55.35072433 18.75949192 52.13100338 C16.28400299 49.65497193 13.81375019 47.17377332 11.34525871 44.69076729 C10.16027279 43.49940557 8.97406152 42.30926138 7.786623 41.12034416 C6.13462173 39.46402653 4.48936221 37.8013062 2.84594727 36.13647461 C2.10503342 35.39692032 2.10503342 35.39692032 1.34915161 34.64242554 C-2 31.22896718 -2 31.22896718 -2 29 C-2.66 29 -3.32 29 -4 29 C-4 28.34 -4 27.68 -4 27 C-4.58394531 26.75894531 -5.16789063 26.51789062 -5.76953125 26.26953125 C-8.42852142 24.75609551 -9.81772293 23.10076975 -11.6875 20.6875 C-12.28949219 19.92824219 -12.89148438 19.16898438 -13.51171875 18.38671875 C-15.11683369 15.81263679 -15.72416862 14.0099494 -16 11 C-13.4969281 3.07360567 -8.85186469 -2.17695045 0 0 Z " fill="#FECF15" transform="translate(713,612)"/>
<path d="M0 0 C3.87330118 2.41005407 5.93437742 4.52438514 7 9 C7.14137654 15.36194415 3.07759658 18.65516136 -1 23 C-1.94600667 24.15977961 -2.88464881 25.32564506 -3.8125 26.5 C-4.534375 27.325 -5.25625 28.15 -6 29 C-6.66 29 -7.32 29 -8 29 C-8 29.66 -8 30.32 -8 31 C-8.680625 31.53625 -9.36125 32.0725 -10.0625 32.625 C-12.37907523 34.49797572 -13.94419555 36.0305109 -15.80859375 38.2734375 C-22.08058224 45.53192923 -29.07813674 52.13144212 -35.89355469 58.87304688 C-45.03649601 67.89865917 -45.03649601 67.89865917 -53.64355469 77.43017578 C-55.50617861 79.58580426 -57.51248621 81.52855572 -59.625 83.4375 C-60.33914063 84.09621094 -61.05328125 84.75492187 -61.7890625 85.43359375 C-64.29076258 87.20599964 -65.95705635 87.74803651 -69 88 C-72.44736651 86.87069028 -75.12381095 85.75936385 -77.875 83.375 C-79.63289198 79.66389471 -80.23581703 76.10178721 -80 72 C-78.3064357 68.6128714 -76.41463531 66.41319809 -73.74609375 63.75390625 C-70.6405856 60.63956308 -67.66782949 57.42081194 -64.6875 54.1875 C-58.63247139 47.63870311 -52.37840797 41.31701761 -45.97924805 35.10424805 C-45.32867432 34.46527588 -44.67810059 33.82630371 -44.0078125 33.16796875 C-43.13600342 32.32141724 -43.13600342 32.32141724 -42.24658203 31.45776367 C-40.78336319 30.06634353 -40.78336319 30.06634353 -41 28 C-40.278125 27.5875 -39.55625 27.175 -38.8125 26.75 C-36.27159291 25.16899114 -35.11261503 24.08943121 -33.3125 21.8125 C-32.549375 20.884375 -31.78625 19.95625 -31 19 C-30.34 19 -29.68 19 -29 19 C-28.78601563 18.46375 -28.57203125 17.9275 -28.3515625 17.375 C-23.03133628 8.02616318 -11.32388703 -3.41853193 0 0 Z " fill="#FECE15" transform="translate(777,156)"/>
<path d="M0 0 C4.02230527 2.12499146 6.31814234 3.78343251 8 8 C8.26006222 10.06840324 8.26006222 10.06840324 8.27415466 12.31295776 C8.28911736 13.59556488 8.28911736 13.59556488 8.30438232 14.90408325 C8.305047 15.83405121 8.30571167 16.76401917 8.30639648 17.72216797 C8.31472 18.70797852 8.32304352 19.69378906 8.33161926 20.70947266 C8.35572748 23.9704177 8.3644922 27.23116277 8.37109375 30.4921875 C8.38005902 32.75896261 8.38918085 35.02573711 8.39845276 37.29251099 C8.41494725 42.04544514 8.4226438 46.7983088 8.42553711 51.55126953 C8.43092315 57.64013456 8.46861111 63.72833688 8.51428127 69.81701469 C8.54402924 74.49934303 8.55126018 79.1815113 8.55226326 83.86392593 C8.55646956 86.10861371 8.56892015 88.35330179 8.58978081 90.59789658 C8.61664886 93.73877412 8.6118828 96.87810902 8.59936523 100.01904297 C8.61419952 100.94496246 8.62903381 101.87088196 8.64431763 102.82485962 C8.59483076 107.18736066 8.38455288 110.09507062 5.58753967 113.56130981 C2.52818424 116.44467433 1.85675134 116.93533952 -2.3125 117.25 C-6.90183179 116.93885886 -9.08159291 115.51832305 -12.59831238 112.73501587 C-18.14673655 105.86714899 -15.16448988 86.79259399 -15.16796875 78.1640625 C-15.17118933 76.27127051 -15.17455397 74.37847875 -15.17805481 72.48568726 C-15.18400291 68.54400047 -15.18589886 64.60233548 -15.18530273 60.66064453 C-15.18520059 55.62050035 -15.19892609 50.58049537 -15.21607494 45.54038429 C-15.22720335 41.64211385 -15.22922179 37.7438772 -15.22869301 33.8455925 C-15.22986902 31.98692718 -15.23426943 30.12826087 -15.24202538 28.26961136 C-15.25185576 25.6739445 -15.24893677 23.07858223 -15.24291992 20.48291016 C-15.24853943 19.72433716 -15.25415894 18.96576416 -15.25994873 18.1842041 C-15.22656933 12.49864585 -14.79203982 7.12804728 -11 2.625 C-7.31549208 -0.36866269 -4.72368073 -0.39364006 0 0 Z " fill="#FECE16" transform="translate(516,57)"/>
<path d="M0 0 C3.16738887 1.54999881 4.48432695 2.76903852 5.84765625 6.0234375 C7.46164869 11.68690799 6.82236456 14.89803329 4 20 C3.34 20 2.68 20 2 20 C1.62875 20.86625 1.62875 20.86625 1.25 21.75 C-0.18299988 24.32939979 -1.78424676 26.06121592 -4 28 C-4.66 28 -5.32 28 -6 28 C-6.24998245 28.57562683 -6.4999649 29.15125366 -6.75752258 29.74432373 C-8.17476505 32.31728011 -9.79186232 34.02519722 -11.87963867 36.09082031 C-12.6777446 36.88554749 -13.47585052 37.68027466 -14.29814148 38.49908447 C-15.16268448 39.35016785 -16.02722748 40.20125122 -16.91796875 41.078125 C-18.2538781 42.40623199 -18.2538781 42.40623199 -19.61677551 43.76116943 C-21.98618777 46.11577764 -24.35954285 48.46624855 -26.73535156 50.81439209 C-30.06277165 54.10391159 -33.38521159 57.39842732 -36.70466614 60.69598389 C-38.46934753 62.44852819 -40.23669491 64.19839351 -42.00712585 65.94512939 C-46.33959794 70.24283535 -50.5178933 74.59972963 -54.47602844 79.24603271 C-60.78110345 86.50266112 -60.78110345 86.50266112 -65.265625 87.5078125 C-69.24845676 87.70563527 -71.47354405 87.31363333 -74.9375 85.25 C-77.30912356 82.6627743 -78.77207592 80.53468879 -79.29296875 77.02734375 C-78.59225005 63.1427325 -60.92248073 50.72723576 -51.6875 41.625 C-49.36191275 39.32715287 -47.03787595 37.02778824 -44.7167511 34.72543335 C-43.28269461 33.30351348 -41.84597362 31.8842741 -40.40617371 30.46817017 C-37.02634678 27.12223165 -33.94112642 23.7461593 -31 20 C-29.55015807 18.80790775 -28.09922118 17.61696566 -26.6328125 16.4453125 C-24.7535276 14.78183065 -23.18529544 12.97637983 -21.5625 11.0625 C-15.19491026 3.59119471 -10.17440981 -1.19698939 0 0 Z " fill="#FECE15" transform="translate(319,612)"/>
<path d="M0 0 C10.89072671 10.89072671 13.83049656 29.60415353 14.05078125 44.4140625 C14.03402344 45.26742187 14.01726562 46.12078125 14 47 C-1.02805558 46.43075547 -17.32461304 43.39153754 -29.03125 33.23828125 C-34.78212164 26.96588449 -36.64553711 20.35475852 -36.4140625 11.9375 C-35.58799255 6.0770792 -32.39806442 2.10484856 -28.1875 -1.875 C-18.8355499 -8.1096334 -8.60696229 -6.96484449 0 0 Z " fill="#FECB14" transform="translate(455,471)"/>
<path d="M0 0 C4.67054386 2.77066161 8.5697021 7.3410976 10.20703125 12.55078125 C11.52959392 19.80307545 10.1849976 26.50797588 6.15625 32.640625 C-3.89187437 45.05859002 -18.88668662 48.39180429 -34.05297852 49.99316406 C-35.84699894 50.17060599 -37.64214703 50.33659063 -39.4375 50.5 C-38.98671411 35.01550473 -37.30618752 16.21011898 -26.37890625 4.24609375 C-19.16439793 -2.30653307 -9.20005846 -4.04731254 0 0 Z " fill="#FECB14" transform="translate(594.4375,467.5)"/>
<path d="M0 0 C1.60128863 -0.00299884 3.20257654 -0.00640302 4.80386353 -0.01017761 C9.11774028 -0.01894352 13.43159716 -0.02135245 17.74548197 -0.0219934 C20.44655338 -0.0227076 23.14761985 -0.02484878 25.84869003 -0.02749062 C35.28780179 -0.03671625 44.7268995 -0.0408286 54.16601562 -0.04003906 C62.94113181 -0.03943754 71.71618668 -0.05001116 80.49128735 -0.06578273 C88.05001237 -0.07888034 95.60871738 -0.0842221 103.16745365 -0.08358365 C107.67134128 -0.08332952 112.17517421 -0.08613445 116.67905045 -0.0967617 C120.91283663 -0.10648136 125.14651618 -0.1064955 129.38030624 -0.09924507 C130.92739773 -0.09820435 132.47449601 -0.10053142 134.02157593 -0.10660553 C155.2632678 -0.18456034 155.2632678 -0.18456034 161.30419922 4.64526367 C164.29287727 7.71057449 164.93267769 9.23354595 165.11669922 13.39526367 C165.05725239 17.08691182 164.69050562 18.23325267 162.74169922 21.58276367 C157.32426562 26.21015487 150.97666542 26.39521239 144.07592773 26.39923096 C143.34786454 26.40235094 142.61980135 26.40547092 141.86967564 26.40868545 C139.4532342 26.41660209 137.03704834 26.4103668 134.62060547 26.40405273 C132.87873183 26.40676542 131.13685934 26.4103279 129.39498901 26.41467285 C124.68017115 26.42376614 119.96544113 26.42026523 115.2506218 26.41391468 C110.30827351 26.40883883 105.36593257 26.41355054 100.42358398 26.41668701 C92.12498632 26.42032204 83.82642429 26.41553972 75.52783203 26.40600586 C65.94387105 26.39512221 56.35999518 26.39864812 46.77603626 26.40965867 C38.53632029 26.41874475 30.29662988 26.42001036 22.05691051 26.41478133 C17.14055678 26.4116689 12.22424299 26.41123231 7.30789185 26.41785431 C2.68511104 26.42364635 -1.9375604 26.4195969 -6.56032944 26.4080658 C-8.25338434 26.40542914 -9.94644849 26.40616725 -11.63949966 26.41059113 C-13.95729901 26.41608747 -16.27475179 26.40916337 -18.5925293 26.39923096 C-19.88739761 26.39847691 -21.18226593 26.39772285 -22.51637268 26.39694595 C-27.91150395 26.03406914 -32.78307658 25.65831413 -36.69580078 21.64526367 C-39.28502747 17.50250097 -39.67135949 15.10196822 -39.25830078 10.14526367 C-37.44580078 6.70776367 -37.44580078 6.70776367 -35.25830078 4.14526367 C-34.26830078 4.14526367 -33.27830078 4.14526367 -32.25830078 4.14526367 C-32.25830078 4.80526367 -32.25830078 5.46526367 -32.25830078 6.14526367 C-32.91830078 6.14526367 -33.57830078 6.14526367 -34.25830078 6.14526367 C-35.24781833 10.22702355 -35.71537108 13.95545261 -35.25830078 18.14526367 C-32.48301195 21.10617586 -30.79530558 22.06859475 -26.75219727 22.64583492 C-25.37808402 22.66643097 -24.00353487 22.6651709 -22.62939453 22.64646912 C-21.8691095 22.65200351 -21.10882446 22.65753791 -20.32550049 22.66324002 C-17.78193315 22.67683617 -15.23934883 22.66188355 -12.69580078 22.64697266 C-10.87068261 22.65075622 -9.04556731 22.65625657 -7.22045898 22.66334534 C-2.26590989 22.67731234 2.68829241 22.66612139 7.64282227 22.64963412 C12.82682572 22.63578832 18.01080895 22.64224317 23.19482422 22.64576721 C31.90061027 22.6484697 40.60625847 22.63499035 49.31201172 22.61181641 C59.37827347 22.58520645 69.44430473 22.58345944 79.5105896 22.59520477 C89.19247386 22.60598255 98.87427471 22.59979546 108.55615234 22.58564949 C112.67726614 22.5798897 116.7983189 22.57997232 120.91943359 22.58471489 C125.77204232 22.58948586 130.62439854 22.57937792 135.47695923 22.55776024 C137.25834298 22.55219385 139.03975101 22.55172571 140.82113647 22.5567131 C143.2519692 22.56266547 145.68202981 22.55016222 148.11279297 22.53294373 C149.17140533 22.54195879 149.17140533 22.54195879 150.25140381 22.55115598 C154.56811943 22.49551495 157.30304245 21.7855829 160.74169922 19.14526367 C161.88358967 16.52111159 161.94657273 13.98580722 161.74169922 11.14526367 C160.40218591 8.14730532 159.68610172 6.61746492 156.74169922 5.14526367 C154.28615007 5.03773344 151.85820359 4.99037383 149.40194702 4.98704529 C148.63661388 4.98210731 147.87128074 4.97716933 147.08275568 4.97208172 C144.50471699 4.95665907 141.92670329 4.94833324 139.34863281 4.93994141 C137.50599445 4.93036662 135.6633583 4.92035678 133.82072449 4.90994263 C128.80655415 4.88284415 123.79237436 4.8618614 118.77817106 4.84194064 C113.54241418 4.82011151 108.30668662 4.79270782 103.07095337 4.7658844 C93.15102356 4.71591586 83.2310775 4.6709925 73.31111586 4.62786204 C62.01985021 4.57852517 50.72861396 4.5235939 39.43737674 4.46818244 C16.20551166 4.35429854 -7.02638162 4.24747349 -30.25830078 4.14526367 C-30.25830078 3.48526367 -30.25830078 2.82526367 -30.25830078 2.14526367 C-21.92480121 -2.02148611 -9.20421258 -0.00347583 0 0 Z " fill="#FEC40C" transform="translate(448.25830078125,783.854736328125)"/>
<path d="M0 0 C3.07754973 -0.00160931 6.15509188 -0.00516429 9.23263931 -0.00918579 C14.1556851 -0.01509959 19.07869993 -0.01522343 24.00174713 -0.01093674 C25.83094771 -0.00994903 27.66014993 -0.01050643 29.48934937 -0.01277542 C57.99743371 -0.04179122 57.99743371 -0.04179122 65.40558243 2.12338257 C65.40558243 2.78338257 65.40558243 3.44338257 65.40558243 4.12338257 C-28.64441757 4.61838257 -28.64441757 4.61838257 -124.59441757 5.12338257 C-124.59441757 5.78338257 -124.59441757 6.44338257 -124.59441757 7.12338257 C-125.33691757 7.68025757 -125.33691757 7.68025757 -126.09441757 8.24838257 C-128.46053808 11.2060332 -127.97761818 14.46823828 -127.59441757 18.12338257 C-127.26441757 19.11338257 -126.93441757 20.10338257 -126.59441757 21.12338257 C-122.98926734 22.66190848 -118.89941585 22.26851187 -115.04107285 22.26382446 C-114.27685312 22.26679559 -113.51263339 22.26976671 -112.72525549 22.27282786 C-110.16275156 22.28150429 -107.6002944 22.2830222 -105.03777695 22.28451538 C-103.20133489 22.28914416 -101.3648938 22.2941689 -99.52845383 22.29956055 C-94.53891218 22.31267746 -89.54938399 22.31912768 -84.5598278 22.32357121 C-81.4440925 22.326502 -78.32836087 22.33060673 -75.21262741 22.33507538 C-65.46830147 22.34874606 -55.72398393 22.35841583 -45.97964907 22.36227727 C-34.7227754 22.36676248 -23.46602289 22.38433363 -12.20918608 22.41327786 C-3.51187245 22.43486684 5.18540702 22.44498 13.88274717 22.44631839 C19.07964071 22.44736806 24.27642029 22.45331076 29.47328568 22.471138 C34.35866971 22.48757143 39.24385353 22.48979729 44.12925529 22.48099899 C45.9239728 22.48022618 47.71870087 22.48460336 49.51339149 22.49445724 C51.95991446 22.50710447 54.40572042 22.50133987 56.8522377 22.49087524 C57.56546519 22.49893165 58.27869267 22.50698805 59.01353312 22.51528859 C62.02221428 22.48510596 64.1416369 22.26345206 66.81907272 20.84260178 C68.95833161 18.52439663 69.26083218 16.217505 69.52276993 13.13119507 C69.35260036 10.2156231 68.17459148 8.38771415 66.40558243 6.12338257 C67.72558243 6.12338257 69.04558243 6.12338257 70.40558243 6.12338257 C73.10654083 10.17482017 73.16852244 13.36718205 72.40558243 18.12338257 C70.01991201 22.35602363 68.43616452 23.79685706 63.798069 25.26637268 C56.33161213 26.75103726 48.64298338 26.4104879 41.06329727 26.39804077 C39.30980081 26.40239313 37.55630625 26.40757802 35.80281448 26.41352844 C31.06127151 26.42686948 26.31980848 26.42750286 21.57825041 26.42496514 C17.61435358 26.42389267 13.65047274 26.42878556 9.68657935 26.43357056 C0.33573998 26.44464758 -9.0150592 26.44511252 -18.36590195 26.4390564 C-28.0050311 26.43300959 -37.64401454 26.44534969 -47.28311884 26.46662647 C-55.57039939 26.48424504 -63.85763356 26.49024364 -72.14493215 26.48698872 C-77.08976991 26.48517704 -82.03450358 26.48780115 -86.97932434 26.50170326 C-91.62677517 26.51428208 -96.2739985 26.512337 -100.92144585 26.49929237 C-102.6245996 26.49692763 -104.32776939 26.49965762 -106.03090477 26.5079155 C-108.36008817 26.51839298 -110.68850948 26.51027503 -113.01766586 26.49760437 C-114.3195315 26.49777211 -115.62139713 26.49793985 -116.96271324 26.49811268 C-122.38100364 25.93903728 -126.25433572 24.53046852 -130.09441757 20.49838257 C-132.07892695 16.03323648 -132.05903062 12.76560639 -130.59441757 8.12338257 C-127.36377907 3.65749994 -123.89082329 2.05938433 -118.59441757 1.12338257 C-114.87756707 0.90027736 -111.17924105 0.96063336 -107.45769882 1.02963257 C-105.29186408 1.04990134 -103.12600905 1.06809701 -100.96014023 1.08432007 C-99.88250412 1.09366577 -98.80486801 1.10301147 -97.69457626 1.11264038 C-93.2974419 1.12787665 -88.90746148 1.02926711 -84.51238632 0.90463257 C-82.78298174 0.85866222 -81.05357071 0.81293361 -79.3241539 0.76742554 C-77.98098602 0.73186554 -77.98098602 0.73186554 -76.61068344 0.69558716 C-51.07643729 0.04382245 -25.54096206 0.00879346 0 0 Z " fill="#FEC60C" transform="translate(540.5944175720215,831.8766174316406)"/>
<path d="M0 0 C5.13151646 4.16750325 6.19337473 11.88547343 8 18 C8.21446777 18.71833008 8.42893555 19.43666016 8.64990234 20.17675781 C15.09371142 42.28239896 17.36902494 64.87537068 17.375 87.8125 C17.37690338 88.60768036 17.37880676 89.40286072 17.38076782 90.22213745 C17.37670892 105.12972346 17.37670892 105.12972346 15.58886719 111.76879883 C14.84358938 114.59263545 14.33460531 117.43593944 13.80859375 120.30859375 C7.6775788 152.6076888 -3.55360737 181.72082743 -22 209 C-22.43844238 209.65081543 -22.87688477 210.30163086 -23.32861328 210.97216797 C-28.5268125 218.62246117 -34.19860271 225.7315356 -40.22265625 232.7421875 C-63.45106817 259.8487767 -81.92422773 290.34439629 -92.75 324.4375 C-94 328 -94 328 -96 329 C-95.4459478 322.90542584 -94.06131562 317.74037262 -92 312 C-91.68417969 311.00484375 -91.36835937 310.0096875 -91.04296875 308.984375 C-83.22496582 285.22648623 -68.53297209 263.38766186 -53 244 C-51.36949647 241.77504206 -49.75207185 239.54289199 -48.15625 237.29296875 C-47.7746875 236.86628906 -47.393125 236.43960938 -47 236 C-46.34 236 -45.68 236 -45 236 C-44.731875 235.401875 -44.46375 234.80375 -44.1875 234.1875 C-42.99427577 231.98945536 -41.75321129 230.75321129 -40 229 C-39.57074219 228.26910156 -39.14148438 227.53820312 -38.69921875 226.78515625 C-36.77073443 223.62421529 -34.5451824 220.77064845 -32.25 217.875 C-27.774392 212.13188424 -23.78360358 206.22544466 -20 200 C-19.28492156 198.87041733 -18.56871588 197.74154771 -17.8515625 196.61328125 C-11.90428015 187.1408778 -7.19643826 177.35957163 -3 167 C-2.48324707 165.73325439 -2.48324707 165.73325439 -1.95605469 164.44091797 C3.39403156 151.12498308 6.97162517 137.85660553 9.49609375 123.73828125 C9.93887422 121.33216412 10.4385769 118.95046973 10.96875 116.5625 C18.35455473 80.9949906 12.39304824 41.08342278 0.91796875 7.1171875 C0 4 0 4 0 0 Z " fill="#FEC40B" transform="translate(727,351)"/>
<path d="M0 0 C0 3 0 3 -2 5.25 C-4.28625029 7.41249315 -6.67669155 9.44865068 -9.0625 11.5 C-11.30003107 13.43336018 -13.1460664 15.182583 -15 17.5 C-16.85436031 19.81795039 -18.68631471 21.52168682 -20.9375 23.4375 C-25.1844993 27.07438932 -29.19185631 30.57556893 -31 36 C-33.4375 38.6875 -33.4375 38.6875 -36 41 C-36.66 41 -37.32 41 -38 41 C-38.226875 41.70125 -38.45375 42.4025 -38.6875 43.125 C-39.99994432 45.99987803 -41.6552441 47.9581976 -43.68725586 50.34521484 C-45.7661482 52.96577134 -47.32104582 55.82782107 -48.9375 58.75 C-49.63424321 60.00325727 -50.33216475 61.25586015 -51.03125 62.5078125 C-51.36769531 63.11141602 -51.70414062 63.71501953 -52.05078125 64.33691406 C-53.27413109 66.48029347 -54.60649522 68.54715365 -55.9375 70.625 C-59.0011175 75.66896693 -61.38950459 81.00341364 -63.8125 86.375 C-64.21009521 87.25623535 -64.60769043 88.1374707 -65.01733398 89.04541016 C-66.62891834 92.67767068 -68.13350719 96.10987143 -69 100 C-69.66 100 -70.32 100 -71 100 C-71.1335791 100.87438721 -71.2671582 101.74877441 -71.40478516 102.6496582 C-71.94954849 105.71601886 -72.66489382 108.61445484 -73.5234375 111.60546875 C-77.20069268 124.66599607 -80.41046271 137.51376952 -82 151 C-82.0928125 151.71027344 -82.185625 152.42054688 -82.28125 153.15234375 C-87.0882802 193.87475669 -80.99698553 236.88305098 -63.375 273.9375 C-63.08882813 274.54400391 -62.80265625 275.15050781 -62.5078125 275.77539062 C-61.15459871 278.63251702 -59.76275216 281.42694159 -58.2265625 284.19140625 C-56.88014672 287.27444112 -57.03475867 287.94612683 -58 291 C-71.76009154 266.32770472 -81.18355828 240.07219066 -85 212 C-85.10296387 211.25137695 -85.20592773 210.50275391 -85.31201172 209.73144531 C-90.13741249 173.06449792 -85.18589317 137.61042674 -74.25 102.5 C-73.95641602 101.55535889 -73.66283203 100.61071777 -73.36035156 99.63745117 C-73.0815918 98.77740479 -72.80283203 97.9173584 -72.515625 97.03125 C-72.27102539 96.27392578 -72.02642578 95.51660156 -71.77441406 94.73632812 C-71 93 -71 93 -69 92 C-68.33631972 89.93909808 -67.67311952 87.87804085 -67.01171875 85.81640625 C-58.77533394 62.88809178 -42.95694061 42.19139054 -26.41015625 24.62109375 C-23.99036173 22.05581835 -23.99036173 22.05581835 -21.9296875 19.375 C-20.10921147 17.13441412 -18.28220124 15.39540182 -16.0625 13.5625 C-13.57158097 11.44843588 -11.41773833 9.40910391 -9.4375 6.8125 C-6.5332737 3.46146965 -3.92356715 2.00024992 0 0 Z " fill="#FEC40B" transform="translate(367,252)"/>
<path d="M0 0 C0.33 0 0.66 0 1 0 C1.14017111 5.13293254 0.6242531 9.90918822 -0.3125 14.9375 C-1.46199714 21.33555503 -2.33013229 27.71525267 -3.02929688 34.17797852 C-4.44800804 47.04156088 -6.13005733 60.56105919 -16 70 C-25.4510966 77.06413022 -35.83546874 80.10953196 -47.55641174 80.14044189 C-48.85848068 80.14615204 -50.16054962 80.15186218 -51.5020752 80.15774536 C-52.93310537 80.15899052 -54.36413566 80.16011566 -55.79516602 80.16113281 C-57.31188578 80.16576551 -58.82860438 80.17079078 -60.34532166 80.17617798 C-64.45727791 80.18926344 -68.56921787 80.1957398 -72.68119168 80.20018864 C-75.2552819 80.20312657 -77.82936773 80.2072328 -80.40345573 80.21169281 C-88.47176834 80.22535975 -96.54007083 80.23502942 -104.60839421 80.2388947 C-113.89440142 80.24336876 -123.18026096 80.26088969 -132.4662233 80.2898953 C-139.6613954 80.31158278 -146.85652617 80.3216028 -154.05173057 80.32293582 C-158.34065722 80.32397912 -162.6294449 80.32978454 -166.91833687 80.34775543 C-170.95920947 80.36435806 -174.99984047 80.3663332 -179.04073524 80.35761642 C-180.51400148 80.35685243 -181.98728137 80.36110334 -183.46051407 80.37107468 C-193.8563349 80.43724196 -204.67152881 80.12001123 -214 75 C-214 74.34 -214 73.68 -214 73 C-213.43152344 73.13277344 -212.86304688 73.26554688 -212.27734375 73.40234375 C-211.50519531 73.57894531 -210.73304688 73.75554687 -209.9375 73.9375 C-209.18339844 74.11152344 -208.42929687 74.28554688 -207.65234375 74.46484375 C-202.13265605 75.57853626 -196.78067094 76.12601176 -191.15129089 76.14044189 C-190.4989972 76.14341302 -189.84670351 76.14638414 -189.17464334 76.1494453 C-187.00858676 76.15805437 -184.84258595 76.15963386 -182.67651367 76.16113281 C-181.11537053 76.16576644 -179.5542285 76.17079182 -177.99308777 76.17617798 C-173.76569335 76.18924965 -169.53831477 76.19573642 -165.31090331 76.20018864 C-162.66597455 76.20312722 -160.02105004 76.20723343 -157.37612343 76.21169281 C-149.08944062 76.22535259 -140.80276764 76.23502725 -132.51607436 76.2388947 C-122.9708267 76.24337493 -113.42572226 76.26092761 -103.88051814 76.2898953 C-96.48749762 76.31154821 -89.0945173 76.32160087 -81.70146543 76.32293582 C-77.29248459 76.32398105 -72.88363867 76.32982903 -68.47469139 76.34775543 C-64.32547425 76.36429922 -60.17649258 76.36636122 -56.0272541 76.35761642 C-54.5108006 76.35684947 -52.99433408 76.3611433 -51.4779129 76.37107468 C-43.22000526 76.42195497 -35.76404575 76.07099576 -28 73 C-27.26067325 72.71033985 -26.52134649 72.4206797 -25.7596159 72.12224197 C-19.24217983 69.41185296 -14.69110664 64.66669852 -11.74609375 58.28125 C-10.72692076 55.54339784 -9.83928154 52.79760515 -9 50 C-8.608125 48.906875 -8.21625 47.81375 -7.8125 46.6875 C-7.08524524 43.38688226 -6.8087964 40.486432 -6.625 37.125 C-6.19903302 29.96875478 -5.18068302 22.95412243 -4.0625 15.875 C-3.89250488 14.77172363 -3.72250977 13.66844727 -3.54736328 12.53173828 C-3.37833496 11.48743652 -3.20930664 10.44313477 -3.03515625 9.3671875 C-2.8844165 8.42987793 -2.73367676 7.49256836 -2.57836914 6.52685547 C-2.01817296 4.07939644 -1.22516869 2.1804229 0 0 Z " fill="#FEC20B" transform="translate(630,682)"/>
<path d="M0 0 C4.02230527 2.12499146 6.31814234 3.78343251 8 8 C8.26006222 10.06840324 8.26006222 10.06840324 8.27415466 12.31295776 C8.28911736 13.59556488 8.28911736 13.59556488 8.30438232 14.90408325 C8.305047 15.83405121 8.30571167 16.76401917 8.30639648 17.72216797 C8.31472 18.70797852 8.32304352 19.69378906 8.33161926 20.70947266 C8.35572748 23.9704177 8.3644922 27.23116277 8.37109375 30.4921875 C8.38005902 32.75896261 8.38918085 35.02573711 8.39845276 37.29251099 C8.41494725 42.04544514 8.4226438 46.7983088 8.42553711 51.55126953 C8.43092315 57.64013456 8.46861111 63.72833688 8.51428127 69.81701469 C8.54402924 74.49934303 8.55126018 79.1815113 8.55226326 83.86392593 C8.55646956 86.10861371 8.56892015 88.35330179 8.58978081 90.59789658 C8.61664886 93.73877412 8.6118828 96.87810902 8.59936523 100.01904297 C8.61419952 100.94496246 8.62903381 101.87088196 8.64431763 102.82485962 C8.59483076 107.18736066 8.38455288 110.09507062 5.58753967 113.56130981 C2.52818424 116.44467433 1.85675134 116.93533952 -2.3125 117.25 C-6.90183179 116.93885886 -9.08159291 115.51832305 -12.59831238 112.73501587 C-18.14673655 105.86714899 -15.16448988 86.79259399 -15.16796875 78.1640625 C-15.17118933 76.27127051 -15.17455397 74.37847875 -15.17805481 72.48568726 C-15.18400291 68.54400047 -15.18589886 64.60233548 -15.18530273 60.66064453 C-15.18520059 55.62050035 -15.19892609 50.58049537 -15.21607494 45.54038429 C-15.22720335 41.64211385 -15.22922179 37.7438772 -15.22869301 33.8455925 C-15.22986902 31.98692718 -15.23426943 30.12826087 -15.24202538 28.26961136 C-15.25185576 25.6739445 -15.24893677 23.07858223 -15.24291992 20.48291016 C-15.24853943 19.72433716 -15.25415894 18.96576416 -15.25994873 18.1842041 C-15.22656933 12.49864585 -14.79203982 7.12804728 -11 2.625 C-7.31549208 -0.36866269 -4.72368073 -0.39364006 0 0 Z M-12 8 C-12.73808974 11.25136191 -12.68358549 14.43679567 -12.64697266 17.75976562 C-12.65573425 18.73757492 -12.66449585 19.71538422 -12.67352295 20.7228241 C-12.69550769 23.95108574 -12.68096677 27.17797473 -12.6640625 30.40625 C-12.66743088 32.65157331 -12.67228368 34.89689484 -12.67855835 37.14221191 C-12.68592846 41.8464495 -12.67521916 46.55021218 -12.65185547 51.25439453 C-12.62336826 57.28401744 -12.6397714 63.3125276 -12.66971779 69.34210968 C-12.68778662 73.97813296 -12.68203449 78.61389248 -12.66907883 83.24992371 C-12.6657437 85.47307975 -12.66983559 87.69625975 -12.68147659 89.91938782 C-12.69417788 93.02698177 -12.67481685 96.13277457 -12.64697266 99.24023438 C-12.65709381 100.15882736 -12.66721497 101.07742035 -12.67764282 102.02384949 C-12.60339298 106.49742915 -12.45946513 108.40490801 -9.64706421 112.04748535 C-6.56995488 114.31720779 -4.8208443 115 -1 115 C2.72843964 113.26655125 2.72843964 113.26655125 5 110 C5.12275286 108.62230641 5.18726456 107.2391806 5.22119141 105.85644531 C5.244319 104.98789917 5.26744659 104.11935303 5.29127502 103.2244873 C5.31116989 102.26868774 5.33106476 101.31288818 5.3515625 100.328125 C5.37512314 99.322052 5.39868378 98.315979 5.42295837 97.27941895 C5.49734299 93.93638596 5.56215194 90.59326884 5.625 87.25 C5.64779022 86.1108313 5.67058044 84.9716626 5.69406128 83.79797363 C6.20660936 57.18631042 5.6993551 30.60366857 5 4 C-2.55789219 1.94640791 -6.95201374 1.55256251 -12 8 Z " fill="#FDC20D" transform="translate(516,57)"/>
<path d="M0 0 C4.78714131 3.83833852 9.02980583 8.33640252 13 13 C13 13.66 13 14.32 13 15 C13.61875 15.2475 14.2375 15.495 14.875 15.75 C17.40358627 17.23740369 17.71839004 18.43678009 19 21 C19.66 21.33 20.32 21.66 21 22 C23.49016793 23.24508396 23.98686718 24.46716796 25 27 C25.66 27 26.32 27 27 27 C27 27.66 27 28.32 27 29 C27.66 29 28.32 29 29 29 C30.625 30.375 30.625 30.375 32 32 C32 32.66 32 33.32 32 34 C32.66 34 33.32 34 34 34 C35.55078125 35.57421875 35.55078125 35.57421875 37.3125 37.6875 C41.72030808 42.85872226 46.36300634 47.39995609 51.64453125 51.66796875 C52.09183594 52.10753906 52.53914063 52.54710937 53 53 C53 53.66 53 54.32 53 55 C53.66 55 54.32 55 55 55 C56.83773382 56.82352454 58.4467196 58.79724103 60.109375 60.78125 C61.93859331 62.98438028 61.93859331 62.98438028 63.828125 64.84375 C65.44847338 66.50952871 66.82219838 67.99503999 68 70 C67.875 73.9375 67.875 73.9375 67 77 C66.67 77 66.34 77 66 77 C65.855625 75.865625 65.71125 74.73125 65.5625 73.5625 C64.07674225 67.49027267 59.45990092 64.06573619 55 60 C53.85567968 58.86047097 52.71216278 57.72012362 51.57273865 56.57569885 C49.70302709 54.70246812 47.82380294 52.83902681 45.9440918 50.97583008 C41.75378589 46.82109708 37.56957416 42.66028326 33.38745117 38.49731445 C31.58029627 36.70029099 29.7713613 34.90505596 27.96069336 33.11157227 C25.34803553 30.52303783 22.74177011 27.92821765 20.13671875 25.33203125 C19.32120041 24.52683548 18.50568207 23.72163971 17.66545105 22.89204407 C16.92080093 22.14754501 16.17615082 21.40304596 15.40893555 20.63598633 C14.74895065 19.98044266 14.08896576 19.32489899 13.40898132 18.64949036 C12 17 12 17 12 15 C11.44957031 14.78601563 10.89914062 14.57203125 10.33203125 14.3515625 C6.68222147 12.23626236 4.07595997 8.9732273 1.33007812 5.8125 C-1.38021205 2.91436793 -2.70820547 2.03040806 -6.7109375 1.61328125 C-9.74814298 1.97038736 -11.52447126 2.25796126 -14 4 C-16.34168764 7.51253146 -16.49623677 8.86469356 -16 13 C-13.73024971 16.40462543 -10.93186368 19.15975706 -8 22 C-6.66666667 23.33333333 -5.33333333 24.66666667 -4 26 C-3.13375 26.825 -2.2675 27.65 -1.375 28.5 C0.68207051 30.66533738 1.88805152 32.2706719 3 35 C3.99 35 4.98 35 6 35 C7.68359375 36.609375 7.68359375 36.609375 9.4375 38.75 C10.35982422 39.85021484 10.35982422 39.85021484 11.30078125 40.97265625 C12.14189453 41.97619141 12.14189453 41.97619141 13 43 C14.31387169 44.35251497 15.64426252 45.68945377 17 47 C18.66666667 48.66666667 20.33333333 50.33333333 22 52 C22.598125 52.556875 23.19625 53.11375 23.8125 53.6875 C25 55 25 55 25 57 C25.58136719 57.26554687 26.16273438 57.53109375 26.76171875 57.8046875 C32.96779618 61.11892781 37.69837059 66.64751317 42.203125 71.9375 C44.15302907 74.17565076 46.17391339 76.31595164 48.25 78.4375 C48.89453125 79.09621094 49.5390625 79.75492187 50.203125 80.43359375 C52.9825353 82.85651447 54.78027361 83.01198508 58.4375 82.8125 C62.28094069 81.93592581 63.56979135 81.01345872 66 78 C65.67522284 81.00418869 65.42029035 82.57970965 63.25 84.75 C60.63151911 86.2047116 59.00879366 86.86005611 56 87 C50.04805846 84.99241571 46.45098002 82.02322509 42.08666992 77.58837891 C41.43537109 76.94248306 40.78407227 76.29658722 40.11303711 75.63111877 C37.97550777 73.50603699 35.85275425 71.36685987 33.73046875 69.2265625 C32.24376537 67.74001417 30.75639443 66.25413321 29.26838684 64.76889038 C26.15796232 61.65984798 23.05460845 58.54396606 19.95629883 55.42285156 C15.98577322 51.42390539 11.99983567 47.44075397 8.00872326 43.4623661 C4.93790484 40.39850296 1.87450086 37.32731381 -1.18662071 34.25376511 C-2.65376783 32.78210469 -4.12300681 31.31252664 -5.59436989 29.84508133 C-7.64824867 27.79411408 -9.69215595 25.73370289 -11.73364258 23.67041016 C-12.34195419 23.06660019 -12.95026581 22.46279022 -13.57701111 21.84068298 C-16.59065307 18.77339256 -18.87867468 16.27022467 -20 12 C-19.92231804 7.6498105 -19.48654944 5.6081868 -16.75 2.1875 C-11.15019263 -2.26689222 -6.5153537 -3.31914245 0 0 Z " fill="#FDC40C" transform="translate(260,157)"/>
<path d="M0 0 C0.64461182 -0.00043808 1.28922363 -0.00087616 1.95336914 -0.00132751 C4.06379505 0.00074661 6.17340594 0.02401041 8.28369141 0.04760742 C9.75484788 0.05320832 11.22600998 0.05747609 12.69717407 0.06047058 C16.55405343 0.0718806 20.4105895 0.10131405 24.26733398 0.13458252 C28.20893715 0.16536677 32.15059622 0.1789937 36.09228516 0.1940918 C43.81509726 0.22618799 51.53762734 0.27733708 59.26025391 0.34057617 C58.93025391 1.00057617 58.60025391 1.66057617 58.26025391 2.34057617 C57.51158554 2.34866302 56.76291718 2.35674988 55.99156189 2.36508179 C48.91513144 2.44321881 41.83888744 2.53056624 34.76270199 2.62810326 C31.12528693 2.67792011 27.48789887 2.72425058 23.8503418 2.76245117 C20.33591485 2.79948969 16.82172215 2.84589817 13.30749702 2.89863968 C11.32299113 2.92602525 9.33836079 2.9438581 7.35374451 2.96151733 C-2.78765681 2.79558093 -2.78765681 2.79558093 -11.67724609 6.96557617 C-14.0562119 12.28326444 -13.06605913 17.0283093 -11.11474609 22.27807617 C-9.20205691 26.72955064 -6.74116372 30.60593787 -3.91162109 34.52807617 C-2.73974609 36.34057617 -2.73974609 36.34057617 -2.73974609 38.34057617 C-2.07974609 38.34057617 -1.41974609 38.34057617 -0.73974609 38.34057617 C-0.73974609 39.00057617 -0.73974609 39.66057617 -0.73974609 40.34057617 C-0.18287109 40.56745117 0.37400391 40.79432617 0.94775391 41.02807617 C3.26025391 42.34057617 3.26025391 42.34057617 5.51025391 44.65307617 C17.95264419 56.81268486 37.11876371 60.57937197 54.01025391 60.65307617 C76.83252134 60.32190941 93.82765755 51.7011895 109.82666016 35.78198242 C116.40261495 28.50514216 119.0467764 19.86728014 120.26025391 10.34057617 C121.25025391 10.67057617 122.24025391 11.00057617 123.26025391 11.34057617 C122.52702813 21.23912415 119.16330358 28.57349402 113.19775391 36.40307617 C112.76213135 36.97566162 112.32650879 37.54824707 111.87768555 38.13818359 C109.73663102 40.84058473 108.59754466 42.22814592 105.26025391 43.34057617 C105.26025391 44.00057617 105.26025391 44.66057617 105.26025391 45.34057617 C103.396779 46.86551472 101.55643705 48.23689195 99.57275391 49.59057617 C98.98623047 49.99099121 98.39970703 50.39140625 97.79541016 50.80395508 C83.89571743 60.05185427 69.58386626 63.92943368 52.94775391 63.77807617 C51.77075928 63.77050293 50.59376465 63.76292969 49.38110352 63.75512695 C27.8859609 63.35014386 11.08706221 55.63751276 -3.92724609 40.21557617 C-10.30924949 32.96787515 -16.63434683 23.3152764 -17.00537109 13.37182617 C-16.50822214 9.5700989 -15.25818791 6.24697639 -12.73974609 3.34057617 C-8.32373279 0.71862974 -5.10993828 -0.02936746 0 0 Z " fill="#FDC10A" transform="translate(458.73974609375,880.659423828125)"/>
<path d="M0 0 C3.87330118 2.41005407 5.93437742 4.52438514 7 9 C7.14137654 15.36194415 3.07759658 18.65516136 -1 23 C-1.94600667 24.15977961 -2.88464881 25.32564506 -3.8125 26.5 C-4.534375 27.325 -5.25625 28.15 -6 29 C-6.66 29 -7.32 29 -8 29 C-8 29.66 -8 30.32 -8 31 C-8.680625 31.53625 -9.36125 32.0725 -10.0625 32.625 C-12.37907523 34.49797572 -13.94419555 36.0305109 -15.80859375 38.2734375 C-22.08058224 45.53192923 -29.07813674 52.13144212 -35.89355469 58.87304688 C-45.03649601 67.89865917 -45.03649601 67.89865917 -53.64355469 77.43017578 C-55.50617861 79.58580426 -57.51248621 81.52855572 -59.625 83.4375 C-60.33914063 84.09621094 -61.05328125 84.75492187 -61.7890625 85.43359375 C-64.29076258 87.20599964 -65.95705635 87.74803651 -69 88 C-72.44736651 86.87069028 -75.12381095 85.75936385 -77.875 83.375 C-79.63289198 79.66389471 -80.23581703 76.10178721 -80 72 C-78.3064357 68.6128714 -76.41463531 66.41319809 -73.74609375 63.75390625 C-70.6405856 60.63956308 -67.66782949 57.42081194 -64.6875 54.1875 C-58.63247139 47.63870311 -52.37840797 41.31701761 -45.97924805 35.10424805 C-45.32867432 34.46527588 -44.67810059 33.82630371 -44.0078125 33.16796875 C-43.13600342 32.32141724 -43.13600342 32.32141724 -42.24658203 31.45776367 C-40.78336319 30.06634353 -40.78336319 30.06634353 -41 28 C-40.278125 27.5875 -39.55625 27.175 -38.8125 26.75 C-36.27159291 25.16899114 -35.11261503 24.08943121 -33.3125 21.8125 C-32.549375 20.884375 -31.78625 19.95625 -31 19 C-30.34 19 -29.68 19 -29 19 C-28.78601563 18.46375 -28.57203125 17.9275 -28.3515625 17.375 C-23.03133628 8.02616318 -11.32388703 -3.41853193 0 0 Z M-12.62109375 4.91796875 C-13.3164624 5.55331543 -14.01183105 6.18866211 -14.72827148 6.84326172 C-18.87401468 10.77915591 -22.95630035 14.77190611 -27 18.8125 C-28.30517578 20.09930664 -28.30517578 20.09930664 -29.63671875 21.41210938 C-30.45785156 22.23130859 -31.27898438 23.05050781 -32.125 23.89453125 C-32.87007812 24.63550049 -33.61515625 25.37646973 -34.3828125 26.13989258 C-36.21870335 27.84075318 -36.21870335 27.84075318 -36 30 C-36.61875 30.2475 -37.2375 30.495 -37.875 30.75 C-40.13746494 31.82143729 -40.13746494 31.82143729 -41 34 C-42.26776456 36.53552912 -43.46823065 36.84919575 -46 38 C-47.7511573 39.4166747 -47.7511573 39.4166747 -49 41 C-49 41.66 -49 42.32 -49 43 C-49.66 43 -50.32 43 -51 43 C-52.30477219 44.59393864 -52.30477219 44.59393864 -53.625 46.625 C-56.4295481 50.54720217 -59.44405157 53.05051311 -63.4609375 55.67578125 C-63.96882812 56.11277344 -64.47671875 56.54976562 -65 57 C-65 57.99 -65 58.98 -65 60 C-65.556875 60.226875 -66.11375 60.45375 -66.6875 60.6875 C-69.66399068 62.37685957 -71.67627512 64.49752705 -74 67 C-74.598125 67.61875 -75.19625 68.2375 -75.8125 68.875 C-77.61660958 72.10340662 -77.43251301 74.35453319 -77 78 C-75.86220611 80.53171454 -74.52653825 82.6624883 -73 85 C-67.65055791 85.54586144 -64.82976645 84.8441832 -60.73828125 81.60546875 C-58.26833838 79.32424062 -56.12317883 76.83215321 -53.96484375 74.2578125 C-49.77583914 69.44420481 -45.12064288 65.0487688 -40.55838013 60.59158325 C-38.90159272 58.89949603 -37.36945174 57.13610618 -35.83154297 55.33544922 C-31.97319543 50.90412855 -27.87230558 46.76208241 -23.6953125 42.6328125 C-22.93072723 41.87201385 -22.16614197 41.11121521 -21.37838745 40.32736206 C-18.96302617 37.92410987 -16.54442602 35.52415959 -14.125 33.125 C-10.91642462 29.94295221 -7.71113336 26.75764885 -4.5078125 23.5703125 C-3.76935089 22.84014923 -3.03088928 22.10998596 -2.27005005 21.35769653 C-1.5919931 20.68294281 -0.91393616 20.00818909 -0.21533203 19.31298828 C0.38310516 18.7197879 0.98154236 18.12658752 1.59811401 17.51541138 C3.58352009 15.36922618 3.98425585 14.11808111 4.375 11.1875 C3.87954982 6.9761735 2.15647263 5.69454981 -1 3 C-1.495 2.505 -1.495 2.505 -2 2 C-6.73807897 1.22643609 -9.16663655 1.75532119 -12.62109375 4.91796875 Z " fill="#FDC30C" transform="translate(777,156)"/>
<path d="M0 0 C3.16738887 1.54999881 4.48432695 2.76903852 5.84765625 6.0234375 C7.46164869 11.68690799 6.82236456 14.89803329 4 20 C3.34 20 2.68 20 2 20 C1.62875 20.86625 1.62875 20.86625 1.25 21.75 C-0.18299988 24.32939979 -1.78424676 26.06121592 -4 28 C-4.66 28 -5.32 28 -6 28 C-6.24998245 28.57562683 -6.4999649 29.15125366 -6.75752258 29.74432373 C-8.17476505 32.31728011 -9.79186232 34.02519722 -11.87963867 36.09082031 C-12.6777446 36.88554749 -13.47585052 37.68027466 -14.29814148 38.49908447 C-15.16268448 39.35016785 -16.02722748 40.20125122 -16.91796875 41.078125 C-18.2538781 42.40623199 -18.2538781 42.40623199 -19.61677551 43.76116943 C-21.98618777 46.11577764 -24.35954285 48.46624855 -26.73535156 50.81439209 C-30.06277165 54.10391159 -33.38521159 57.39842732 -36.70466614 60.69598389 C-38.46934753 62.44852819 -40.23669491 64.19839351 -42.00712585 65.94512939 C-46.33959794 70.24283535 -50.5178933 74.59972963 -54.47602844 79.24603271 C-60.78110345 86.50266112 -60.78110345 86.50266112 -65.265625 87.5078125 C-69.24845676 87.70563527 -71.47354405 87.31363333 -74.9375 85.25 C-77.30912356 82.6627743 -78.77207592 80.53468879 -79.29296875 77.02734375 C-78.59154141 63.12869099 -60.85746679 50.63011984 -51.625 41.5 C-50.05291685 39.93797144 -48.48129871 38.37547474 -46.91015625 36.8125 C-43.47468991 33.39651871 -40.03487913 29.98498612 -36.5909729 26.57751465 C-35.05637815 25.05590124 -33.52694397 23.52928729 -32 22 C-31.01 22.33 -30.02 22.66 -29 23 C-31.91910876 26.61413466 -34.83962425 29.98268349 -38.4375 32.9375 C-40.89117794 34.9604548 -42.97225825 37.04331833 -45.01171875 39.48046875 C-49.83706125 45.06854938 -55.12262279 50.19431595 -60.375 55.375 C-62.36485621 57.33826571 -64.35135935 59.30483831 -66.3359375 61.2734375 C-67.20782715 62.13372559 -68.0797168 62.99401367 -68.97802734 63.88037109 C-71.03889569 65.83297741 -71.03889569 65.83297741 -72 68 C-72.66 68 -73.32 68 -74 68 C-75.33808088 72.01424265 -75.19932094 75.81426024 -75 80 C-73.26425255 83.32164605 -73.26425255 83.32164605 -69.6875 83.875 C-64.94314653 84.03582554 -62.88273982 82.68511254 -59.37335205 79.5440979 C-57.47169109 77.72009395 -55.6108123 75.86169635 -53.7578125 73.98828125 C-53.07121552 73.30122604 -52.38461853 72.61417084 -51.67721558 71.90629578 C-50.22758476 70.45365034 -48.78037867 68.99858168 -47.33544922 67.54125977 C-45.14466412 65.33232701 -42.94609261 63.13139301 -40.74609375 60.93164062 C-39.33286292 59.51348946 -37.92008791 58.09488388 -36.5078125 56.67578125 C-35.85966583 56.02652176 -35.21151917 55.37726227 -34.54373169 54.70832825 C-30.70381711 50.82915371 -27.04012302 46.84091054 -23.47673035 42.70597839 C-21.77498914 40.74005839 -20.01529731 38.84920009 -18.1875 37 C-17.62417969 36.4225 -17.06085938 35.845 -16.48046875 35.25 C-15 34 -15 34 -13 34 C-12.62875 33.14148438 -12.62875 33.14148438 -12.25 32.265625 C-10.80683801 29.64989389 -9.11783778 27.85226544 -7 25.75 C-5.948125 24.69039062 -5.948125 24.69039062 -4.875 23.609375 C-3 22 -3 22 -1 22 C-1 21.34 -1 20.68 -1 20 C-0.34 20 0.32 20 1 20 C3.2609658 15.47806839 3.40012988 11.96161052 3 7 C2.08333333 4.91666667 2.08333333 4.91666667 0 4 C-4.2559024 2.77233585 -6.37674462 2.74402011 -10.5 4.4375 C-14.05070625 6.72802256 -16.55021843 9.72492436 -19.22265625 12.9609375 C-21.87537896 16.00428092 -24.87630238 18.45004276 -28 21 C-28 16.59206469 -25.19898652 14.59111129 -22.3125 11.5625 C-21.51682617 10.70301758 -21.51682617 10.70301758 -20.70507812 9.82617188 C-14.30017637 2.99689626 -9.67032785 -1.13768563 0 0 Z " fill="#FEC40B" transform="translate(319,612)"/>
<path d="M0 0 C0.94708832 -0.00700928 1.89417664 -0.01401855 2.8699646 -0.02124023 C5.99043377 -0.03879846 9.10999087 -0.02720488 12.23046875 -0.01367188 C14.40470554 -0.0163674 16.57894116 -0.02025033 18.75317383 -0.02526855 C23.30594378 -0.03116068 27.85839944 -0.0226096 32.41113281 -0.00390625 C38.24208088 0.01888281 44.07229245 0.00575824 49.9032135 -0.01819611 C54.39169853 -0.03266162 58.88000943 -0.02804456 63.36849976 -0.01768494 C65.51826057 -0.01501975 67.66803729 -0.01828006 69.81777954 -0.02760315 C72.82425719 -0.03778085 75.82954807 -0.0222499 78.8359375 0 C79.72131195 -0.00809692 80.6066864 -0.01619385 81.51889038 -0.02453613 C86.95764185 0.04989721 90.12788995 0.85751525 94.41796875 4.51757812 C96.66113344 7.88232517 97.2661384 9.49407379 97.41796875 13.51757812 C96.33542508 16.33829051 94.95424121 18.91976118 93.41796875 21.51757812 C92.42796875 21.51757812 91.43796875 21.51757812 90.41796875 21.51757812 C90.88203125 20.77507812 90.88203125 20.77507812 91.35546875 20.01757812 C92.29974699 17.79574696 92.86036425 15.93933358 93.29296875 13.58007812 C93.47472656 12.60748047 93.47472656 12.60748047 93.66015625 11.61523438 C93.26436404 8.18716317 91.92374389 6.85814514 89.41796875 4.51757812 C86.26627198 3.76701463 83.16634462 3.855055 79.93945312 3.90234375 C78.9796907 3.89679474 78.01992828 3.89124573 77.03108215 3.88552856 C73.85745371 3.87371438 70.68524741 3.89802612 67.51171875 3.92382812 C65.3074144 3.9255388 63.10310802 3.92547398 60.89880371 3.92370605 C56.2785293 3.92536031 51.65873949 3.94407835 47.03857422 3.97558594 C41.11328602 4.01526353 35.18863283 4.01963179 29.263237 4.01212311 C24.71134615 4.00905501 20.15959834 4.02116829 15.60774231 4.03825378 C13.42284543 4.04529008 11.23793234 4.04840756 9.05302429 4.04756165 C6.00054573 4.04935737 2.94883103 4.07072044 -0.10351562 4.09765625 C-1.00857346 4.09472565 -1.91363129 4.09179504 -2.84611511 4.08877563 C-7.67678221 4.14757115 -7.67678221 4.14757115 -12.11975098 5.86804199 C-14.31210428 8.34114243 -14.45387704 10.24964576 -14.58203125 13.51757812 C-14.10693909 16.77743122 -14.10693909 16.77743122 -12.58203125 19.51757812 C-8.08423698 22.09382055 -3.41794052 21.82379964 1.61450195 21.83642578 C2.9908506 21.85149422 2.9908506 21.85149422 4.39500427 21.86686707 C7.41957997 21.8976901 10.44406718 21.91473187 13.46875 21.93164062 C15.5691148 21.95035297 17.66947208 21.96992643 19.76982117 21.99032593 C25.29187593 22.04164606 30.81395506 22.08127253 36.33612061 22.11846924 C41.97349069 22.15850954 47.61075939 22.20960179 53.24804688 22.25976562 C64.30461628 22.35652356 75.36124294 22.44092888 86.41796875 22.51757812 C86.41796875 22.84757812 86.41796875 23.17757813 86.41796875 23.51757812 C73.72680742 23.63339688 61.0357717 23.72225577 48.34418964 23.77663898 C42.45103103 23.80273949 36.55823381 23.83814674 30.6652832 23.89477539 C24.97888319 23.9490776 19.29283091 23.97899524 13.60619164 23.99196434 C11.43601188 24.00120733 9.2658513 24.01925675 7.09581947 24.04622841 C4.05735685 24.08249407 1.02033347 24.0875244 -2.01831055 24.08520508 C-2.91670654 24.10318146 -3.81510254 24.12115784 -4.74072266 24.13967896 C-9.151258 24.10321898 -10.99561886 23.97135526 -14.58601379 21.19303894 C-17.03686652 17.90791715 -18.02055074 15.58831185 -18.58203125 11.51757812 C-17.45156434 7.34898141 -16.33370418 5.16467648 -13.0559082 2.34289551 C-8.52776866 -0.03637467 -5.03601772 -0.04605537 0 0 Z " fill="#FDC10B" transform="translate(153.58203125,411.482421875)"/>
<path d="M0 0 C5.52315179 -0.00910217 11.04410305 0.01233056 16.56665039 0.09738159 C18.15672999 0.12037444 19.746933 0.13609597 21.3371582 0.14419556 C23.5131388 0.15944857 25.68587911 0.20692639 27.86108398 0.26495361 C29.0525 0.28702881 30.24391602 0.309104 31.47143555 0.33184814 C35.83362878 1.23850778 37.55390812 2.90692696 40.72045898 6.00714111 C42.57644194 9.71910702 42.31138535 13.96596725 41.72045898 18.00714111 C39.28295898 21.06964111 39.28295898 21.06964111 36.72045898 23.00714111 C36.22545898 23.50214111 36.22545898 23.50214111 35.72045898 24.00714111 C33.04987047 24.14829273 30.39613661 24.04961219 27.72045898 24.00714111 C30.48269177 21.24490833 32.92752516 21.42857821 36.72045898 21.00714111 C38.68680749 16.26477119 38.94707201 13.00794808 37.72045898 8.00714111 C36.4787817 6.25902097 36.4787817 6.25902097 34.72045898 5.00714111 C31.62995219 4.70023479 28.73953627 4.57690811 25.64672852 4.58721924 C24.25360443 4.57451492 24.25360443 4.57451492 22.83233643 4.56155396 C19.75584291 4.53811576 16.67984761 4.53716351 13.60327148 4.53839111 C11.46719155 4.53129305 9.33111354 4.52359458 7.19503784 4.51531982 C2.71436262 4.50185888 -1.76613637 4.50031324 -6.24682617 4.50616455 C-11.98948185 4.51205841 -17.73129146 4.48148904 -23.47378349 4.44104767 C-27.8867346 4.4151987 -32.29948133 4.4122908 -36.71249771 4.41593933 C-38.82961273 4.41424509 -40.94673688 4.40457341 -43.06377792 4.38679504 C-46.02543466 4.3646639 -48.98537072 4.37427825 -51.94702148 4.39190674 C-52.82200287 4.37864349 -53.69698425 4.36538025 -54.59848022 4.35171509 C-58.98055968 4.41233222 -60.74642142 4.59543017 -64.32376099 7.35809326 C-66.4709656 9.88076189 -66.4709656 9.88076189 -66.90454102 13.00714111 C-66.08306174 16.95024166 -64.29463467 18.43328068 -61.27954102 21.00714111 C-60.94954102 21.33714111 -60.61954102 21.66714111 -60.27954102 22.00714111 C-57.57200376 22.13228522 -54.88871997 22.1932124 -52.1796875 22.21246338 C-51.33098083 22.22236298 -50.48227417 22.23226257 -49.60784912 22.24246216 C-46.78880652 22.27417359 -43.96974704 22.2988725 -41.15063477 22.32354736 C-39.2014979 22.34410858 -37.25236558 22.36510482 -35.30323792 22.38652039 C-30.16252308 22.4418271 -25.02176745 22.49119831 -19.88098145 22.53936768 C-14.63944855 22.58952008 -9.39797522 22.64523875 -4.15649414 22.70050049 C6.13577273 22.80818717 16.42809123 22.90960864 26.72045898 23.00714111 C26.72045898 23.33714111 26.72045898 23.66714111 26.72045898 24.00714111 C15.07237699 24.12298362 3.42443199 24.21183068 -8.2241087 24.26620197 C-13.63301119 24.2922974 -19.04151962 24.32769502 -24.45019531 24.38433838 C-29.66976101 24.43865926 -34.88894764 24.46856205 -40.10877419 24.48152733 C-42.10032939 24.49076702 -44.09186381 24.50881012 -46.08325768 24.5357914 C-48.87269313 24.5720827 -51.66056182 24.57708643 -54.45019531 24.57476807 C-55.2737854 24.59274445 -56.09737549 24.61072083 -56.94592285 24.62924194 C-61.18112183 24.59114734 -62.79427616 24.38847482 -66.23762512 21.68260193 C-68.74148671 18.4018676 -69.71437979 16.10456003 -70.27954102 12.00714111 C-69.01907686 7.35917955 -67.41022538 4.41422414 -63.27905273 1.82345581 C-58.87542787 0.02564504 -54.02874268 0.38121929 -49.34204102 0.36260986 C-48.16470398 0.34306747 -46.98736694 0.32352509 -45.77435303 0.3033905 C-41.94268479 0.24623307 -38.11154932 0.21878266 -34.27954102 0.19464111 C-31.64965236 0.16703491 -29.01976946 0.138875 -26.38989258 0.11016846 C-17.59320667 0.02672389 -8.79696962 0.01915517 0 0 Z " fill="#FDC20C" transform="translate(845.279541015625,410.99285888671875)"/>
<path d="M0 0 C6.06287543 -0.41812934 9.19553188 0.08791108 14 4 C16.65135434 6.43628437 19.17433875 8.9847075 21.6875 11.5625 C22.35072266 12.23474609 23.01394531 12.90699219 23.69726562 13.59960938 C24.92641234 14.84608545 26.15348034 16.09461762 27.37768555 17.34594727 C28.4631451 18.45264229 29.57477178 19.53423827 30.71020508 20.58959961 C32 22 32 22 32 24 C32.66 24 33.32 24 34 24 C36.61946454 26.41266471 38.91593966 28.89368839 41.125 31.6875 C42.96561073 34.19153669 42.96561073 34.19153669 46 36 C46 36.66 46 37.32 46 38 C46.66 38 47.32 38 48 38 C49.35386936 39.65002828 50.68678142 41.3174387 52 43 C52.99 43.495 52.99 43.495 54 44 C54 44.66 54 45.32 54 46 C54.55171875 46.21398437 55.1034375 46.42796875 55.671875 46.6484375 C58.78318639 48.45466861 60.90555391 50.95085976 63.25 53.625 C67.15406733 58.00272497 71.14046141 62.1866658 75.44140625 66.18359375 C77.74896204 68.8728505 78.91543452 71.51164748 79.1171875 75.0625 C78.531695 79.74644004 77.65571003 82.72910155 74 86 C70.12368694 87.75531158 68.011061 88.28451968 63.890625 87.125 C58.31670226 84.55914374 54.28715941 79.82425214 50.0625 75.5 C49.18787109 74.63246094 48.31324219 73.76492188 47.41210938 72.87109375 C41 66.39391223 41 66.39391223 41 63 C44.39859703 64.46966358 46.64963709 66.38037514 49.25 69 C50.30960938 70.051875 50.30960938 70.051875 51.390625 71.125 C53 73 53 73 53 75 C53.99 75.33 54.98 75.66 56 76 C56 76.66 56 77.32 56 78 C56.556875 78.2475 57.11375 78.495 57.6875 78.75 C60 80 60 80 62.25 82.125 C66.06812765 84.72826885 68.44976841 84.30849028 73 84 C75.10321924 79.79356151 76.08645794 75.62195285 75 71 C73.88210908 69.23375423 73.88210908 69.23375423 72.27856445 67.57348633 C71.63940094 66.87575104 71.00023743 66.17801575 70.34170532 65.45913696 C61.43647792 56.10733097 52.33765749 46.94605017 43.2409668 37.78100586 C40.53453391 35.0522253 37.83822355 32.31400089 35.15014648 29.56713867 C31.88325192 26.22899185 28.59932855 22.90851644 25.30275917 19.59967995 C24.0572801 18.34384555 22.81778975 17.08204017 21.58470726 15.8140316 C12.38388257 6.20230043 12.38388257 6.20230043 0 2 C0 1.34 0 0.68 0 0 Z " fill="#FDC40B" transform="translate(705,612)"/>
<path d="M0 0 C5.34444269 0.62124891 9.84429062 2.34906512 14.75 4.4375 C15.99148804 4.9644043 15.99148804 4.9644043 17.25805664 5.50195312 C30.59789041 11.30199088 43.12268388 18.6210313 55 27 C55.8971875 27.62261719 56.794375 28.24523437 57.71875 28.88671875 C64.12516076 33.42459304 70.11131145 38.36675262 76.0546875 43.484375 C77.86397793 45.02971059 79.69795691 46.54733399 81.5703125 48.015625 C97.24550323 60.8178708 109.41484043 77.9461318 120 95 C118.515 95.495 118.515 95.495 117 96 C116.46375 95.01 115.9275 94.02 115.375 93 C112.31974853 87.64789282 108.54299496 82.86783601 104.625 78.125 C103 76 103 76 103 74 C102.34 74 101.68 74 101 74 C99.5546875 72.34765625 99.5546875 72.34765625 97.875 70.0625 C92.50332675 62.97811934 86.85185321 56.48287602 80.05078125 50.73828125 C77.90170416 48.91668257 75.82989566 47.02501279 73.75 45.125 C64.68160577 36.74480854 64.68160577 36.74480854 54 31 C54 30.34 54 29.68 54 29 C53.46375 28.731875 52.9275 28.46375 52.375 28.1875 C49.58333333 26.79166667 46.79166667 25.39583333 44 24 C44 23.34 44 22.68 44 22 C43.42765625 21.87753906 42.8553125 21.75507813 42.265625 21.62890625 C39.90046809 20.97237132 37.92793203 20.06276488 35.75 18.9375 C35.04359375 18.57527344 34.3371875 18.21304688 33.609375 17.83984375 C33.07828125 17.56269531 32.5471875 17.28554687 32 17 C32 16.34 32 15.68 32 15 C30.75669922 14.87044922 30.75669922 14.87044922 29.48828125 14.73828125 C25.278288 13.84725244 21.96938652 12.18355818 18.1875 10.1875 C16.77430519 9.45795217 15.36024675 8.73007474 13.9453125 8.00390625 C13.26887695 7.65602051 12.59244141 7.30813477 11.89550781 6.94970703 C9.49048507 5.74471753 7.03968845 4.67242856 4.5625 3.625 C1 2 1 2 0 0 Z " fill="#FEC50B" transform="translate(590,218)"/>
<path d="M0 0 C-0.33 0.66 -0.66 1.32 -1 2 C-2.79980469 2.4230957 -2.79980469 2.4230957 -5.171875 2.67578125 C-6.05278809 2.77850342 -6.93370117 2.88122559 -7.84130859 2.98706055 C-9.28111084 3.14815308 -9.28111084 3.14815308 -10.75 3.3125 C-32.60469087 6.0616405 -54.59732845 11.68527286 -74.64697266 20.94702148 C-76.3315572 21.70087219 -78.03756655 22.4075432 -79.75537109 23.08227539 C-87.84165878 26.2603127 -95.02737961 30.38538789 -102.375 35 C-103.52171118 35.70641828 -104.66884549 36.41215017 -105.81640625 37.1171875 C-111.1842954 40.45245274 -116.30851632 43.7561137 -121 48 C-121.66 47.67 -122.32 47.34 -123 47 C-119.75929091 42.37160265 -116.07761335 39.76079828 -111.375 36.8125 C-110.62645752 36.3383667 -109.87791504 35.8642334 -109.10668945 35.37573242 C-86.67839745 21.32098078 -63.16139054 11.82227333 -37.75 4.54296875 C-35.91720368 4.02613494 -35.91720368 4.02613494 -34 3 C-31.89445922 2.76227765 -29.78828896 2.52915162 -27.6796875 2.3203125 C-24.83851128 1.98069668 -22.06164378 1.46701382 -19.25 0.9375 C-12.81222103 -0.18247443 -6.51642345 -0.18918649 0 0 Z " fill="#FEC50B" transform="translate(492,205)"/>
<path d="M0 0 C4.8635596 1.73698557 6.74091798 5.74759376 9.12890625 10.01953125 C12.4817782 15.8945636 16.3354505 21.25925554 20.4375 26.625 C20.9749585 27.32923096 21.51241699 28.03346191 22.06616211 28.7590332 C25.3669078 33.02932623 28.8059329 37.13299916 32.40649414 41.15380859 C37 46.47571626 37 46.47571626 37 49 C37.66 49 38.32 49 39 49 C40.63139937 50.92587579 42.13723225 52.84326717 43.625 54.875 C44.04523438 55.43058594 44.46546875 55.98617187 44.8984375 56.55859375 C48 60.73764712 48 60.73764712 48 63 C48.66 63 49.32 63 50 63 C50.53753906 63.96292969 51.07507813 64.92585937 51.62890625 65.91796875 C54.70920869 71.31019198 58.11436263 76.49867666 61.49023438 81.70898438 C68.93300217 93.35072154 68.93300217 93.35072154 71 99 C70.505 100.485 70.505 100.485 70 102 C67.72830474 99.89627647 66.22717408 97.87974757 64.765625 95.15625 C64.36045654 94.41052734 63.95528809 93.66480469 63.5378418 92.89648438 C63.112854 92.10564453 62.68786621 91.31480469 62.25 90.5 C53.14598555 73.88824654 42.57987509 58.23243178 30.16723633 43.8984375 C0 8.91687446 0 8.91687446 0 0 Z " fill="#FEC40A" transform="translate(310,544)"/>
<path d="M0 0 C0 0.66 0 1.32 0 2 C-38.61 2 -77.22 2 -117 2 C-116.67 1.34 -116.34 0.68 -116 0 C-102.20443612 -0.15431244 -88.40881639 -0.30225979 -74.61310673 -0.4429636 C-68.20679828 -0.50848637 -61.80052435 -0.5760202 -55.39428711 -0.64819336 C-49.20869114 -0.71780605 -43.02306036 -0.78207941 -36.83736992 -0.84269524 C-34.48073764 -0.86671858 -32.12412396 -0.89264602 -29.76753426 -0.92053413 C-26.45971709 -0.95934973 -23.15189779 -0.99131468 -19.84399414 -1.02172852 C-18.39173683 -1.04114754 -18.39173683 -1.04114754 -16.91014099 -1.06095886 C-11.1839921 -1.10512427 -5.67966996 -0.74095664 0 0 Z " fill="#FEBD07" transform="translate(606,834)"/>
<path d="M0 0 C0.66 0 1.32 0 2 0 C2 0.66 2 1.32 2 2 C1.34 2 0.68 2 0 2 C-2.07417118 8.17448266 -2.07417118 8.17448266 -0.4375 14.25 C1.21459637 16.1139036 2.92631304 17.92631304 4.6875 19.6875 C7 22 7 22 8 25 C9.3153341 25.70151152 10.65117592 26.36525925 12 27 C13.75 28.5 13.75 28.5 15 30 C15 30.66 15 31.32 15 32 C15.54817383 32.22437744 16.09634766 32.44875488 16.66113281 32.67993164 C19.69492508 34.39221919 21.98102313 36.67563082 24.421875 39.12109375 C24.92672424 39.62165787 25.43157349 40.12222198 25.95172119 40.63795471 C27.01316119 41.69366914 28.07201379 42.75199063 29.12841797 43.81274414 C30.74976198 45.43726151 32.38401316 47.04797149 34.01953125 48.65820312 C35.05028895 49.68668907 36.08026465 50.71595946 37.109375 51.74609375 C37.59992371 52.22743271 38.09047241 52.70877167 38.59588623 53.20469666 C42 56.65618553 42 56.65618553 42 60 C39.15758238 58.70665529 37.09224767 57.34409604 34.88378906 55.14257812 C34.30348938 54.56858276 33.7231897 53.9945874 33.12530518 53.40319824 C32.51161072 52.78545532 31.89791626 52.1677124 31.265625 51.53125 C30.30858673 50.57708191 30.30858673 50.57708191 29.33221436 49.6036377 C27.98838426 48.26116613 26.64706671 46.91617539 25.30810547 45.56884766 C23.25057535 43.50057835 21.18255951 41.44322672 19.11328125 39.38671875 C17.80925375 38.08137029 16.50584644 36.7754019 15.203125 35.46875 C14.58133362 34.85100708 13.95954224 34.23326416 13.31890869 33.59680176 C9 29.22993073 9 29.22993073 9 27 C8.34 27 7.68 27 7 27 C7 26.34 7 25.68 7 25 C6.41605469 24.75894531 5.83210937 24.51789062 5.23046875 24.26953125 C2.57147858 22.75609551 1.18227707 21.10076975 -0.6875 18.6875 C-1.28949219 17.92824219 -1.89148438 17.16898438 -2.51171875 16.38671875 C-4.11967108 13.80808654 -4.73882841 12.01798281 -5 9 C-3.71699712 5.39537285 -2.71705736 2.71705736 0 0 Z " fill="#FEC50B" transform="translate(702,614)"/>
<path d="M0 0 C0.66 0 1.32 0 2 0 C2.30558835 1.8963816 2.61061006 3.79285568 2.91333008 5.68969727 C3.18293742 7.37676316 3.45497112 9.06344283 3.72924805 10.74975586 C4.46723773 15.35449082 5.12998871 19.95191451 5.65625 24.5859375 C6.9862147 35.96418851 8.27414749 45.2505035 17.375 53.125 C18.24125 53.74375 19.1075 54.3625 20 55 C19.67 55.66 19.34 56.32 19 57 C12.52030556 54.78742141 9.05779258 49.98231575 6 44 C3.49116485 36.63448127 2.25880766 29.1372383 1.3125 21.4375 C1.18294922 20.47392578 1.05339844 19.51035156 0.91992188 18.51757812 C0.1290914 12.31227867 -0.16160163 6.2528716 0 0 Z " fill="#FEC10A" transform="translate(396,698)"/>
<path d="M0 0 C1.22323975 0.04592285 2.44647949 0.0918457 3.70678711 0.13916016 C11.06893474 0.46649546 18.33793295 1.01423258 25.625 2.125 C26.39706787 2.23875977 27.16913574 2.35251953 27.96459961 2.46972656 C31.66948007 3.10579394 34.29726414 3.59453526 36.5625 6.75 C29.91194138 6.32382592 23.34080991 5.74905942 16.75 4.75 C7.88202709 3.54509152 -0.93648742 3.30312085 -9.875 3.125 C-11.4928564 3.08668448 -13.11069538 3.04762573 -14.72851562 3.0078125 C-18.6313636 2.91334493 -22.53430558 2.82880064 -26.4375 2.75 C-19.19323807 -2.07950795 -8.35414328 -0.3170214 0 0 Z " fill="#FEC40B" transform="translate(519.4375,203.25)"/>
<path d="M0 0 C2 4 2 4 2 8 C15.2 8 28.4 8 42 8 C42.33 7.34 42.66 6.68 43 6 C43 7.32 43 8.64 43 10 C28.81 10 14.62 10 0 10 C0 6.7 0 3.4 0 0 Z " fill="#FEBE03" transform="translate(490,509)"/>
<path d="M0 0 C0.495 1.485 0.495 1.485 1 3 C0.01 3 -0.98 3 -2 3 C-3 2 -4 1 -5 0 C-8.61528078 -1.27118453 -12.26659206 -1.17385764 -16.06640625 -1.24609375 C-17.45248076 -1.27901161 -18.83854832 -1.31222358 -20.22460938 -1.34570312 C-22.39928742 -1.39320883 -24.57393319 -1.43770555 -26.7487793 -1.47680664 C-28.85493687 -1.51650062 -30.96054924 -1.56802315 -33.06640625 -1.62109375 C-34.32396729 -1.6461499 -35.58152832 -1.67120605 -36.87719727 -1.69702148 C-40 -2 -40 -2 -43 -4 C-7.62994487 -6.13761742 -7.62994487 -6.13761742 0 0 Z " fill="#FEC009" transform="translate(578,885)"/>
<path d="M0 0 C1.24040039 0.01353516 1.24040039 0.01353516 2.50585938 0.02734375 C4.52486708 0.05068488 6.54372356 0.08654712 8.5625 0.125 C8.5625 0.455 8.5625 0.785 8.5625 1.125 C7.51449219 1.21587891 7.51449219 1.21587891 6.4453125 1.30859375 C5.53523438 1.39238281 4.62515625 1.47617187 3.6875 1.5625 C2.78257812 1.64371094 1.87765625 1.72492187 0.9453125 1.80859375 C-1.44860861 1.99489285 -1.44860861 1.99489285 -3.4375 3.125 C-5.4749763 3.35358114 -7.51790303 3.53524278 -9.5625 3.6875 C-10.65820312 3.77128906 -11.75390625 3.85507812 -12.8828125 3.94140625 C-13.72585938 4.00199219 -14.56890625 4.06257812 -15.4375 4.125 C-15.4375 4.785 -15.4375 5.445 -15.4375 6.125 C-15.92863281 6.53363281 -16.41976563 6.94226563 -16.92578125 7.36328125 C-19.14484665 9.94932387 -18.73279909 11.97072809 -18.625 15.3125 C-18.59792969 16.39917969 -18.57085937 17.48585938 -18.54296875 18.60546875 C-18.49076172 19.85263672 -18.49076172 19.85263672 -18.4375 21.125 C-22.4043392 17.33063207 -22.4043392 17.33063207 -22.4921875 14.13671875 C-22.17052197 9.97604502 -21.80877566 7.638234 -19.3125 4.1875 C-13.28426234 -0.13710528 -7.15492522 -0.14990174 0 0 Z " fill="#FDC60D" transform="translate(431.4375,832.875)"/>
<path d="M0 0 C6.36312379 -0.39659359 11.78818928 1.04414771 17.875 2.8125 C18.83664062 3.07353516 19.79828125 3.33457031 20.7890625 3.60351562 C21.70171875 3.86455078 22.614375 4.12558594 23.5546875 4.39453125 C24.38468262 4.63018799 25.21467773 4.86584473 26.06982422 5.10864258 C26.70678223 5.40279053 27.34374023 5.69693848 28 6 C28.33 6.99 28.66 7.98 29 9 C23.10047011 8.18592518 17.42607903 6.61336679 11.6875 5.0625 C10.16672852 4.66514648 10.16672852 4.66514648 8.61523438 4.25976562 C7.65294922 4.00001953 6.69066406 3.74027344 5.69921875 3.47265625 C4.82096436 3.23812744 3.94270996 3.00359863 3.0378418 2.76196289 C1 2 1 2 0 0 Z " fill="#FEC50C" transform="translate(557,209)"/>
<path d="M0 0 C2 1 2 1 2.68603516 2.65478516 C3.34185039 4.97589318 3.99439282 7.29688627 4.625 9.625 C4.85445313 10.42035156 5.08390625 11.21570313 5.3203125 12.03515625 C6.64777866 16.84722107 7.25410995 21.0114204 7 26 C3.73495182 23.82330121 3.59706273 23.63176723 2.83203125 20.078125 C2.66123047 19.29953125 2.49042969 18.5209375 2.31445312 17.71875 C2.06598633 16.49671875 2.06598633 16.49671875 1.8125 15.25 C1.63525391 14.45078125 1.45800781 13.6515625 1.27539062 12.828125 C0.3494174 8.48069859 -0.20913238 4.47110616 0 0 Z " fill="#FEC40B" transform="translate(390,671)"/>
<path d="M0 0 C0.99 0.33 1.98 0.66 3 1 C3.84375 2.8203125 3.84375 2.8203125 4.5 5.125 C5.39237603 8.10430833 6.34991679 10.88045918 7.6875 13.6875 C9.03080922 17.07775661 9.26381491 19.39452953 9 23 C6.42607943 21.71303972 6.30671162 20.74870759 5.2734375 18.10546875 C4.9640625 17.31462891 4.6546875 16.52378906 4.3359375 15.70898438 C4.01882813 14.87689453 3.70171875 14.04480469 3.375 13.1875 C3.05015625 12.36701172 2.7253125 11.54652344 2.390625 10.70117188 C0.8843875 6.79951046 0 4.26544238 0 0 Z " fill="#FEC50A" transform="translate(381,648)"/>
<path d="M0 0 C2.58366245 0.14120016 5.16682885 0.28778333 7.75 0.4375 C8.47960937 0.47681641 9.20921875 0.51613281 9.9609375 0.55664062 C13.4272973 0.76147098 16.65333026 1.0852002 20 2 C20 4.64 20 7.28 20 10 C19.67 10 19.34 10 19 10 C19 7.69 19 5.38 19 3 C17.57107422 3.03480469 17.57107422 3.03480469 16.11328125 3.0703125 C14.85902344 3.08835937 13.60476563 3.10640625 12.3125 3.125 C10.45044922 3.15980469 10.45044922 3.15980469 8.55078125 3.1953125 C5.18762143 3.01032021 3.0014413 2.45767895 0 1 C0 0.67 0 0.34 0 0 Z " fill="#FEBE06" transform="translate(451,537)"/>
<path d="M0 0 C2.86562595 2.47906057 4.1617794 5.12161059 5.6875 8.5625 C6.12449219 9.53316406 6.56148437 10.50382812 7.01171875 11.50390625 C8 14 8 14 8 16 C5 15 5 15 3.61328125 12.63671875 C3.18402344 11.66347656 2.75476563 10.69023437 2.3125 9.6875 C1.87550781 8.72199219 1.43851563 7.75648438 0.98828125 6.76171875 C0 4 0 4 0 0 Z " fill="#FEC50C" transform="translate(719,332)"/>
<path d="M0 0 C3 1 3 1 4.38671875 3.21484375 C4.81597656 4.11332031 5.24523437 5.01179688 5.6875 5.9375 C6.12449219 6.83339844 6.56148437 7.72929687 7.01171875 8.65234375 C8 11 8 11 8 13 C5 12 5 12 3.61328125 9.78515625 C3.18402344 8.88667969 2.75476563 7.98820312 2.3125 7.0625 C1.87550781 6.16660156 1.43851563 5.27070313 0.98828125 4.34765625 C0 2 0 2 0 0 Z " fill="#FEC50B" transform="translate(711,318)"/>
<path d="M0 0 C3.63 0 7.26 0 11 0 C11 0.33 11 0.66 11 1 C7.37 1 3.74 1 0 1 C0 0.67 0 0.34 0 0 Z " fill="#FCCA13" transform="translate(192,437)"/>
<path d="M0 0 C1.98 0 3.96 0 6 0 C6 0.33 6 0.66 6 1 C4.02 1 2.04 1 0 1 C0 0.67 0 0.34 0 0 Z " fill="#F7C413" transform="translate(855,437)"/>
<path d="M0 0 C1.98 0 3.96 0 6 0 C6 0.33 6 0.66 6 1 C4.02 1 2.04 1 0 1 C0 0.67 0 0.34 0 0 Z " fill="#F9C712" transform="translate(848,437)"/>
<path d="M0 0 C1.98 0 3.96 0 6 0 C6 0.33 6 0.66 6 1 C4.02 1 2.04 1 0 1 C0 0.67 0 0.34 0 0 Z " fill="#FCCA13" transform="translate(823,437)"/>
<path d="M0 0 C1.65 0 3.3 0 5 0 C5 0.33 5 0.66 5 1 C3.35 1 1.7 1 0 1 C0 0.67 0 0.34 0 0 Z " fill="#FDCB14" transform="translate(800,437)"/>
<path d="M0 0 C1.65 0 3.3 0 5 0 C5 0.33 5 0.66 5 1 C3.35 1 1.7 1 0 1 C0 0.67 0 0.34 0 0 Z " fill="#FDCB15" transform="translate(793,437)"/>
<path d="M0 0 C1 4 1 4 1 4 Z " fill="#FDCF17" transform="translate(280,459)"/>
<path d="M0 0 C4 1 4 1 4 1 Z " fill="#FCCA14" transform="translate(831,437)"/>
<path d="M0 0 C4 1 4 1 4 1 Z " fill="#FDCC13" transform="translate(215,437)"/>
<path d="M0 0 C4 1 4 1 4 1 Z " fill="#FCCA13" transform="translate(207,437)"/>
<path d="M0 0 C3 1 3 1 3 1 Z " fill="#F7C516" transform="translate(532,943)"/>
<path d="" fill="#F9C817" transform="translate(0,0)"/>
<path d="" fill="#FED016" transform="translate(0,0)"/>
<path d="M0 0 C3 1 3 1 3 1 Z " fill="#F5C413" transform="translate(864,437)"/>
<path d="M0 0 C3 1 3 1 3 1 Z " fill="#FBC812" transform="translate(843,437)"/>
<path d="M0 0 C3 1 3 1 3 1 Z " fill="#FAC913" transform="translate(839,437)"/>
<path d="M0 0 C3 1 3 1 3 1 Z " fill="#F8C712" transform="translate(167,437)"/>
<path d="M0 0 C3 1 3 1 3 1 Z " fill="#FBCF19" transform="translate(392,232)"/>
<path d="M0 0 C3 1 3 1 3 1 Z " fill="#FBCD17" transform="translate(408,224)"/>
<path d="M0 0 C3 1 3 1 3 1 Z " fill="#F8CA16" transform="translate(565,208)"/>
<path d="M0 0 C2 1 2 1 2 1 Z " fill="#F6C615" transform="translate(482,941)"/>
<path d="" fill="#FBC913" transform="translate(0,0)"/>
<path d="M0 0 C2 1 2 1 2 1 Z " fill="#EFBE14" transform="translate(872,437)"/>
<path d="M0 0 C2 1 2 1 2 1 Z " fill="#FDC814" transform="translate(820,437)"/>
<path d="M0 0 C2 1 2 1 2 1 Z " fill="#FCCB14" transform="translate(817,437)"/>
<path d="M0 0 C2 1 2 1 2 1 Z " fill="#FCCB13" transform="translate(223,437)"/>
<path d="M0 0 C2 1 2 1 2 1 Z " fill="#FECA13" transform="translate(212,437)"/>
<path d="M0 0 C2 1 2 1 2 1 Z " fill="#F9C713" transform="translate(175,437)"/>
<path d="M0 0 C2 1 2 1 2 1 Z " fill="#F9C711" transform="translate(172,437)"/>
<path d="M0 0 C2 1 2 1 2 1 Z " fill="#F3C315" transform="translate(862,410)"/>
<path d="M0 0 C2 1 2 1 2 1 Z " fill="#F6C513" transform="translate(854,410)"/>
<path d="M0 0 C2 1 2 1 2 1 Z " fill="#F9C915" transform="translate(839,410)"/>
<path d="M0 0 C2 1 2 1 2 1 Z " fill="#FCCD15" transform="translate(799,410)"/>
<path d="" fill="#FACA15" transform="translate(0,0)"/>
<path d="" fill="#F4C916" transform="translate(0,0)"/>
<path d="" fill="#1F1800" transform="translate(0,0)"/>
<path d="" fill="#F5C613" transform="translate(0,0)"/>
<path d="" fill="#F7C914" transform="translate(0,0)"/>
<path d="" fill="#F2C415" transform="translate(0,0)"/>
<path d="" fill="#F4C711" transform="translate(0,0)"/>
<path d="" fill="#F6C214" transform="translate(0,0)"/>
<path d="" fill="#FDCD16" transform="translate(0,0)"/>
<path d="" fill="#F7C515" transform="translate(0,0)"/>
<path d="" fill="#FCCC18" transform="translate(0,0)"/>
<path d="" fill="#FFD015" transform="translate(0,0)"/>
<path d="" fill="#FFD116" transform="translate(0,0)"/>
<path d="" fill="#FACA16" transform="translate(0,0)"/>
<path d="" fill="#FBCB15" transform="translate(0,0)"/>
<path d="" fill="#FECB15" transform="translate(0,0)"/>
<path d="" fill="#FFCE16" transform="translate(0,0)"/>
<path d="" fill="#F3C414" transform="translate(0,0)"/>
<path d="" fill="#F5C514" transform="translate(0,0)"/>
<path d="" fill="#F5C915" transform="translate(0,0)"/>
<path d="" fill="#FACA1A" transform="translate(0,0)"/>
<path d="" fill="#F8C914" transform="translate(0,0)"/>
<path d="" fill="#EBBC15" transform="translate(0,0)"/>
<path d="" fill="#FBCD15" transform="translate(0,0)"/>
<path d="" fill="#FCCC14" transform="translate(0,0)"/>
<path d="" fill="#FFCE15" transform="translate(0,0)"/>
<path d="" fill="#FDCD17" transform="translate(0,0)"/>
<path d="" fill="#FECF17" transform="translate(0,0)"/>
<path d="" fill="#FFCE14" transform="translate(0,0)"/>
<path d="" fill="#FED016" transform="translate(0,0)"/>
<path d="" fill="#FFD015" transform="translate(0,0)"/>
<path d="" fill="#FFD017" transform="translate(0,0)"/>
<path d="" fill="#FED016" transform="translate(0,0)"/>
<path d="" fill="#FED318" transform="translate(0,0)"/>
<path d="" fill="#FED016" transform="translate(0,0)"/>
<path d="" fill="#FFCD15" transform="translate(0,0)"/>
<path d="" fill="#FECE16" transform="translate(0,0)"/>
<path d="" fill="#FFCE16" transform="translate(0,0)"/>
<path d="" fill="#FED116" transform="translate(0,0)"/>
<path d="" fill="#FBCF17" transform="translate(0,0)"/>
<path d="" fill="#FBCD17" transform="translate(0,0)"/>
<path d="" fill="#FDCD14" transform="translate(0,0)"/>
<path d="" fill="#FACB16" transform="translate(0,0)"/>
<path d="" fill="#FECE18" transform="translate(0,0)"/>
<path d="" fill="#FBCC15" transform="translate(0,0)"/>
<path d="" fill="#FFCF17" transform="translate(0,0)"/>
<path d="" fill="#FCCE18" transform="translate(0,0)"/>
<path d="" fill="#FCC916" transform="translate(0,0)"/>
<path d="" fill="#FCC914" transform="translate(0,0)"/>
<path d="" fill="#FCCA13" transform="translate(0,0)"/>
<path d="" fill="#FFCC16" transform="translate(0,0)"/>
<path d="" fill="#FDCB13" transform="translate(0,0)"/>
<path d="" fill="#FECB14" transform="translate(0,0)"/>
<path d="" fill="#FAC814" transform="translate(0,0)"/>
<path d="" fill="#F7C512" transform="translate(0,0)"/>
<path d="" fill="#F5C411" transform="translate(0,0)"/>
<path d="" fill="#E3B410" transform="translate(0,0)"/>
<path d="" fill="#FDCF18" transform="translate(0,0)"/>
<path d="" fill="#F6C713" transform="translate(0,0)"/>
<path d="" fill="#F7C714" transform="translate(0,0)"/>
<path d="" fill="#FACA15" transform="translate(0,0)"/>
<path d="" fill="#FAC916" transform="translate(0,0)"/>
<path d="" fill="#FBC914" transform="translate(0,0)"/>
<path d="" fill="#FDCC17" transform="translate(0,0)"/>
<path d="" fill="#FDCC17" transform="translate(0,0)"/>
<path d="" fill="#FACB15" transform="translate(0,0)"/>
<path d="" fill="#FBC914" transform="translate(0,0)"/>
<path d="" fill="#FACA15" transform="translate(0,0)"/>
<path d="" fill="#FACA15" transform="translate(0,0)"/>
<path d="" fill="#FAC916" transform="translate(0,0)"/>
<path d="" fill="#F9C915" transform="translate(0,0)"/>
<path d="" fill="#F7C614" transform="translate(0,0)"/>
<path d="" fill="#F6C514" transform="translate(0,0)"/>
<path d="" fill="#FECF1B" transform="translate(0,0)"/>
<path d="" fill="#FFD118" transform="translate(0,0)"/>
<path d="" fill="#FBCC19" transform="translate(0,0)"/>
<path d="" fill="#FACD16" transform="translate(0,0)"/>
<path d="" fill="#FACA17" transform="translate(0,0)"/>
<path d="" fill="#FCCC17" transform="translate(0,0)"/>
<path d="" fill="#FDCE18" transform="translate(0,0)"/>
<path d="" fill="#FBCE1A" transform="translate(0,0)"/>
<path d="" fill="#FDD118" transform="translate(0,0)"/>
<path d="" fill="#F8CF18" transform="translate(0,0)"/>
<path d="" fill="#FECE14" transform="translate(0,0)"/>
<path d="" fill="#F9CA17" transform="translate(0,0)"/>
<path d="" fill="#FACC15" transform="translate(0,0)"/>
<path d="" fill="#FCCC16" transform="translate(0,0)"/>
<path d="" fill="#F9CA18" transform="translate(0,0)"/>
<path d="" fill="#FFD317" transform="translate(0,0)"/>
<path d="" fill="#FDD016" transform="translate(0,0)"/>
<path d="" fill="#FACB18" transform="translate(0,0)"/>
<path d="" fill="#F8C816" transform="translate(0,0)"/>
<path d="" fill="#FACC14" transform="translate(0,0)"/>
<path d="" fill="#EBBD14" transform="translate(0,0)"/>
<path d="" fill="#FCCD15" transform="translate(0,0)"/>
<path d="" fill="#E7BC12" transform="translate(0,0)"/>
<path d="" fill="#FACC14" transform="translate(0,0)"/>
<path d="" fill="#FBC817" transform="translate(0,0)"/>
<path d="" fill="#F4C514" transform="translate(0,0)"/>
<path d="" fill="#221B00" transform="translate(0,0)"/>
</svg>
