<svg xmlns="http://www.w3.org/2000/svg" viewBox="0 0 256 256">
  <!-- Transparent background -->
  <defs>
    <!-- Warm bulb fill -->
    <radialGradient id="bulbFill" cx="50%" cy="40%" r="60%">
      <stop offset="0%" stop-color="#FFE680"/>
      <stop offset="55%" stop-color="#FFD84D"/>
      <stop offset="100%" stop-color="#FFC61E"/>
    </radialGradient>

    <!-- Glass highlight -->
    <linearGradient id="glassHighlight" x1="0" y1="0" x2="1" y2="1">
      <stop offset="0%" stop-color="white" stop-opacity="0.65"/>
      <stop offset="100%" stop-color="white" stop-opacity="0"/>
    </linearGradient>

    <!-- Metal base gradient -->
    <linearGradient id="baseMetal" x1="0" y1="0" x2="0" y2="1">
      <stop offset="0%" stop-color="#D9D9D9"/>
      <stop offset="100%" stop-color="#9A9A9A"/>
    </linearGradient>

    <!-- Filament glow -->
    <filter id="glow" x="-50%" y="-50%" width="200%" height="200%">
      <feGaussianBlur stdDeviation="2" result="blur"/>
      <feMerge>
        <feMergeNode in="blur"/>
        <feMergeNode in="SourceGraphic"/>
      </feMerge>
    </filter>

    <!-- Soft outer glow (optional; keeps background transparent) -->
    <filter id="outerGlow" x="-50%" y="-50%" width="200%" height="200%">
      <feGaussianBlur stdDeviation="10" result="og"/>
      <feColorMatrix in="og" type="matrix"
        values="1 0 0 0 0
                0 1 0 0 0
                0 0 1 0 0
                0 0 0 0.55 0"/>
      <feBlend in="SourceGraphic" in2="og" mode="screen"/>
    </filter>
  </defs>

  <!-- Bulb glass silhouette -->
  <path id="bulb"
        d="M128 20
           c-36 0-78 26-78 76
           c0 27 13 47 31 62
           c10 8 15 17 15 27v11h64v-11
           c0-10 5-19 15-27
           c18-15 31-35 31-62
           c0-50-42-76-78-76z"
        fill="url(#bulbFill)"
        stroke="#202020" stroke-width="6" stroke-linejoin="round"
        filter="url(#outerGlow)"/>

  <!-- Glass rim -->
  <path d="M88 185h80" stroke="#202020" stroke-width="6" stroke-linecap="round"/>

  <!-- Filament supports -->
  <path d="M106 150 v28 M150 150 v28" stroke="#202020" stroke-width="6" stroke-linecap="round"/>

  <!-- Filament (coiled) -->
  <path d="M106 164
           c6-10 38-10 44 0
           s-32 10-38 0"
        fill="none" stroke="#A65A00" stroke-width="5" filter="url(#glow)"/>
  <path d="M106 164
           c6-10 38-10 44 0
           s-32 10-38 0"
        fill="none" stroke="#FFB300" stroke-width="3" filter="url(#glow)"/>

  <!-- Screw base body -->
  <path d="M92 200 h72
           a8 8 0 0 1 8 8
           v20 a14 14 0 0 1-14 14
           h-60 a14 14 0 0 1-14-14
           v-20 a8 8 0 0 1 8-8 z"
        fill="url(#baseMetal)" stroke="#202020" stroke-width="6" />

  <!-- Screw ridges -->
  <g stroke="#202020" stroke-width="4" opacity="0.9">
    <path d="M96 208h64"/>
    <path d="M96 216h64"/>
    <path d="M96 224h64"/>
  </g>

  <!-- Contact tip -->
  <path d="M118 242 h20 a8 8 0 0 1-8 8h-4a8 8 0 0 1-8-8z"
        fill="#2B2B2B" stroke="#202020" stroke-width="4"/>

  <!-- Glass highlight strip -->
  <path d="M98 46
           c-20 12-32 33-32 56
           c0 18 6 33 18 45"
        fill="none" stroke="url(#glassHighlight)"
        stroke-width="10" stroke-linecap="round" opacity="0.7"/>
</svg>
