<?xml version="1.0" encoding="UTF-8"?>
<svg version="1.1" xmlns="http://www.w3.org/2000/svg" width="1024" height="1024">
<path d="M0 0 C2.87706893 0.80825954 5.73077037 1.30729713 8.68359375 1.75390625 C8.68359375 2.41390625 8.68359375 3.07390625 8.68359375 3.75390625 C10.20760591 4.8744745 10.20760591 4.8744745 12.18359375 5.94140625 C25.48263843 14.00996246 32.42251065 24.89293875 36.68359375 39.75390625 C38.44382491 48.35703604 38.01240475 57.11663476 36.68359375 65.75390625 C38.00359375 65.75390625 39.32359375 65.75390625 40.68359375 65.75390625 C40.76633545 66.35662354 40.84907715 66.95934082 40.93432617 67.58032227 C41.92074883 70.44188007 43.08738684 71.006193 45.671875 72.53125 C46.51314941 73.03793213 47.35442383 73.54461426 48.22119141 74.06665039 C49.13690918 74.60281982 50.05262695 75.13898926 50.99609375 75.69140625 C52.92832069 76.8534137 54.85928077 78.01752997 56.7890625 79.18359375 C57.77438965 79.77624023 58.7597168 80.36888672 59.77490234 80.97949219 C64.18004691 83.66680046 68.4956513 86.48428773 72.80859375 89.31640625 C81.48989911 94.99345947 90.23066344 100.56757442 99.01757812 106.07958984 C102.04954704 107.98373296 105.07734916 109.89442932 108.10546875 111.8046875 C110.29801614 113.18384965 112.49072265 114.56275886 114.68359375 115.94140625 C115.7293457 116.60188965 116.77509766 117.26237305 117.85253906 117.94287109 C118.82803711 118.55469238 119.80353516 119.16651367 120.80859375 119.796875 C121.67742187 120.3436792 122.54625 120.8904834 123.44140625 121.45385742 C125.72973952 122.88167009 125.72973952 122.88167009 128.68359375 123.75390625 C130.9490851 122.6444802 130.9490851 122.6444802 133.30859375 121.00390625 C144.30604518 114.17407691 155.9330491 112.44242158 168.74609375 114.75390625 C182.47395521 118.17048163 193.1070388 125.62019543 200.99609375 137.31640625 C208.01443827 149.82821821 209.16214573 163.77496573 205.71484375 177.484375 C201.39024926 191.19530526 192.19708248 201.08686774 179.85546875 208.125 C168.11414626 214.15471857 154.39209312 214.68060371 141.68359375 211.19140625 C135.57782943 209.00254734 130.65356233 205.88556688 125.68359375 201.75390625 C124.98621094 201.20347656 124.28882813 200.65304687 123.5703125 200.0859375 C114.04382274 191.70632612 108.87931384 178.93953632 107.71484375 166.52734375 C107.66200255 160.14676851 108.52721493 154.02503752 109.68359375 147.75390625 C99.62151848 141.21489182 89.52564163 134.73165914 79.3972168 128.29589844 C69.2386399 121.83965513 59.10265937 115.34826852 48.96679688 108.85644531 C43.75020383 105.51577761 38.5325043 102.1768392 33.31484985 98.83782959 C30.63433337 97.12242654 27.95388824 95.40691201 25.2734375 93.69140625 C24.38519287 93.12292969 23.49694824 92.55445313 22.58178711 91.96875 C21.9553833 91.56785156 21.32897949 91.16695312 20.68359375 90.75390625 C19.6575 91.346875 18.63140625 91.93984375 17.57421875 92.55078125 C14.23647226 94.45662441 10.86134771 96.26366193 7.43359375 98.00390625 C6.4178125 98.5246875 5.40203125 99.04546875 4.35546875 99.58203125 C1.68359375 100.75390625 1.68359375 100.75390625 -1.31640625 100.75390625 C-9.28634919 157.45226786 -9.28634919 157.45226786 9.15835571 209.12454224 C15.46889343 216.8905008 22.45639387 223.85811719 29.80859375 230.62890625 C30.51860786 231.29271553 31.22862198 231.95652481 31.96015167 232.64044952 C36.74820561 237.09980606 41.65133206 241.38677113 46.69140625 245.55859375 C47.3367482 246.10301369 47.98209015 246.64743362 48.64698792 247.20835114 C55.52804364 252.90195588 60.54626963 256.48627832 69.69873047 255.82470703 C71.4666243 255.52900314 71.4666243 255.52900314 73.27023315 255.22732544 C84.04097754 253.73346713 94.40341936 259.23483897 102.8984375 265.34765625 C113.41833768 273.90895697 120.08940345 286.34809501 121.62109375 299.81640625 C122.19980744 314.06023029 117.57605054 326.44457836 108.30859375 337.25390625 C99.56879093 346.27468412 88.03997119 352.72215819 75.32373047 353.09716797 C61.03241699 353.27750875 49.34463467 349.61871639 38.6015625 339.86328125 C29.63538808 330.6056633 24.03877201 318.67351552 23.68359375 305.75390625 C23.99587139 292.8334191 27.53625865 282.01905017 35.68359375 271.75390625 C34.14598627 268.1269824 31.97163136 265.7657359 29.22143555 262.96948242 C28.77075714 262.50887421 28.32007874 262.04826599 27.85574341 261.57369995 C26.37031745 260.05917615 24.87730802 258.55244685 23.3828125 257.046875 C22.34389433 255.99644784 21.30497938 254.9460175 20.2660675 253.89558411 C18.09018393 251.69872617 15.90970827 249.50653344 13.72680664 247.31665039 C10.92875124 244.50759346 8.14974673 241.68044917 5.37474346 238.8486433 C3.23751322 236.67421102 1.08702849 234.51326748 -1.06734276 232.35582924 C-2.09818046 231.3189326 -3.1240068 230.277029 -4.14467812 229.23012352 C-5.57092374 227.76984645 -7.01805833 226.33005959 -8.46606445 224.89135742 C-9.28387894 224.06625168 -10.10169342 223.24114594 -10.94429016 222.39103699 C-13.20340369 220.5019091 -13.20340369 220.5019091 -15.99455261 220.74531555 C-18.87957143 221.99853974 -19.13519039 222.91183076 -20.31640625 225.75390625 C-21.87219238 227.56365967 -21.87219238 227.56365967 -23.72460938 229.42089844 C-24.41872925 230.12132263 -25.11284912 230.82174683 -25.82800293 231.543396 C-26.57698853 232.28833313 -27.32597412 233.03327026 -28.09765625 233.80078125 C-28.86694458 234.57198303 -29.63623291 235.34318481 -30.42883301 236.13775635 C-32.05377452 237.76405754 -33.68123924 239.38784101 -35.31103516 241.00927734 C-37.813858 243.50136893 -40.30581188 246.00397217 -42.796875 248.5078125 C-44.37566093 250.08527737 -45.95506686 251.66212202 -47.53515625 253.23828125 C-48.28414185 253.99131531 -49.03312744 254.74434937 -49.80480957 255.52020264 C-50.84598938 256.55192596 -50.84598938 256.55192596 -51.90820312 257.60449219 C-52.51950073 258.21419861 -53.13079834 258.82390503 -53.76062012 259.4520874 C-55.31640625 260.75390625 -55.31640625 260.75390625 -57.31640625 260.75390625 C-57.65671875 261.55828125 -57.65671875 261.55828125 -58.00390625 262.37890625 C-59.75022681 265.53891488 -61.95669115 268.02160455 -64.31640625 270.75390625 C-63.73632812 271.4809375 -63.73632812 271.4809375 -63.14453125 272.22265625 C-54.31640625 283.58558942 -54.31640625 283.58558942 -54.31640625 289.75390625 C-53.65640625 290.08390625 -52.99640625 290.41390625 -52.31640625 290.75390625 C-51.31709301 301.78686464 -51.39040701 311.81868743 -53.31640625 322.75390625 C-53.97640625 322.75390625 -54.63640625 322.75390625 -55.31640625 322.75390625 C-55.52265625 323.55828125 -55.72890625 324.36265625 -55.94140625 325.19140625 C-57.72348264 329.80860418 -60.17812337 333.91633208 -63.31640625 337.75390625 C-63.97640625 337.75390625 -64.63640625 337.75390625 -65.31640625 337.75390625 C-65.31640625 338.41390625 -65.31640625 339.07390625 -65.31640625 339.75390625 C-76.82870775 350.71953422 -90.76334668 353.44436442 -106.0546875 353.1328125 C-116.24209965 352.62498902 -124.74346066 348.52086206 -132.31640625 341.75390625 C-132.90808594 341.26535156 -133.49976563 340.77679687 -134.109375 340.2734375 C-143.44743399 331.92484171 -148.00846732 320.01531351 -149.21191406 307.78125 C-149.92982298 293.85247505 -145.39275144 282.06094231 -136.31640625 271.75390625 C-135.76984375 271.12484375 -135.22328125 270.49578125 -134.66015625 269.84765625 C-125.74448486 260.259104 -114.56541197 256.0155152 -101.75 254.8359375 C-99.31640625 254.75390625 -99.31640625 254.75390625 -97.0390625 255.015625 C-92.94100867 255.45495942 -91.03000302 255.25464034 -87.56640625 252.82421875 C-82.83103714 248.78579501 -82.83103714 248.78579501 -79.31640625 243.75390625 C-78.65640625 243.75390625 -77.99640625 243.75390625 -77.31640625 243.75390625 C-76.98640625 242.76390625 -76.65640625 241.77390625 -76.31640625 240.75390625 C-73.84461947 238.07025203 -71.28478951 235.72847539 -68.44140625 233.44140625 C-66.15062156 231.58046531 -64.3825821 229.64320298 -62.54760742 227.33666992 C-59.71158665 224.02434447 -56.68869967 221.40126518 -53.24590206 218.76648617 C-41.92129638 210.05270008 -29.82093267 200.41104067 -27.28666496 185.63757133 C-25.86648399 173.50415095 -26.56555102 161.27227282 -27.32513428 149.1149292 C-27.62676707 143.76040646 -27.75525397 138.40165759 -27.90039062 133.04101562 C-28.2075773 122.60122213 -28.69941964 112.17967249 -29.31640625 101.75390625 C-30.40179688 101.2228125 -31.4871875 100.69171875 -32.60546875 100.14453125 C-34.05088864 99.43120715 -35.49619514 98.71765324 -36.94140625 98.00390625 C-37.65425781 97.65585937 -38.36710938 97.3078125 -39.1015625 96.94921875 C-43.40604532 94.81672267 -47.38081913 92.51005875 -51.31640625 89.75390625 C-64.08299678 97.8667509 -76.83722406 105.99857987 -89.57397461 114.15820312 C-94.38826429 117.24200533 -99.20552246 120.32083986 -104.03125 123.38671875 C-108.60307278 126.29375503 -113.15086496 129.23585884 -117.69140625 132.19140625 C-124.83155988 136.82739968 -132.03885112 141.3367467 -139.31640625 145.75390625 C-139.09984375 147.67203125 -139.09984375 147.67203125 -138.87890625 149.62890625 C-138.79125 150.45648437 -138.70359375 151.2840625 -138.61328125 152.13671875 C-138.42440212 153.80183737 -138.20856057 155.46428104 -137.95703125 157.12109375 C-136.09299602 170.65754006 -140.03720308 182.46409695 -147.31640625 193.75390625 C-152.50468385 200.44184757 -158.86345757 204.87085736 -166.31640625 208.75390625 C-167.40953125 209.33140625 -168.50265625 209.90890625 -169.62890625 210.50390625 C-174.1705043 212.04343101 -178.55278323 212.35444118 -183.328125 212.640625 C-186.71681152 213.90307684 -186.83576823 214.20579432 -188.26660156 217.30004883 C-188.6063652 218.02380203 -188.94612885 218.74755524 -189.29618835 219.49324036 C-189.63286026 220.2392601 -189.96953217 220.98527985 -190.31640625 221.75390625 C-190.7848571 222.77027412 -190.7848571 222.77027412 -191.26277161 223.80717468 C-192.22299347 225.90843193 -193.16462649 228.01716883 -194.1015625 230.12890625 C-194.44392441 230.8976709 -194.78628632 231.66643555 -195.13902283 232.45849609 C-195.8567097 234.07152859 -196.57345998 235.68497812 -197.28930664 237.29882812 C-198.37663221 239.7487824 -199.46840527 242.19672073 -200.56054688 244.64453125 C-201.26198823 246.22253649 -201.96316887 247.80065766 -202.6640625 249.37890625 C-202.98601089 250.09997559 -203.30795929 250.82104492 -203.6396637 251.56396484 C-205.70745741 256.23759147 -207.56061621 260.95405021 -209.31640625 265.75390625 C-208.32640625 266.53765625 -207.33640625 267.32140625 -206.31640625 268.12890625 C-205.32640625 268.99515625 -204.33640625 269.86140625 -203.31640625 270.75390625 C-203.31640625 271.41390625 -203.31640625 272.07390625 -203.31640625 272.75390625 C-202.65640625 272.75390625 -201.99640625 272.75390625 -201.31640625 272.75390625 C-192.32690669 285.36086708 -189.84652739 297.58665744 -191.31640625 312.75390625 C-193.32611413 323.60859965 -198.12120407 332.35823599 -206.31640625 339.75390625 C-207.06664062 340.47513672 -207.06664062 340.47513672 -207.83203125 341.2109375 C-218.37154058 350.93782111 -230.60188391 353.45669606 -244.51171875 353.125 C-255.58888925 352.51347055 -265.23844481 347.16499549 -273.31640625 339.75390625 C-283.40109314 328.26007961 -287.88304953 316.0544052 -287.19140625 300.75390625 C-285.80961871 286.64104254 -280.38269061 275.56545632 -269.44140625 266.37890625 C-257.90859537 257.73372697 -247.58224364 255.39775497 -233.31640625 255.75390625 C-233.22343262 255.09036133 -233.13045898 254.42681641 -233.03466797 253.74316406 C-232.11158052 249.9014636 -230.50075267 246.48241922 -228.82421875 242.92578125 C-228.477612 242.17733948 -228.13100525 241.42889771 -227.77389526 240.65777588 C-226.66815869 238.27074659 -225.55557785 235.8870089 -224.44140625 233.50390625 C-223.33456421 231.13500316 -222.22948881 228.76536695 -221.13034058 226.3928833 C-220.44812965 224.92035487 -219.76167566 223.44978143 -219.07009888 221.98162842 C-216.768493 217.01413898 -214.95112106 211.97756961 -213.31640625 206.75390625 C-213.87328125 206.36460937 -214.43015625 205.9753125 -215.00390625 205.57421875 C-227.57665624 196.35703379 -234.42485114 184.86426452 -237.0546875 169.51953125 C-238.35676371 155.76027818 -234.9941155 142.60104281 -226.31640625 131.75390625 C-221.8544353 126.56291248 -217.45506477 122.76938763 -211.31640625 119.75390625 C-210.62804687 119.40585937 -209.9396875 119.0578125 -209.23046875 118.69921875 C-197.16626364 112.89993419 -184.06352177 112.13033991 -171.31640625 116.56640625 C-168.14920615 117.83986504 -165.32148311 119.30568163 -162.44140625 121.12890625 C-159.50606986 123.11669319 -159.50606986 123.11669319 -156.90405273 122.02832031 C-154.41751279 120.80370115 -152.11805968 119.48944995 -149.7890625 117.98828125 C-148.92587402 117.43519287 -148.06268555 116.88210449 -147.17333984 116.31225586 C-146.25117676 115.71550049 -145.32901367 115.11874512 -144.37890625 114.50390625 C-142.39332454 113.22901811 -140.40764471 111.95428278 -138.421875 110.6796875 C-137.40786621 110.02693848 -136.39385742 109.37418945 -135.34912109 108.70166016 C-131.55088122 106.26224962 -127.73951049 103.84392348 -123.92724609 101.42651367 C-116.00157218 96.39994179 -108.10968633 91.32647584 -100.25390625 86.19140625 C-93.13765018 81.54701505 -85.9704767 76.99092198 -78.75390625 72.50390625 C-77.85470459 71.94243896 -76.95550293 71.38097168 -76.02905273 70.80249023 C-75.19446533 70.28630127 -74.35987793 69.7701123 -73.5 69.23828125 C-72.76322021 68.78163086 -72.02644043 68.32498047 -71.26733398 67.85449219 C-69.31640625 66.75390625 -69.31640625 66.75390625 -66.31640625 65.75390625 C-66.47238281 65.05007813 -66.62835938 64.34625 -66.7890625 63.62109375 C-69.89493997 47.86545041 -67.51212931 33.46718368 -58.80078125 19.92578125 C-51.30599208 8.9597213 -39.82133835 0.96490717 -26.73046875 -1.9296875 C-17.57527162 -3.12964052 -8.84483091 -2.59699291 0 0 Z " fill="#00A6F0" transform="translate(524.31640625,502.24609375)"/>
<path d="M0 0 C0 0.33 0 0.66 0 1 C1.12535156 1.21914062 2.25070312 1.43828125 3.41015625 1.6640625 C13.80015875 3.77326831 23.3557724 6.49832678 33 11 C33.60908203 11.28327148 34.21816406 11.56654297 34.84570312 11.85839844 C51.2110053 19.64525357 66.3848969 31.09085367 78 45 C78.71285156 45.825 79.42570313 46.65 80.16015625 47.5 C102.67078327 74.06485658 111.24483321 106.23649388 108.81396484 140.63232422 C106.33146701 165.75560677 95.82030703 189.49366905 80 209 C78.2373561 211.21940208 76.48957605 213.44997959 74.75 215.6875 C74.32436768 216.2347876 73.89873535 216.7820752 73.46020508 217.34594727 C70.61005387 221.06536929 68.20970126 224.82864599 66.06640625 228.98828125 C65.03397151 230.93591455 63.87150609 232.68434965 62.625 234.5 C56.79946006 243.78043428 53.08690498 254.51734004 50.5625 265.125 C50.3987085 265.81070068 50.23491699 266.49640137 50.06616211 267.20288086 C49.3564461 270.43682411 49.00336291 273.35086351 49.03515625 276.66796875 C48.99822147 280.16856496 48.44022633 282.091502 46.875 285.1875 C46.48054687 286.00605469 46.08609375 286.82460938 45.6796875 287.66796875 C43.5355312 290.64485551 41.3432165 292.54599047 38 294 C34.4063376 294.57932881 30.85850354 294.54679887 27.22460938 294.51757812 C26.15072464 294.5245874 25.0768399 294.53159668 23.97041321 294.53881836 C20.42792751 294.55639384 16.88624354 294.54477645 13.34375 294.53125 C10.8780502 294.53394502 8.41235144 294.53782753 5.94665527 294.54284668 C0.78187938 294.54874115 -4.3826196 294.54017996 -9.54736328 294.52148438 C-16.16522515 294.49869538 -22.78243812 294.51181866 -29.40027618 294.53577423 C-34.49095543 294.55023325 -39.58148102 294.54562562 -44.67216492 294.53526306 C-47.11219866 294.53259609 -49.55224638 294.53586445 -51.99226379 294.54518127 C-55.4034212 294.55534803 -58.81353 294.53984234 -62.22460938 294.51757812 C-63.23154343 294.52567505 -64.23847748 294.53377197 -65.27592468 294.54211426 C-71.17598372 294.47082868 -74.47556189 293.87282304 -79 290 C-81.71772014 287.10316986 -82.45029163 284.8633437 -82.95703125 280.95703125 C-83.16610107 279.48302856 -83.16610107 279.48302856 -83.37939453 277.97924805 C-83.52231934 276.93422119 -83.66524414 275.88919434 -83.8125 274.8125 C-87.61625811 250.10282983 -98.06991244 229.58591734 -114.08984375 210.51171875 C-135.50905157 184.596598 -146.20208462 150.36672844 -143.60595703 116.859375 C-140.91981904 89.41874336 -130.06111179 64.78731734 -112 44 C-111.27941406 43.14535156 -110.55882812 42.29070312 -109.81640625 41.41015625 C-81.4926395 8.6434457 -41.49462845 -0.94736595 0 0 Z " fill="#FED418" transform="translate(527,152)"/>
<path d="M0 0 C1.87890625 0.0859375 1.87890625 0.0859375 4 1 C5.52734375 3.4765625 5.52734375 3.4765625 6.9375 6.625 C9.88736492 12.88973837 12.99921266 18.14332757 18 23 C12.05984656 27.37302753 5.93453237 31.31406163 -0.375 35.125 C-9.68182918 40.74847066 -18.78305324 46.66439745 -27.88085938 52.61816406 C-31.29284363 54.84302937 -34.73360549 57.02151572 -38.17578125 59.19921875 C-41.179415 61.11439878 -44.16687313 63.05331291 -47.15380859 64.99438477 C-55.03373839 70.11400062 -62.96669935 75.12413578 -71 80 C-70.7834375 81.918125 -70.7834375 81.918125 -70.5625 83.875 C-70.47484375 84.70257812 -70.3871875 85.53015625 -70.296875 86.3828125 C-70.10799587 88.04793112 -69.89215432 89.71037479 -69.640625 91.3671875 C-67.77658977 104.90363381 -71.72079683 116.7101907 -79 128 C-84.1882776 134.68794132 -90.54705132 139.11695111 -98 143 C-99.093125 143.5775 -100.18625 144.155 -101.3125 144.75 C-105.85409805 146.28952476 -110.23637698 146.60053493 -115.01171875 146.88671875 C-118.40040527 148.14917059 -118.51936198 148.45188807 -119.95019531 151.54614258 C-120.28995895 152.26989578 -120.6297226 152.99364899 -120.9797821 153.73933411 C-121.31645401 154.48535385 -121.65312592 155.2313736 -122 156 C-122.46845085 157.01636787 -122.46845085 157.01636787 -122.94636536 158.05326843 C-123.90658722 160.15452568 -124.84822024 162.26326258 -125.78515625 164.375 C-126.12751816 165.14376465 -126.46988007 165.9125293 -126.82261658 166.70458984 C-127.54030345 168.31762234 -128.25705373 169.93107187 -128.97290039 171.54492188 C-130.06022596 173.99487615 -131.15199902 176.44281448 -132.24414062 178.890625 C-132.94558198 180.46863024 -133.64676262 182.04675141 -134.34765625 183.625 C-134.66960464 184.34606934 -134.99155304 185.06713867 -135.32325745 185.81005859 C-137.39105116 190.48368522 -139.24420996 195.20014396 -141 200 C-140.01 200.78375 -139.02 201.5675 -138 202.375 C-137.01 203.24125 -136.02 204.1075 -135 205 C-135 205.66 -135 206.32 -135 207 C-134.34 207 -133.68 207 -133 207 C-124.01050044 219.60696083 -121.53012114 231.83275119 -123 247 C-125.00970788 257.8546934 -129.80479782 266.60432974 -138 274 C-138.75023437 274.72123047 -138.75023437 274.72123047 -139.515625 275.45703125 C-150.05513433 285.18391486 -162.28547766 287.70278981 -176.1953125 287.37109375 C-187.272483 286.7595643 -196.92203856 281.41108924 -205 274 C-215.08468689 262.50617336 -219.56664328 250.30049895 -218.875 235 C-217.49321246 220.88713629 -212.06628436 209.81155007 -201.125 200.625 C-189.59218912 191.97982072 -179.26583739 189.64384872 -165 190 C-164.86053955 189.00468262 -164.86053955 189.00468262 -164.71826172 187.98925781 C-163.79517427 184.14755735 -162.18434642 180.72851297 -160.5078125 177.171875 C-160.16120575 176.42343323 -159.814599 175.67499146 -159.45748901 174.90386963 C-158.35175244 172.51684034 -157.2391716 170.13310265 -156.125 167.75 C-155.01815796 165.38109691 -153.91308256 163.0114607 -152.81393433 160.63897705 C-152.1317234 159.16644862 -151.44526941 157.69587518 -150.75369263 156.22772217 C-148.45208675 151.26023273 -146.63471481 146.22366336 -145 141 C-145.556875 140.61070312 -146.11375 140.22140625 -146.6875 139.8203125 C-159.26024999 130.60312754 -166.10844489 119.11035827 -168.73828125 103.765625 C-170.04035746 90.00637193 -166.67770925 76.84713656 -158 66 C-153.53802905 60.80900623 -149.13865852 57.01548138 -143 54 C-142.31164062 53.65195312 -141.62328125 53.30390625 -140.9140625 52.9453125 C-128.84985739 47.14602794 -115.74711552 46.37643366 -103 50.8125 C-99.8327999 52.08595879 -97.00507686 53.55177538 -94.125 55.375 C-91.18966361 57.36278694 -91.18966361 57.36278694 -88.58764648 56.27441406 C-86.10110654 55.0497949 -83.80165343 53.7355437 -81.47265625 52.234375 C-80.60946777 51.68128662 -79.7462793 51.12819824 -78.85693359 50.55834961 C-77.93477051 49.96159424 -77.01260742 49.36483887 -76.0625 48.75 C-74.07691829 47.47511186 -72.09123846 46.20037653 -70.10546875 44.92578125 C-69.09145996 44.27303223 -68.07745117 43.6202832 -67.03271484 42.94775391 C-63.23447497 40.50834337 -59.42310424 38.09001723 -55.61083984 35.67260742 C-46.8685352 30.12811705 -38.1745349 24.51544065 -29.51000977 18.8503418 C-22.25967782 14.12924603 -14.91303272 9.57004684 -7.53686523 5.04858398 C-6.69583252 4.53239502 -5.8547998 4.01620605 -4.98828125 3.484375 C-3.86740112 2.79939941 -3.86740112 2.79939941 -2.72387695 2.10058594 C-1.04236866 1.1141991 -1.04236866 1.1141991 0 0 Z " fill="#35C157" transform="translate(456,568)"/>
<path d="M0 0 C2.87706893 0.80825954 5.73077037 1.30729713 8.68359375 1.75390625 C8.68359375 2.41390625 8.68359375 3.07390625 8.68359375 3.75390625 C10.20760591 4.8744745 10.20760591 4.8744745 12.18359375 5.94140625 C25.48263843 14.00996246 32.42251065 24.89293875 36.68359375 39.75390625 C38.44382491 48.35703604 38.01240475 57.11663476 36.68359375 65.75390625 C38.00359375 65.75390625 39.32359375 65.75390625 40.68359375 65.75390625 C40.76633545 66.35662354 40.84907715 66.95934082 40.93432617 67.58032227 C41.92074883 70.44188007 43.08738684 71.006193 45.671875 72.53125 C46.93378662 73.29127319 46.93378662 73.29127319 48.22119141 74.06665039 C49.13690918 74.60281982 50.05262695 75.13898926 50.99609375 75.69140625 C52.92832069 76.8534137 54.85928077 78.01752997 56.7890625 79.18359375 C57.77438965 79.77624023 58.7597168 80.36888672 59.77490234 80.97949219 C64.18004691 83.66680046 68.4956513 86.48428773 72.80859375 89.31640625 C81.48989911 94.99345947 90.23066344 100.56757442 99.01757812 106.07958984 C102.04954704 107.98373296 105.07734916 109.89442932 108.10546875 111.8046875 C110.29801614 113.18384965 112.49072265 114.56275886 114.68359375 115.94140625 C115.7293457 116.60188965 116.77509766 117.26237305 117.85253906 117.94287109 C118.82803711 118.55469238 119.80353516 119.16651367 120.80859375 119.796875 C121.67742187 120.3436792 122.54625 120.8904834 123.44140625 121.45385742 C125.72973952 122.88167009 125.72973952 122.88167009 128.68359375 123.75390625 C130.9490851 122.6444802 130.9490851 122.6444802 133.30859375 121.00390625 C144.30604518 114.17407691 155.9330491 112.44242158 168.74609375 114.75390625 C182.47395521 118.17048163 193.1070388 125.62019543 200.99609375 137.31640625 C208.01443827 149.82821821 209.16214573 163.77496573 205.71484375 177.484375 C201.39024926 191.19530526 192.19708248 201.08686774 179.85546875 208.125 C168.11414626 214.15471857 154.39209312 214.68060371 141.68359375 211.19140625 C135.57782943 209.00254734 130.65356233 205.88556688 125.68359375 201.75390625 C124.98621094 201.20347656 124.28882813 200.65304687 123.5703125 200.0859375 C114.04382274 191.70632612 108.87931384 178.93953632 107.71484375 166.52734375 C107.66200255 160.14676851 108.52721493 154.02503752 109.68359375 147.75390625 C99.62151848 141.21489182 89.52564163 134.73165914 79.3972168 128.29589844 C69.2386399 121.83965513 59.10265937 115.34826852 48.96679688 108.85644531 C43.75020383 105.51577761 38.5325043 102.1768392 33.31484985 98.83782959 C30.63433337 97.12242654 27.95388824 95.40691201 25.2734375 93.69140625 C24.38519287 93.12292969 23.49694824 92.55445313 22.58178711 91.96875 C21.9553833 91.56785156 21.32897949 91.16695312 20.68359375 90.75390625 C19.64847656 91.34945312 18.61335937 91.945 17.546875 92.55859375 C1.46313149 101.7342906 -12.02625188 105.35162529 -30.36889648 100.66723633 C-46.86165866 95.97514171 -56.64865926 84.19553244 -64.75390625 69.69140625 C-70.30790324 57.4878991 -69.07238726 42.8611916 -64.55078125 30.57421875 C-58.46017883 16.65834866 -48.69967091 6.17326972 -34.40625 0.49609375 C-23.05875848 -3.53385651 -11.55221852 -3.39192799 0 0 Z " fill="#F136A3" transform="translate(524.31640625,502.24609375)"/>
<path d="M0 0 C2.87706893 0.80825954 5.73077037 1.30729713 8.68359375 1.75390625 C8.68359375 2.41390625 8.68359375 3.07390625 8.68359375 3.75390625 C10.20760591 4.8744745 10.20760591 4.8744745 12.18359375 5.94140625 C25.48263843 14.00996246 32.42251065 24.89293875 36.68359375 39.75390625 C38.44317336 48.40793931 38.57145574 57.35435338 35.68359375 65.75390625 C35.42707031 66.54410156 35.17054688 67.33429688 34.90625 68.1484375 C32.56883855 74.67914502 29.12757106 79.4862169 24.68359375 84.75390625 C23.94109375 85.78515625 23.19859375 86.81640625 22.43359375 87.87890625 C12.8426772 97.90577355 -0.31157659 102.59259002 -13.94140625 103.12890625 C-27.43624828 102.83403181 -40.79104169 98.63292048 -50.86328125 89.42578125 C-61.27069937 78.09031311 -68.19334129 65.86896772 -68.3515625 50.29296875 C-67.71549509 36.23743029 -62.83586821 21.63036931 -52.31640625 11.75390625 C-36.67138922 -1.0624917 -19.8621503 -5.83186541 0 0 Z " fill="#FA9C18" transform="translate(524.31640625,502.24609375)"/>
<path d="M0 0 C9.68482863 10.16354639 14.53871746 23.06496392 14.7421875 36.96875 C14.06973347 51.09028453 7.05359335 63.54415983 -3.2578125 72.96875 C-15.40699896 82.83329155 -29.01274506 85.41236455 -44.2578125 83.96875 C-56.51870473 81.06617143 -66.9143783 74.17791461 -74.2578125 63.96875 C-82.23047834 50.97393245 -84.95060914 37.9938289 -81.79589844 22.97070312 C-78.15427312 9.42200641 -68.54369914 -0.67504292 -56.5625 -7.5859375 C-36.89189782 -17.50931591 -16.66806518 -14.99549116 0 0 Z " fill="#F32C38" transform="translate(631.2578125,771.03125)"/>
<path d="M0 0 C2.61307232 1.86711079 4.7164063 3.7164063 7 6 C7 6.66 7 7.32 7 8 C7.66 8 8.32 8 9 8 C17.98949956 20.60696083 20.46987886 32.83275119 19 48 C16.99029212 58.8546934 12.19520218 67.60432974 4 75 C3.24976563 75.72123047 3.24976563 75.72123047 2.484375 76.45703125 C-8.05513433 86.18391486 -20.28547766 88.70278981 -34.1953125 88.37109375 C-45.272483 87.7595643 -54.92203856 82.41108924 -63 75 C-73.08468689 63.50617336 -77.56664328 51.30049895 -76.875 36 C-75.49321246 21.88713629 -70.06628436 10.81155007 -59.125 1.625 C-40.28465239 -12.49802555 -19.88106163 -11.71965991 0 0 Z " fill="#0AC2B0" transform="translate(314,767)"/>
<path d="M0 0 C1.82873344 0.24153083 3.65719909 0.4852371 5.484375 0.73828125 C12.74844112 1.49401484 19.79800082 1.06959858 27 0 C26.87485016 1.02743317 26.74970032 2.05486633 26.62075806 3.11343384 C25.07773202 16.25544404 24.1382603 29.40332607 23.625 42.625 C23.58380413 43.67680576 23.54260826 44.72861153 23.50016403 45.81229019 C22.58892771 73.14849562 24.99645301 94.40901604 43.91571045 115.15184784 C56.65935737 128.64889387 71.14970753 140.83480752 86.07645607 151.8502903 C87.41862343 152.85594924 88.71499297 153.9222616 90 155 C90 155.66 90 156.32 90 157 C89.34515625 157.18433594 88.6903125 157.36867188 88.015625 157.55859375 C80.63728342 159.90340569 75.41365489 163.32283077 69.43359375 168.07421875 C67 170 67 170 65 171 C64.60970612 170.54109879 64.21941223 170.08219757 63.81729126 169.60939026 C56.10298595 160.65540722 47.69401868 152.35614379 39.375 143.9699707 C37.36315179 141.94016322 35.36021124 139.90212665 33.36425781 137.85668945 C30.93791442 135.37031521 28.49731202 132.89883855 26.04564285 130.43744087 C24.66815291 129.04724107 23.30542378 127.64246548 21.94296265 126.23753357 C21.10504181 125.40238724 20.26712097 124.56724091 19.40380859 123.70678711 C18.6721347 122.96480576 17.94046082 122.2228244 17.18661499 121.45835876 C15.07056086 119.75187897 15.07056086 119.75187897 12.34976196 120.01832581 C9.42336676 121.24090354 9.18956405 122.13783826 8 125 C6.44421387 126.80975342 6.44421387 126.80975342 4.59179688 128.66699219 C3.897677 129.36741638 3.20355713 130.06784058 2.48840332 130.78948975 C1.73941772 131.53442688 0.99043213 132.27936401 0.21875 133.046875 C-0.55053833 133.81807678 -1.31982666 134.58927856 -2.11242676 135.3838501 C-3.73736827 137.01015129 -5.36483299 138.63393476 -6.99462891 140.25537109 C-9.49745175 142.74746268 -11.98940563 145.25006592 -14.48046875 147.75390625 C-16.05925468 149.33137112 -17.63866061 150.90821577 -19.21875 152.484375 C-20.34222839 153.61392609 -20.34222839 153.61392609 -21.48840332 154.76629639 C-22.52958313 155.79801971 -22.52958313 155.79801971 -23.59179688 156.85058594 C-24.20309448 157.46029236 -24.81439209 158.06999878 -25.44421387 158.69818115 C-27 160 -27 160 -29 160 C-29.226875 160.556875 -29.45375 161.11375 -29.6875 161.6875 C-31.40622159 164.71572375 -33.32788397 166.77323664 -36 169 C-39.51624054 168.70578395 -41.4035855 167.01202778 -44 164.75 C-49.17607611 160.55902018 -54.78982499 158.28021654 -61 156 C-60.46115292 152.1775535 -58.94772136 150.76475982 -56 148.375 C-53.04427685 146.05444701 -53.04427685 146.05444701 -51 143 C-50.34 143 -49.68 143 -49 143 C-48.67 142.01 -48.34 141.02 -48 140 C-45.52821322 137.31634578 -42.96838326 134.97456914 -40.125 132.6875 C-37.83429894 130.82662282 -36.06633661 128.88947072 -34.23144531 126.58300781 C-31.39489878 123.27006046 -28.37121407 120.64642228 -24.92789078 118.01097488 C-13.61341832 109.3041701 -1.49611762 99.66323723 1.0182724 84.89513397 C2.41934959 72.77677932 1.70523809 60.55885342 0.9329834 48.41931152 C0.62441085 43.07476914 0.48291624 37.72582495 0.328125 32.375 C0.06631941 23.78971083 -0.28267581 15.21460878 -0.80227661 6.64071655 C-0.90607907 4.76218867 -0.95878501 2.88094213 -1 1 C-0.67 0.67 -0.34 0.34 0 0 Z " fill="#345576" transform="translate(496,603)"/>
<path d="M0 0 C1.86937729 0.00382187 1.86937729 0.00382187 3.77651978 0.00772095 C11.31016421 0.02575138 18.84360921 0.06009877 26.37713623 0.10540771 C29.66174379 0.12380551 32.94631718 0.13616004 36.23095703 0.14697266 C40.84483545 0.16514536 45.45760283 0.20979698 50.07098389 0.27960205 C51.71725778 0.30133943 53.36366115 0.31495737 55.0100708 0.32000732 C57.26169762 0.32913641 59.51065026 0.36921037 61.76171875 0.41796875 C63.00139404 0.4336792 64.24106934 0.44938965 65.51831055 0.46557617 C70.00144628 1.3462911 71.63812428 2.93306856 74.875 6.125 C77.75937792 10.5477128 78.43707435 13.87897274 77.875 19.125 C76.12517066 23.82191034 74.19584759 26.56776367 69.875 29.125 C65.91738419 30.3393917 61.91951073 31.25156371 57.875 32.125 C57.15441406 32.33769531 56.43382812 32.55039062 55.69140625 32.76953125 C53.875 33.125 53.875 33.125 50.875 32.125 C50.545 32.455 50.215 32.785 49.875 33.125 C43.41346154 33.48397436 43.41346154 33.48397436 39.875 31.125 C39.875 31.785 39.875 32.445 39.875 33.125 C34.595 32.465 29.315 31.805 23.875 31.125 C23.545 31.785 23.215 32.445 22.875 33.125 C22.875 32.465 22.875 31.805 22.875 31.125 C18.74526372 31.69239868 18.74526372 31.69239868 14.875 33.125 C14.215 32.465 13.555 31.805 12.875 31.125 C10.29145782 30.95812552 10.29145782 30.95812552 7.875 31.125 C7.875 31.785 7.875 32.445 7.875 33.125 C7.03195312 32.87943359 7.03195312 32.87943359 6.171875 32.62890625 C3.74440944 32.09635003 1.60610319 32.02601319 -0.875 32.0625 C-2.07382812 32.07603516 -2.07382812 32.07603516 -3.296875 32.08984375 C-3.90015625 32.10144531 -4.5034375 32.11304688 -5.125 32.125 C-5.125 32.455 -5.125 32.785 -5.125 33.125 C-9.085 33.125 -13.045 33.125 -17.125 33.125 C-17.125 32.465 -17.125 31.805 -17.125 31.125 C-21.06248458 31.09601184 -24.99994179 31.07820536 -28.9375 31.0625 C-30.05705078 31.05412109 -31.17660156 31.04574219 -32.33007812 31.03710938 C-33.40322266 31.03388672 -34.47636719 31.03066406 -35.58203125 31.02734375 C-36.57178955 31.02210693 -37.56154785 31.01687012 -38.58129883 31.01147461 C-41.24892734 31.01430041 -41.24892734 31.01430041 -44.125 32.125 C-45.115 31.465 -46.105 30.805 -47.125 30.125 C-47.125 29.465 -47.125 28.805 -47.125 28.125 C-47.90875 27.361875 -48.6925 26.59875 -49.5 25.8125 C-52.13979902 23.10984862 -53.27992427 21.75882563 -54.125 18.125 C-53.93809777 12.23757989 -53.00348698 8.75763723 -49.125 4.125 C-45.09724502 1.14336862 -41.97046251 0.66669699 -37.0078125 0.4453125 C-36.28014679 0.41229034 -35.55248108 0.37926819 -34.80276489 0.34524536 C-23.21082982 -0.11316089 -11.5985182 -0.02800305 0 0 Z M42.875 31.125 C46.875 32.125 46.875 32.125 46.875 32.125 Z " fill="#355577" transform="translate(497.125,454.875)"/>
<path d="M0 0 C1.98 0 3.96 0 6 0 C6.0827417 0.60271729 6.1654834 1.20543457 6.25073242 1.82641602 C7.23715508 4.68797382 8.40379309 5.25228675 10.98828125 6.77734375 C11.82955566 7.28402588 12.67083008 7.79070801 13.53759766 8.31274414 C14.91117432 9.11699829 14.91117432 9.11699829 16.3125 9.9375 C18.24472694 11.09950745 20.17568702 12.26362372 22.10546875 13.4296875 C23.0907959 14.02233398 24.07612305 14.61498047 25.09130859 15.22558594 C29.49645316 17.91289421 33.81205755 20.73038148 38.125 23.5625 C47.68473104 29.81399095 57.32268888 35.93243741 67 42 C68.03463379 42.6492041 69.06926758 43.2984082 70.13525391 43.96728516 C73.44338069 46.0422193 76.75266793 48.11528726 80.0625 50.1875 C81.11663086 50.8479834 82.17076172 51.5084668 83.25683594 52.18896484 C84.23555664 52.80078613 85.21427734 53.41260742 86.22265625 54.04296875 C87.09672119 54.58977295 87.97078613 55.13657715 88.87133789 55.69995117 C90.94623033 57.00833477 90.94623033 57.00833477 93 58 C91.53191464 61.3523805 89.62540476 63.65640966 87.125 66.3125 C82.94468736 70.92525878 79.01573462 75.65165861 78 82 C74.4785594 81.34582135 71.97308883 79.91166938 68.95703125 78.0078125 C67.97460449 77.39091553 66.99217773 76.77401855 65.97998047 76.13842773 C64.93471191 75.47399658 63.88944336 74.80956543 62.8125 74.125 C61.7311377 73.4431665 60.64977539 72.76133301 59.53564453 72.05883789 C52.09084729 67.35514493 44.68581224 62.59184313 37.3046875 57.7890625 C32.39107312 54.59670491 27.44537876 51.45533294 22.5 48.3125 C21.59668945 47.7364502 20.69337891 47.16040039 19.76269531 46.56689453 C15.12566809 43.6115776 10.48049051 40.67084486 5.81341553 37.76325989 C3.48131528 36.30827433 1.1545127 34.84494777 -1.17163086 33.38046265 C-2.85254873 32.32657629 -4.54049775 31.28393146 -6.22851562 30.24145508 C-7.24365234 29.60103271 -8.25878906 28.96061035 -9.3046875 28.30078125 C-10.21202637 27.73528564 -11.11936523 27.16979004 -12.05419922 26.5871582 C-12.69631348 26.063396 -13.33842773 25.53963379 -14 25 C-14 21.12384881 -12.89851913 20.54318122 -10.25 17.8125 C-6.55635142 13.79908326 -4.07381509 10.02081548 -2 5 C-1.5875 4.01 -1.175 3.02 -0.75 2 C-0.5025 1.34 -0.255 0.68 0 0 Z " fill="#355476" transform="translate(559,568)"/>
<path d="M0 0 C2.93473964 1.30563097 3.48930529 3.57821341 4.77148438 6.44091797 C7.72134929 12.70565634 10.83319704 17.95924554 15.83398438 22.81591797 C9.89383094 27.1889455 3.76851675 31.1299796 -2.54101562 34.94091797 C-11.84784481 40.56438863 -20.94906886 46.48031542 -30.046875 52.43408203 C-33.45885926 54.65894734 -36.89962112 56.83743369 -40.34179688 59.01513672 C-43.34526132 60.93020879 -46.3326232 62.86888001 -49.3190918 64.81030273 C-55.37148658 68.74126697 -61.42939319 72.66501025 -67.54101562 76.50341797 C-68.559375 77.14666016 -69.57773437 77.78990234 -70.62695312 78.45263672 C-73.16601562 79.81591797 -73.16601562 79.81591797 -76.16601562 79.81591797 C-76.54113281 79.09146484 -76.91625 78.36701172 -77.30273438 77.62060547 C-81.01284417 70.61158193 -84.41449505 64.31693169 -91.16601562 59.81591797 C-90.80512577 57.24825857 -90.50717966 56.10277203 -88.48974609 54.40649414 C-87.76158691 53.97828369 -87.03342773 53.55007324 -86.28320312 53.10888672 C-85.45715576 52.61235596 -84.6311084 52.1158252 -83.7800293 51.60424805 C-82.87615479 51.07597412 -81.97228027 50.5477002 -81.04101562 50.00341797 C-79.11623833 48.84722359 -77.19311906 47.68826548 -75.27148438 46.52685547 C-74.26778809 45.92196289 -73.2640918 45.31707031 -72.22998047 44.69384766 C-67.20143716 41.61181139 -62.27948326 38.37098327 -57.35351562 35.12841797 C-49.04211182 29.67539693 -40.6736537 24.33631538 -32.22607422 19.09765625 C-28.21678806 16.60313713 -24.22264135 14.08461334 -20.22851562 11.56591797 C-19.45926758 11.08227783 -18.69001953 10.5986377 -17.89746094 10.1003418 C-17.15206055 9.63007568 -16.40666016 9.15980957 -15.63867188 8.67529297 C-14.90535645 8.21445312 -14.17204102 7.75361328 -13.41650391 7.27880859 C-11.83413216 6.25021546 -10.27686331 5.18247076 -8.73974609 4.08740234 C-7.55662842 3.24918945 -7.55662842 3.24918945 -6.34960938 2.39404297 C-5.64247803 1.87745117 -4.93534668 1.36085938 -4.20678711 0.82861328 C-2.16601562 -0.18408203 -2.16601562 -0.18408203 0 0 Z " fill="#345576" transform="translate(458.166015625,568.18408203125)"/>
<path d="M0 0 C1.175625 0.433125 2.35125 0.86625 3.5625 1.3125 C10.21770656 3.55223298 17.11029823 4.72009493 24 6 C23.47819177 12.04448908 21.57789627 16.78288841 19.03515625 22.2578125 C18.64178574 23.1238913 18.24841522 23.98997009 17.84312439 24.8822937 C16.59133251 27.63379511 15.32731607 30.37946479 14.0625 33.125 C12.80401986 35.87887333 11.5480445 38.63387709 10.29258728 41.38912964 C9.51252052 43.09864039 8.73020113 44.80712554 7.94532776 46.51443481 C6.20301355 50.31077619 4.49765755 54.09832437 3 58 C-0.33642932 57.30782702 -3.12936386 56.04964557 -6.1875 54.5625 C-11.11052386 52.27302923 -15.66711827 50.9616672 -21 50 C-20.4122519 44.81538454 -18.73501103 40.73432252 -16.54296875 36.07421875 C-16.19873367 35.32719193 -15.8544986 34.5801651 -15.49983215 33.8105011 C-14.40250191 31.43295999 -13.29529732 29.06017938 -12.1875 26.6875 C-11.45439757 25.10513283 -10.72196924 23.52245317 -9.99023438 21.93945312 C-8.93314413 19.65320907 -7.87545597 17.36726351 -6.81466675 15.08273315 C-4.49092438 10.07744978 -2.21591322 5.05414328 0 0 Z " fill="#325374" transform="translate(312,709)"/>
<path d="M0 0 C-0.33 0.66 -0.66 1.32 -1 2 C-1.91289795 2.0093457 -2.8257959 2.01869141 -3.76635742 2.02832031 C-7.16816048 2.07245181 -10.56872167 2.134114 -13.9699707 2.20751953 C-15.4392545 2.23566611 -16.90868795 2.25691209 -18.37817383 2.27099609 C-20.49638114 2.2925153 -22.61280153 2.33920334 -24.73046875 2.390625 C-26.00301514 2.41157227 -27.27556152 2.43251953 -28.58666992 2.45410156 C-32.52710724 3.08430096 -34.17433638 4.24404581 -37 7 C-39.52481154 10.48664451 -39.43474022 13.79751118 -39 18 C-36.97333762 21.70390021 -35.51955484 23.65363011 -32 26 C-29.82482534 26.31030062 -29.82482534 26.31030062 -27.38728333 26.2784729 C-26.44077408 26.28963638 -25.49426483 26.30079987 -24.51907349 26.31230164 C-23.4825766 26.31446182 -22.44607971 26.31662201 -21.37817383 26.31884766 C-20.28533585 26.32889328 -19.19249786 26.3389389 -18.06654358 26.34928894 C-14.44671159 26.38023188 -10.82695393 26.39718708 -7.20703125 26.4140625 C-4.7002447 26.43276519 -2.19346451 26.45233792 0.31330872 26.4727478 C6.24180917 26.51891121 12.17032396 26.55628536 18.09890777 26.58942068 C25.51066722 26.63138258 32.92231398 26.68695633 40.33398438 26.7421875 C53.55592836 26.83906606 66.77792145 26.92381093 80 27 C80 27.66 80 28.32 80 29 C79.32453125 29.13277344 78.6490625 29.26554687 77.953125 29.40234375 C76.61507812 29.66724609 76.61507812 29.66724609 75.25 29.9375 C73.92742187 30.19853516 73.92742187 30.19853516 72.578125 30.46484375 C70.05696283 30.95187291 70.05696283 30.95187291 67.859375 31.62890625 C66 32 66 32 63 31 C62.67 31.33 62.34 31.66 62 32 C55.53846154 32.35897436 55.53846154 32.35897436 52 30 C52 30.66 52 31.32 52 32 C46.72 31.34 41.44 30.68 36 30 C35.67 30.66 35.34 31.32 35 32 C35 31.34 35 30.68 35 30 C30.87026372 30.56739868 30.87026372 30.56739868 27 32 C26.34 31.34 25.68 30.68 25 30 C22.41645782 29.83312552 22.41645782 29.83312552 20 30 C20 30.66 20 31.32 20 32 C19.15695312 31.75443359 19.15695312 31.75443359 18.296875 31.50390625 C15.86940944 30.97135003 13.73110319 30.90101319 11.25 30.9375 C10.05117188 30.95103516 10.05117188 30.95103516 8.828125 30.96484375 C8.22484375 30.97644531 7.6215625 30.98804688 7 31 C7 31.33 7 31.66 7 32 C3.04 32 -0.92 32 -5 32 C-5 31.34 -5 30.68 -5 30 C-8.93748458 29.97101184 -12.87494179 29.95320536 -16.8125 29.9375 C-17.93205078 29.92912109 -19.05160156 29.92074219 -20.20507812 29.91210938 C-21.27822266 29.90888672 -22.35136719 29.90566406 -23.45703125 29.90234375 C-24.44678955 29.89710693 -25.43654785 29.89187012 -26.45629883 29.88647461 C-29.12392734 29.88930041 -29.12392734 29.88930041 -32 31 C-32.99 30.34 -33.98 29.68 -35 29 C-35 28.34 -35 27.68 -35 27 C-35.78375 26.236875 -36.5675 25.47375 -37.375 24.6875 C-40.01479902 21.98484862 -41.15492427 20.63382563 -42 17 C-41.81309777 11.11257989 -40.87848698 7.63263723 -37 3 C-32.90112433 -0.09278801 -29.11811667 -0.56460779 -24.125 -0.75 C-23.01910522 -0.80401978 -23.01910522 -0.80401978 -21.89086914 -0.85913086 C-14.54800718 -1.14857815 -7.31094095 -0.6917193 0 0 Z M55 30 C59 31 59 31 59 31 Z " fill="#1C3659" transform="translate(485,456)"/>
<path d="M0 0 C-0.07447357 1.65440094 -0.07447357 1.65440094 -0.15045166 3.34222412 C-0.6051172 13.86896357 -0.90368476 24.39083408 -1.05958939 34.92634201 C-1.1444717 40.34130265 -1.27925809 45.74421601 -1.53955078 51.15380859 C-3.37752738 79.78383453 -3.37752738 79.78383453 9.25485611 104.33130264 C15.28940072 110.54447066 21.95299821 115.98257274 29 121 C28.505 122.485 28.505 122.485 28 124 C23.88508307 119.90975967 19.77342906 115.81627791 15.66479492 111.71972656 C14.26595345 110.32592098 12.86621674 108.93301328 11.46557617 107.54101562 C9.45517001 105.54270748 7.44798114 103.54121682 5.44140625 101.5390625 C4.81222794 100.91504547 4.18304962 100.29102844 3.5348053 99.64810181 C2.95427902 99.06765106 2.37375275 98.48720032 1.77563477 97.88916016 C1.26267349 97.37841949 0.74971222 96.86767883 0.22120667 96.34146118 C-2.90635958 92.9059176 -2.13213279 88.78615292 -2.11352539 84.41943359 C-2.11367142 83.53156662 -2.11381744 82.64369965 -2.1139679 81.72892761 C-2.11326955 78.78540631 -2.10548081 75.84194779 -2.09765625 72.8984375 C-2.09579179 70.86105382 -2.09436802 68.82366969 -2.09336853 66.7862854 C-2.08954555 61.41702034 -2.07971711 56.04778223 -2.06866455 50.67852783 C-2.05844574 45.2023556 -2.0538699 39.72617902 -2.04882812 34.25 C-2.03809467 23.49998815 -2.02102085 12.74999631 -2 2 C-2.87180908 2.24230347 -2.87180908 2.24230347 -3.76123047 2.48950195 C-7.18978784 3.27130277 -10.62693373 3.18437114 -14.125 3.1875 C-14.85332031 3.19974609 -15.58164062 3.21199219 -16.33203125 3.22460938 C-18.22282978 3.22985188 -20.11315581 3.12233385 -22 3 C-22.66 2.34 -23.32 1.68 -24 1 C-22.81921875 1.01160156 -21.6384375 1.02320313 -20.421875 1.03515625 C-18.86458492 1.04453752 -17.30729312 1.05363736 -15.75 1.0625 C-14.97269531 1.07087891 -14.19539063 1.07925781 -13.39453125 1.08789062 C-12.64042969 1.09111328 -11.88632812 1.09433594 -11.109375 1.09765625 C-10.41811523 1.10289307 -9.72685547 1.10812988 -9.01464844 1.11352539 C-5.89007753 0.9374559 -3.16324114 0 0 0 Z " fill="#253D5D" transform="translate(523,603)"/>
<path d="M0 0 C33.66 0 67.32 0 102 0 C101.01 0.66 100.02 1.32 99 2 C98.34 2.66 97.68 3.32 97 4 C94.66055264 3.71269945 92.3260857 3.38063221 90 3 C89.67 3.33 89.34 3.66 89 4 C82.53846154 4.35897436 82.53846154 4.35897436 79 2 C79 2.66 79 3.32 79 4 C73.72 3.34 68.44 2.68 63 2 C62.67 2.66 62.34 3.32 62 4 C62 3.34 62 2.68 62 2 C57.87026372 2.56739868 57.87026372 2.56739868 54 4 C53.34 3.34 52.68 2.68 52 2 C49.41645782 1.83312552 49.41645782 1.83312552 47 2 C47 2.66 47 3.32 47 4 C46.43796875 3.83628906 45.8759375 3.67257812 45.296875 3.50390625 C42.86940944 2.97135003 40.73110319 2.90101319 38.25 2.9375 C37.05117188 2.95103516 37.05117188 2.95103516 35.828125 2.96484375 C34.92320312 2.98224609 34.92320312 2.98224609 34 3 C34 3.33 34 3.66 34 4 C30.04 4 26.08 4 22 4 C22 3.34 22 2.68 22 2 C15.07 2 8.14 2 1 2 C0.67 1.34 0.34 0.68 0 0 Z M82 2 C86 3 86 3 86 3 Z " fill="#5F5E58" transform="translate(458,484)"/>
<path d="M0 0 C2.4643387 3.69650805 2.31648571 6.55183485 2.33813477 10.83276367 C2.34967087 11.62989777 2.36120697 12.42703186 2.37309265 13.24832153 C2.40742918 15.88822382 2.42590978 18.52789204 2.44140625 21.16796875 C2.44830915 22.070935 2.45521206 22.97390125 2.46232414 23.90423012 C2.49817523 28.68558556 2.52170424 33.4668228 2.53540039 38.24829102 C2.55192711 43.1771075 2.61031512 48.10448382 2.67854404 53.03281689 C2.72342342 56.83080808 2.73690196 60.62845746 2.74201775 64.42669106 C2.74989371 66.24274883 2.76948545 68.05879653 2.80124092 69.87459373 C3.06227576 85.85887163 3.06227576 85.85887163 -1.25830078 90.88208008 C-2.47297141 91.95926339 -3.717872 93.00406004 -5 94 C-5.80751709 94.84498047 -6.61503418 95.68996094 -7.44702148 96.56054688 C-8.16446533 97.27275391 -8.88190918 97.98496094 -9.62109375 98.71875 C-10.80541992 99.89824219 -10.80541992 99.89824219 -12.01367188 101.1015625 C-12.81353516 101.89304687 -13.61339844 102.68453125 -14.4375 103.5 C-15.26443359 104.32242188 -16.09136719 105.14484375 -16.94335938 105.9921875 C-18.95994959 107.99712113 -20.97885236 109.99966253 -23 112 C-23.33 111.01 -23.66 110.02 -24 109 C-23.31340805 108.53597275 -22.6268161 108.0719455 -21.91941833 107.59385681 C-12.62489617 100.94238735 -2.29784983 92.91317897 0.2946167 81.21905518 C2.22081258 69.14727157 1.53274146 56.71843462 1.04284668 44.55438232 C0.86557872 39.51991057 0.82290071 34.48429178 0.76757812 29.44726562 C0.64051941 19.62603028 0.36861698 9.81493861 0 0 Z " fill="#203A56" transform="translate(496,610)"/>
<path d="M0 0 C0.99 0.495 0.99 0.495 2 1 C-0.62971817 3.93104005 -3.68468417 5.83806061 -7 7.9375 C-7.61319092 8.32736084 -8.22638184 8.71722168 -8.8581543 9.11889648 C-10.90268184 10.41700518 -12.95096984 11.70901169 -15 13 C-16.42322601 13.89836 -17.84640205 14.79679916 -19.26953125 15.6953125 C-21.5776974 17.15229194 -23.8861017 18.60888566 -26.1953125 20.06420898 C-32.9829815 24.34591869 -39.74355723 28.66922337 -46.5 33 C-54.23699518 37.95820273 -61.98118588 42.90427204 -69.75 47.8125 C-70.51763672 48.29783203 -71.28527344 48.78316406 -72.07617188 49.28320312 C-74.04785634 50.52688102 -76.02331124 51.76429889 -78 53 C-78.95390625 53.60199219 -79.9078125 54.20398438 -80.890625 54.82421875 C-83 56 -83 56 -85 56 C-85 55.34 -85 54.68 -85 54 C-82.50961353 52.34906964 -80.01432577 50.81893123 -77.4375 49.3125 C-69.96863834 44.8539622 -62.64359894 40.21533371 -55.375 35.4375 C-47.00072244 29.94310494 -38.57159003 24.5600564 -30.06005859 19.28173828 C-26.05077243 16.78721916 -22.05662573 14.26869537 -18.0625 11.75 C-17.29325195 11.26635986 -16.52400391 10.78271973 -15.73144531 10.28442383 C-10.43038775 6.94003635 -5.20015662 3.49908453 0 0 Z " fill="#2C445A" transform="translate(456,568)"/>
<path d="M0 0 C5.82482393 1.51951928 10.25354517 4.56543577 15.1875 7.875 C16.98887024 9.06488234 18.79097033 10.2536604 20.59375 11.44140625 C21.50125 12.04098145 22.40875 12.64055664 23.34375 13.25830078 C27.26044443 15.82647156 31.22041683 18.32314036 35.1875 20.8125 C51.53180502 31.09225324 67.76688766 41.54575949 84 52 C81 53 81 53 79.27685547 52.27832031 C78.64666504 51.88225586 78.01647461 51.48619141 77.3671875 51.078125 C76.29549316 50.4142981 76.29549316 50.4142981 75.20214844 49.73706055 C74.43418945 49.24633057 73.66623047 48.75560059 72.875 48.25 C72.07094727 47.74702393 71.26689453 47.24404785 70.43847656 46.72583008 C67.95053402 45.1634353 65.47350673 43.58513459 63 42 C62.2894043 41.5447998 61.57880859 41.08959961 60.84667969 40.62060547 C57.39726427 38.40430245 53.95830393 36.17236266 50.5234375 33.93359375 C45.4997562 30.66497347 40.43662623 27.4594082 35.375 24.25 C27.29322773 19.11317711 19.22723352 13.95240216 11.1875 8.75 C10.18444824 8.10579102 9.18139648 7.46158203 8.14794922 6.79785156 C7.22643066 6.1994043 6.30491211 5.60095703 5.35546875 4.984375 C4.53715576 4.45553711 3.71884277 3.92669922 2.87573242 3.38183594 C1 2 1 2 0 0 Z " fill="#2E4260" transform="translate(546,592)"/>
<path d="M0 0 C4.22218397 0.51101271 6.15304372 1.65734366 9.12841797 4.65844727 C10.29520584 5.82084679 10.29520584 5.82084679 11.48556519 7.00672913 C12.31275055 7.85142258 13.13993591 8.69611603 13.9921875 9.56640625 C14.85635284 10.43385971 15.72051819 11.30131317 16.61087036 12.1950531 C19.37504534 14.97498906 22.1247828 17.76876214 24.875 20.5625 C26.71918653 22.4181783 28.56422929 24.27300609 30.41015625 26.12695312 C32.18827107 27.91850587 33.96563887 29.71080041 35.7421875 31.50390625 C36.5653244 32.33443008 37.3884613 33.16495392 38.23654175 34.02064514 C42.5053747 38.35935066 46.63795679 42.76617644 50.59890747 47.38853455 C51.68389714 48.63643455 52.83071453 49.83071453 54 51 C53.67 51.99 53.34 52.98 53 54 C52.61174545 53.54069092 52.22349091 53.08138184 51.82347107 52.6081543 C46.78180005 46.73681591 41.39608042 41.26711827 35.91015625 35.8125 C34.95587007 34.86008388 34.00180812 33.90744305 33.04795837 32.95458984 C30.5629203 30.47333075 28.07489204 27.99509209 25.58618164 25.51751709 C23.03672504 22.97837515 20.49017312 20.43632354 17.94335938 17.89453125 C12.96504369 12.92687118 7.98355629 7.96240314 3 3 C0.69 3.66 -1.62 4.32 -4 5 C-2.68 3.35 -1.36 1.7 0 0 Z " fill="#29415F" transform="translate(508,720)"/>
<path d="M0 0 C0 0.66 0 1.32 0 2 C-25.08 2 -50.16 2 -76 2 C-76 1.34 -76 0.68 -76 0 C-50.77926106 -2.33062934 -25.27059242 -0.82839954 0 0 Z " fill="#243857" transform="translate(562,456)"/>
<path d="M0 0 C2.94163796 1.3881887 5.52895726 3.0057878 8.1875 4.875 C19.20554329 12.17869482 29.84570307 14.36750951 43.125 12.25 C46.94291411 11.41095988 49.76669191 10.24535284 53 8 C54.134375 7.54625 55.26875 7.0925 56.4375 6.625 C60.35812771 4.8366435 62.82342652 2.86666387 66 0 C66.99 0.495 66.99 0.495 68 1 C57.33816389 11.33423779 46.05748578 15.4657002 31.34375 15.43164062 C19.16239321 15.14116212 9.00346912 10.17349 0 2 C0 1.34 0 0.68 0 0 Z " fill="#10B5A5" transform="translate(251,840)"/>
<path d="M0 0 C0.99 0.33 1.98 0.66 3 1 C-3.50948433 9.90024039 -13.29555248 16.83969668 -24.0546875 19.609375 C-32.40360057 20.7166579 -41.78360094 21.03359977 -50 19 C-50 18.01 -50 17.02 -50 16 C-48.948125 16.33 -47.89625 16.66 -46.8125 17 C-35.86732072 19.6446024 -26.8860413 18.13661154 -17 13 C-15.93007813 12.44570313 -14.86015625 11.89140625 -13.7578125 11.3203125 C-8.06834233 8.19040837 -3.68180961 5.39122121 0 0 Z " fill="#E93296" transform="translate(718,695)"/>
<path d="M0 0 C0.66 0 1.32 0 2 0 C0.71578241 7.31516348 -6.18044777 12.57264433 -11.94921875 16.68359375 C-20.24870584 22.01107403 -26.80746991 23.18091321 -36.5625 23.1875 C-37.52091797 23.19974609 -38.47933594 23.21199219 -39.46679688 23.22460938 C-40.38654297 23.22654297 -41.30628906 23.22847656 -42.25390625 23.23046875 C-43.51182983 23.23663208 -43.51182983 23.23663208 -44.79516602 23.24291992 C-47 23 -47 23 -50 21 C-48.91203125 21.03480469 -47.8240625 21.06960938 -46.703125 21.10546875 C-30.02065223 21.47868695 -17.75859294 18.65336097 -5.19921875 7.31640625 C-2.90097585 5.06432231 -2.90097585 5.06432231 -1.33203125 2.21484375 C-0.89246094 1.48394531 -0.45289063 0.75304687 0 0 Z " fill="#F0212D" transform="translate(635,831)"/>
<path d="M0 0 C0.33 0.66 0.66 1.32 1 2 C0.109375 3.69921875 0.109375 3.69921875 -1.25 5.6875 C-8.31273044 16.68266484 -10.35436328 28.92198947 -7.8984375 41.85546875 C-5.72687453 49.45593915 -2.05322823 55.96237667 3 62 C2.67 62.66 2.34 63.32 2 64 C-7.03126143 54.5486799 -10.91323459 43.57673218 -11.03125 30.55078125 C-10.51561802 18.83304447 -7.84673121 8.89296204 0 0 Z " fill="#13B6A2" transform="translate(248,776)"/>
<path d="M0 0 C0.99 0.33 1.98 0.66 3 1 C1.91847656 1.680625 0.83695312 2.36125 -0.27734375 3.0625 C-1.83073935 4.04165051 -3.38412377 5.02081875 -4.9375 6 C-5.76910645 6.52311768 -6.60071289 7.04623535 -7.45751953 7.58520508 C-12.54716515 10.79425874 -17.61105844 14.0397814 -22.65234375 17.32421875 C-23.77924166 18.05554906 -24.90627579 18.78666952 -26.03344727 19.51757812 C-28.23730387 20.94870821 -30.43712066 22.38608135 -32.63256836 23.83007812 C-33.64843018 24.48814453 -34.66429199 25.14621094 -35.7109375 25.82421875 C-36.61118652 26.41291748 -37.51143555 27.00161621 -38.43896484 27.6081543 C-41.01259712 29.00684615 -43.1145714 29.59897543 -46 30 C-36.36888959 22.12157815 -25.54612341 15.77012975 -14.97949219 9.23583984 C-13.03975048 8.02481708 -11.11604097 6.79169007 -9.1953125 5.55078125 C-8.30573853 4.98327148 -8.30573853 4.98327148 -7.39819336 4.40429688 C-5.78644771 3.3756503 -4.18014589 2.33848825 -2.57421875 1.30078125 C-1.72472656 0.87152344 -0.87523437 0.44226563 0 0 Z " fill="#29425B" transform="translate(467,593)"/>
<path d="M0 0 C5.09321167 0.5014552 8.49836019 3.02438512 12.625 5.8125 C14.13208734 6.80969057 15.63992999 7.80574035 17.1484375 8.80078125 C17.93573242 9.32236816 18.72302734 9.84395508 19.53417969 10.38134766 C23.73871637 13.1413554 27.99420145 15.81997926 32.25 18.5 C33.04744629 19.00378174 33.84489258 19.50756348 34.66650391 20.02661133 C35.42108887 20.50251709 36.17567383 20.97842285 36.953125 21.46875 C37.65501953 21.9121875 38.35691406 22.355625 39.08007812 22.8125 C40.71144416 23.82152395 42.37616564 24.77629857 44.046875 25.71875 C44.69140625 26.1415625 45.3359375 26.564375 46 27 C46 27.66 46 28.32 46 29 C40.85040314 27.78035864 37.36288051 25.23196019 33.1640625 22.1875 C29.24607081 19.478765 25.20212439 17.02257101 21.125 14.5625 C6.06679111 5.44898014 6.06679111 5.44898014 0 1 C0 0.67 0 0.34 0 0 Z " fill="#2B3F5C" transform="translate(596,593)"/>
<path d="M0 0 C3.20916732 0.58045924 4.83436488 1.46376442 7.11621094 3.77563477 C7.69651062 4.35616104 8.2768103 4.93668732 8.87469482 5.5348053 C9.48838928 6.16398361 10.10208374 6.79316193 10.734375 7.44140625 C11.37240051 8.08367661 12.01042603 8.72594696 12.66778564 9.38768005 C14.70234118 11.43901726 16.72621379 13.50054273 18.75 15.5625 C20.12821491 16.95576234 21.50711325 18.34834898 22.88671875 19.74023438 C26.26579046 23.15236865 29.63531864 26.57367707 33 30 C32.67 30.66 32.34 31.32 32 32 C25.04313737 25.88147465 18.38068694 19.53957379 11.84619141 12.9765625 C10.34524486 11.47013623 8.8388661 9.96928416 7.33203125 8.46875 C6.37467825 7.51073809 5.41763446 6.55241705 4.4609375 5.59375 C3.60290527 4.73458984 2.74487305 3.87542969 1.86083984 2.99023438 C0 1 0 1 0 0 Z " fill="#2F405D" transform="translate(553,728)"/>
<path d="M0 0 C1.32 0 2.64 0 4 0 C4.07404053 0.5969165 4.14808105 1.19383301 4.22436523 1.80883789 C5.28221399 4.7972523 6.71098483 5.44669494 9.41015625 7.05859375 C10.31830078 7.60966797 11.22644531 8.16074219 12.16210938 8.72851562 C13.11923828 9.29248047 14.07636719 9.85644531 15.0625 10.4375 C16.92839818 11.56117673 18.79428377 12.68487435 20.66015625 13.80859375 C23.25879477 15.36405455 25.85859395 16.91672289 28.46826172 18.45361328 C30.34555734 19.58197677 32.17854554 20.78355162 34 22 C34 22.66 34 23.32 34 24 C29.75161969 22.46096412 25.97274153 20.33690374 22.125 18 C21.48167725 17.61207275 20.83835449 17.22414551 20.17553711 16.82446289 C12.97016878 12.43839676 5.97590708 7.73965885 -1 3 C-0.67 2.01 -0.34 1.02 0 0 Z " fill="#2B415B" transform="translate(561,568)"/>
<path d="M0 0 C9.61546132 2.91377616 15.44007503 11.59716674 20.10546875 19.98828125 C21.87538069 23.73584127 22.30078581 26.88926058 22 31 C19.86317213 28.57178651 18.97455089 26.90126686 18.15625 23.7265625 C15.48951766 15.13175624 8.92987446 7.90810638 1.43359375 3.0859375 C0.96050781 2.72757813 0.48742187 2.36921875 0 2 C0 1.34 0 0.68 0 0 Z " fill="#F1202E" transform="translate(621,765)"/>
<path d="M0 0 C0.66 0.33 1.32 0.66 2 1 C-3.6675961 5.40508075 -9.52836916 9.341218 -15.625 13.125 C-17.2634532 14.14774516 -18.90148384 15.17116764 -20.5390625 16.1953125 C-21.30637695 16.67129883 -22.07369141 17.14728516 -22.86425781 17.63769531 C-24.75817534 18.8457497 -26.5750825 20.11925654 -28.3984375 21.4296875 C-29.68621094 22.20699219 -29.68621094 22.20699219 -31 23 C-31.99 22.67 -32.98 22.34 -34 22 C-30.39652528 19.64477292 -26.79208989 17.29101992 -23.1875 14.9375 C-22.18267578 14.28072266 -21.17785156 13.62394531 -20.14257812 12.94726562 C-18.1158023 11.62432192 -16.08698484 10.30450086 -14.05615234 8.98779297 C-11.98157471 7.63843915 -9.91438993 6.27766407 -7.85400391 4.90673828 C-6.86706543 4.25817871 -5.88012695 3.60961914 -4.86328125 2.94140625 C-3.97552002 2.35174072 -3.08775879 1.7620752 -2.1730957 1.15454102 C-1.45597412 0.77354248 -0.73885254 0.39254395 0 0 Z " fill="#26445B" transform="translate(418,624)"/>
<path d="M0 0 C0 0.33 0 0.66 0 1 C-1.01578125 1.08636719 -2.0315625 1.17273438 -3.078125 1.26171875 C-16.92340718 2.60572419 -28.33029518 6.33029518 -38.375 16.375 C-38.91125 16.91125 -39.4475 17.4475 -40 18 C-40.66 18 -41.32 18 -42 18 C-38.53366282 9.74939535 -28.80584905 5.36413696 -21 2 C-14.20749159 -0.7431284 -7.20779649 -0.17994499 0 0 Z " fill="#15B59F" transform="translate(291,758)"/>
<path d="M0 0 C-0.61407715 -0.01571045 -1.2281543 -0.0314209 -1.86083984 -0.04760742 C-4.69879589 -0.11076194 -7.53660333 -0.14924177 -10.375 -0.1875 C-11.34050781 -0.21263672 -12.30601562 -0.23777344 -13.30078125 -0.26367188 C-20.08683298 -0.33198783 -25.61194906 0.79947964 -32 3 C-33.32965863 3.34770218 -34.66199413 3.68594716 -36 4 C-36 4.66 -36 5.32 -36 6 C-41.75 9 -41.75 9 -44 9 C-44 8.34 -44 7.68 -44 7 C-32.05756366 -0.11464292 -13.20863031 -8.80575354 0 0 Z " fill="#3CB453" transform="translate(350,619)"/>
<path d="M0 0 C0.99 0.33 1.98 0.66 3 1 C2.01 2.485 2.01 2.485 1 4 C0.75944532 6.05709596 0.75944532 6.05709596 0.875 8.1875 C0.91625 9.445625 0.9575 10.70375 1 12 C1.6290625 12.17015625 2.258125 12.3403125 2.90625 12.515625 C8.66354865 14.14570353 13.72884406 16.16919403 19 19 C19 19.66 19 20.32 19 21 C18.3090625 20.72285156 17.618125 20.44570313 16.90625 20.16015625 C13.77436002 18.90992598 10.64030274 17.66647362 7.5 16.4375 C6.3965625 16.00308594 5.293125 15.56867187 4.15625 15.12109375 C1.42080288 14.14946835 -1.14328877 13.47434198 -4 13 C-3.40895235 8.15340923 -2.02055843 4.39251833 0 0 Z " fill="#33456F" transform="translate(295,746)"/>
<path d="M0 0 C0.66 0.33 1.32 0.66 2 1 C1.855625 2.134375 1.71125 3.26875 1.5625 4.4375 C1.04453325 9.15925488 0.68662509 13.88593713 0.375 18.625 C0.32287354 19.34099365 0.27074707 20.0569873 0.21704102 20.79467773 C-0.06582173 25.36736201 0.2061522 29.48573116 1 34 C0.34 33.67 -0.32 33.34 -1 33 C-4.15734521 22.45705197 -3.69412989 10.34356369 0 0 Z " fill="#ED961E" transform="translate(459,535)"/>
<path d="M0 0 C0 0.66 0 1.32 0 2 C-1.11375 1.83628906 -2.2275 1.67257812 -3.375 1.50390625 C-8.25979515 0.89330686 -13.08395145 0.88841503 -18 0.9375 C-18.87011719 0.94201172 -19.74023438 0.94652344 -20.63671875 0.95117188 C-22.75784293 0.9628264 -24.8789311 0.98075643 -27 1 C-25 -2 -25 -2 -21.625 -2.75 C-14.29031483 -3.40703761 -6.76106739 -3.02826602 0 0 Z " fill="#E91F31" transform="translate(612,760)"/>
<path d="M0 0 C-1.45241736 3.33234574 -3.2850086 5.54225606 -5.84375 8.109375 C-6.59527344 8.86347656 -7.34679687 9.61757813 -8.12109375 10.39453125 C-8.90613281 11.17183594 -9.69117188 11.94914063 -10.5 12.75 C-11.28503906 13.54277344 -12.07007813 14.33554687 -12.87890625 15.15234375 C-13.63042969 15.90128906 -14.38195312 16.65023437 -15.15625 17.421875 C-15.84525391 18.10862305 -16.53425781 18.79537109 -17.24414062 19.50292969 C-19 21 -19 21 -21 21 C-21 21.66 -21 22.32 -21 23 C-21.99 22.67 -22.98 22.34 -24 22 C-20.90984779 18.86050859 -17.81325304 15.72756243 -14.71044922 12.60058594 C-13.65525491 11.5353174 -12.60186036 10.46826303 -11.55029297 9.39941406 C-10.04080273 7.86573784 -8.52501301 6.33854432 -7.0078125 4.8125 C-6.09660645 3.89082031 -5.18540039 2.96914063 -4.24658203 2.01953125 C-2 0 -2 0 0 0 Z " fill="#2A4663" transform="translate(488,742)"/>
<path d="M0 0 C0.33 0 0.66 0 1 0 C1.02578125 0.58007812 1.0515625 1.16015625 1.078125 1.7578125 C1.47527374 7.22763381 2.39425927 10.65190088 6 15 C9.72066472 17.48044315 12.86540474 17.44381173 17.1875 17.625 C17.93708984 17.66367187 18.68667969 17.70234375 19.45898438 17.7421875 C21.30559199 17.83628216 23.1527619 17.91922319 25 18 C25 18.33 25 18.66 25 19 C21.37 19 17.74 19 14 19 C13.67 19.66 13.34 20.32 13 21 C11.125 21.75 11.125 21.75 9 22 C8.01 21.34 7.02 20.68 6 20 C6 19.34 6 18.68 6 18 C5.21625 17.236875 4.4325 16.47375 3.625 15.6875 C0.98520098 12.98484862 -0.15492427 11.63382563 -1 8 C-0.85728936 5.26811051 -0.45882729 2.70708099 0 0 Z " fill="#36495D" transform="translate(444,465)"/>
<path d="M0 0 C0.33 0.33 0.66 0.66 1 1 C2.41120902 1.22571184 3.83176043 1.39388349 5.25390625 1.53515625 C6.10791016 1.62216797 6.96191406 1.70917969 7.84179688 1.79882812 C8.73962891 1.88583984 9.63746094 1.97285156 10.5625 2.0625 C11.91504883 2.19881836 11.91504883 2.19881836 13.29492188 2.33789062 C15.52958434 2.56253923 17.76457839 2.78305769 20 3 C19.67 3.66 19.34 4.32 19 5 C11.81592402 5.48982336 5.32486985 4.87191022 -1.625 3.125 C-2.32367188 2.95129883 -3.02234375 2.77759766 -3.7421875 2.59863281 C-8.72907759 1.27092241 -8.72907759 1.27092241 -11 -1 C-6.9957278 -2.60170888 -3.94674464 -1.34040384 0 0 Z " fill="#E79821" transform="translate(497,600)"/>
<path d="M0 0 C0.33 0 0.66 0 1 0 C1.8115949 12.51208809 -0.65886937 24.27980244 -9 34 C-9.99 34.66 -10.98 35.32 -12 36 C-11.59476318 33.26465145 -10.97756912 31.97292825 -9.1875 29.8125 C-2.38287735 21.06369944 -1.51776169 10.65882644 0 0 Z " fill="#12B2A7" transform="translate(332,803)"/>
<path d="M0 0 C4.26351315 6.39526973 2.91796354 13.21572874 1.86328125 20.4609375 C1 23 1 23 -1.08203125 24.3515625 C-1.71496094 24.56554687 -2.34789062 24.77953125 -3 25 C-2.86722656 24.45214844 -2.73445312 23.90429688 -2.59765625 23.33984375 C-0.86953605 15.58222386 -0.40125756 7.91955709 0 0 Z " fill="#F1212E" transform="translate(643,797)"/>
<path d="M0 0 C-1.38134211 4.9728316 -3.77846627 6.26841935 -8 9 C-8.804375 9.969375 -9.60875 10.93875 -10.4375 11.9375 C-13.35612887 15.42561742 -16.23236074 17.48824049 -20 20 C-17.46278732 14.00295184 -12.58752779 9.4728396 -8 5 C-7.13375 4.071875 -6.2675 3.14375 -5.375 2.1875 C-3 0 -3 0 0 0 Z " fill="#274662" transform="translate(470,724)"/>
<path d="M0 0 C4.29875977 4.07250926 6.76117439 6.4206834 7.3125 12.375 C6.85376542 17.69632107 5.35147405 20.7474143 1.4375 24.375 C-1 26 -1 26 -3 26 C-3 25.34 -3 24.68 -3 24 C-2.030625 23.195625 -1.06125 22.39125 -0.0625 21.5625 C3.19375327 19.29315623 3.19375327 19.29315623 4 16 C4.51193714 9.75436687 3.90211746 7.12152917 0 2 C0 1.34 0 0.68 0 0 Z " fill="#384C5F" transform="translate(568,458)"/>
<path d="M0 0 C3.32321576 0.60556376 5.26077027 1.76471817 7.875 3.875 C11.09372933 6.38247454 14.2621125 8.31795062 18 10 C18 10.66 18 11.32 18 12 C11.19040252 10.99117074 5.96144065 7.20064073 1.4375 2.125 C0.963125 1.42375 0.48875 0.7225 0 0 Z " fill="#EB3398" transform="translate(646,699)"/>
<path d="M0 0 C4.65231812 8.8696634 3.4788354 18.63796989 1 28 C-0.0625 26.1875 -0.0625 26.1875 -1 24 C-0.505 22.515 -0.505 22.515 0 21 C0.08143855 19.37280518 0.1075302 17.74248281 0.09765625 16.11328125 C0.09443359 15.17548828 0.09121094 14.23769531 0.08789062 13.27148438 C0.07951172 12.29501953 0.07113281 11.31855469 0.0625 10.3125 C0.05573242 8.83040039 0.05573242 8.83040039 0.04882812 7.31835938 C0.03704303 4.87884526 0.02059011 2.43945311 0 0 Z " fill="#E4369A" transform="translate(729,651)"/>
<path d="M0 0 C0.66 0.33 1.32 0.66 2 1 C-0.86999055 6.40233516 -5.03338967 13.01112989 -11 15 C-8.73612498 8.58568745 -5.52844328 3.99276459 0 0 Z " fill="#E42732" transform="translate(565,770)"/>
<path d="M0 0 C0.66 0.33 1.32 0.66 2 1 C1.52949219 1.6290625 1.05898438 2.258125 0.57421875 2.90625 C-3.25687281 8.17300941 -5.9133174 12.8497776 -8 19 C-8.66 19.66 -9.32 20.32 -10 21 C-9.8431104 12.68485117 -5.85408279 5.85408279 0 0 Z " fill="#37B650" transform="translate(300,632)"/>
<path d="M0 0 C0.99 0 1.98 0 3 0 C2.01 5.61 1.02 11.22 0 17 C-2.49729916 13.25405125 -2.2965629 11.44844343 -2 7 C-1.45980238 4.60170883 -0.76471055 2.34192605 0 0 Z " fill="#EB2431" transform="translate(551,789)"/>
<path d="M0 0 C0.33 0.66 0.66 1.32 1 2 C0.030625 2.721875 -0.93875 3.44375 -1.9375 4.1875 C-4.29913506 6.13237593 -4.93412331 6.7882535 -5.875 9.8125 C-5.91625 10.534375 -5.9575 11.25625 -6 12 C-7.32 12.33 -8.64 12.66 -10 13 C-10.33 11.68 -10.66 10.36 -11 9 C-9.54405245 7.68485396 -8.08516421 6.37296283 -6.625 5.0625 C-5.81289063 4.33160156 -5.00078125 3.60070312 -4.1640625 2.84765625 C-2 1 -2 1 0 0 Z " fill="#2B4E6E" transform="translate(446,747)"/>
<path d="M0 0 C0.66 0.33 1.32 0.66 2 1 C1.66830805 7.30214697 -1.67323988 11.85216936 -5 17 C-6.29323107 13.12030679 -5.37968538 12.10631469 -3.625 8.5 C-2.26029057 5.6638441 -0.99598687 2.98796062 0 0 Z " fill="#E93198" transform="translate(727,678)"/>
<path d="M0 0 C-2.78687098 1.84070559 -5.58025127 3.67128178 -8.375 5.5 C-9.1690625 6.02464844 -9.963125 6.54929687 -10.78125 7.08984375 C-11.54179687 7.58613281 -12.30234375 8.08242188 -13.0859375 8.59375 C-13.7876709 9.05458984 -14.4894043 9.51542969 -15.21240234 9.99023438 C-17 11 -17 11 -19 11 C-17.56619323 6.6985797 -14.34930125 5.44443029 -10.625 3.25 C-9.93921875 2.82589844 -9.2534375 2.40179687 -8.546875 1.96484375 C-3.37413436 -1.12471145 -3.37413436 -1.12471145 0 0 Z " fill="#34475D" transform="translate(470,594)"/>
<path d="M0 0 C1.21940034 4.87760136 0.3649428 5.92704618 -1.9375 10.25 C-2.50339844 11.32765625 -3.06929688 12.4053125 -3.65234375 13.515625 C-4.09707031 14.33546875 -4.54179687 15.1553125 -5 16 C-5.66 15.67 -6.32 15.34 -7 15 C-3.535 7.575 -3.535 7.575 0 0 Z " fill="#294962" transform="translate(333,720)"/>
<path d="M0 0 C0.99 0.33 1.98 0.66 3 1 C2.67 1.66 2.34 2.32 2 3 C-1.56045177 4.18681726 -4.43808337 4.09689832 -8.1875 4.0625 C-9.45980469 4.05347656 -10.73210937 4.04445313 -12.04296875 4.03515625 C-13.50669922 4.01775391 -13.50669922 4.01775391 -15 4 C-11.60932427 1.73954951 -9.88650562 1.94320862 -5.9296875 2.06640625 C-3.55942399 1.98483848 -2.04938924 1.13854958 0 0 Z " fill="#31BA50" transform="translate(352,710)"/>
<path d="M0 0 C1.32 0 2.64 0 4 0 C4.020625 0.5775 4.04125 1.155 4.0625 1.75 C5.5766255 5.38390121 8.55956175 6.24850416 12 8 C10.296875 8.68359375 10.296875 8.68359375 8 9 C5.640625 7.78515625 5.640625 7.78515625 3.25 6.0625 C2.45078125 5.49660156 1.6515625 4.93070313 0.828125 4.34765625 C0.22484375 3.90292969 -0.3784375 3.45820312 -1 3 C-0.67 2.01 -0.34 1.02 0 0 Z " fill="#4E5057" transform="translate(561,568)"/>
<path d="M0 0 C1.09731445 0.07831055 1.09731445 0.07831055 2.21679688 0.15820312 C3.99918622 0.28634876 5.7809257 0.4234816 7.5625 0.5625 C7.5625 0.8925 7.5625 1.2225 7.5625 1.5625 C4.29262965 1.78837773 1.02170719 1.99016605 -2.25 2.1875 C-3.6431543 2.28417969 -3.6431543 2.28417969 -5.06445312 2.3828125 C-5.95712891 2.434375 -6.84980469 2.4859375 -7.76953125 2.5390625 C-9.00280151 2.61761475 -9.00280151 2.61761475 -10.26098633 2.69775391 C-12.4375 2.5625 -12.4375 2.5625 -15.4375 0.5625 C-10.14096121 -0.37709624 -5.35081483 -0.42591115 0 0 Z " fill="#1E304F" transform="translate(518.4375,455.4375)"/>
<path d="M0 0 C0.66 0 1.32 0 2 0 C0.56835889 3.65938172 -0.98934296 7.23988068 -2.625 10.8125 C-3.29402344 12.27623047 -3.29402344 12.27623047 -3.9765625 13.76953125 C-4.31429688 14.50558594 -4.65203125 15.24164062 -5 16 C-6.25348607 13.04893565 -6.01044806 12.02593537 -4.78515625 8.984375 C-4.21667969 7.91703125 -3.64820313 6.8496875 -3.0625 5.75 C-2.49660156 4.67234375 -1.93070312 3.5946875 -1.34765625 2.484375 C-0.90292969 1.66453125 -0.45820313 0.8446875 0 0 Z " fill="#274361" transform="translate(311,712)"/>
<path d="M0 0 C-0.33 0.66 -0.66 1.32 -1 2 C-3.04243528 2.63385922 -5.09132519 3.01826504 -7.1875 3.4375 C-8.0846875 3.7159375 -8.0846875 3.7159375 -9 4 C-9.33 4.66 -9.66 5.32 -10 6 C-12 5 -12 5 -13 3 C-11.5903653 2.29819469 -10.17192359 1.61406042 -8.75 0.9375 C-7.96109375 0.55464844 -7.1721875 0.17179687 -6.359375 -0.22265625 C-3.74006478 -1.08564091 -2.55144824 -0.93045933 0 0 Z " fill="#F2981E" transform="translate(496,503)"/>
<path d="M0 0 C3.42009706 1.14003235 4.28869442 2.22170198 6.5625 4.9375 C8.33130568 7.03343963 10.05994888 9.05994888 12 11 C11.67 11.99 11.34 12.98 11 14 C10.54109375 13.46890625 10.0821875 12.9378125 9.609375 12.390625 C5.70720627 7.8947499 5.70720627 7.8947499 1.5625 3.625 C0 2 0 2 0 0 Z " fill="#353D59" transform="translate(550,760)"/>
<path d="M0 0 C2.86453858 3.41016497 4.34703566 6.90694544 6 11 C2.82880497 9.90648447 1.99216457 8.9873012 0.1875 6.0625 C-1 3 -1 3 0 0 Z " fill="#EF232F" transform="translate(553,823)"/>
<path d="M0 0 C1.13199353 0.9080162 2.25532363 1.82683826 3.375 2.75 C4.00148438 3.26046875 4.62796875 3.7709375 5.2734375 4.296875 C7.08312318 6.08199481 8.00117455 7.67949644 9 10 C1.89473684 5.42105263 1.89473684 5.42105263 0 3 C0 2.01 0 1.02 0 0 Z " fill="#44435E" transform="translate(577,750)"/>
<path d="M0 0 C4.56454251 0.54339792 7.9728176 1.79463821 12 4 C8.69564916 5.12377697 6.9493138 4.89554742 3.75 3.5625 C3.04359375 3.27503906 2.3371875 2.98757813 1.609375 2.69140625 C1.07828125 2.46324219 0.5471875 2.23507812 0 2 C0 1.34 0 0.68 0 0 Z " fill="#3BB456" transform="translate(350,619)"/>
<path d="M0 0 C2.36574234 3.5486135 2.10865265 4.5764525 1.625 8.6875 C1.51414062 9.68136719 1.40328125 10.67523437 1.2890625 11.69921875 C1.19367187 12.45847656 1.09828125 13.21773437 1 14 C0.67 14 0.34 14 0 14 C-0.19393875 11.85473901 -0.37998676 9.70876323 -0.5625 7.5625 C-0.71912109 5.77005859 -0.71912109 5.77005859 -0.87890625 3.94140625 C-0.91886719 2.97074219 -0.95882812 2.00007812 -1 1 C-0.67 0.67 -0.34 0.34 0 0 Z " fill="#E22938" transform="translate(549,803)"/>
<path d="M0 0 C0.99 0 1.98 0 3 0 C2.25 2.4375 2.25 2.4375 1 5 C-1.125 5.8125 -1.125 5.8125 -3 6 C-2.42655063 3.13275314 -2.1385485 2.1385485 0 0 Z " fill="#2D4A69" transform="translate(467,724)"/>
<path d="M0 0 C0.33 0.99 0.66 1.98 1 3 C-0.65 4.65 -2.3 6.3 -4 8 C-4.99 7.67 -5.98 7.34 -7 7 C-4.69 4.69 -2.38 2.38 0 0 Z " fill="#26405B" transform="translate(495,733)"/>
<path d="M0 0 C0.66 0 1.32 0 2 0 C2.33 1.65 2.66 3.3 3 5 C3.99 5.33 4.98 5.66 6 6 C5.67 7.32 5.34 8.64 5 10 C4.16121545 8.71186658 3.32913217 7.41936744 2.5 6.125 C2.0359375 5.40570312 1.571875 4.68640625 1.09375 3.9453125 C0 2 0 2 0 0 Z " fill="#E93498" transform="translate(638,687)"/>
<path d="M0 0 C0.66 0.33 1.32 0.66 2 1 C1.34 2.98 0.68 4.96 0 7 C-0.99 6.34 -1.98 5.68 -3 5 C-2.625 3.0625 -2.625 3.0625 -2 1 C-1.34 0.67 -0.68 0.34 0 0 Z " fill="#2E5A6C" transform="translate(370,623)"/>
<path d="M0 0 C4.43090471 1.20842856 6.98112756 2.51668565 10 6 C6.62972148 6 5.93297304 5.50175992 3.3125 3.5625 C2.68988281 3.11003906 2.06726563 2.65757812 1.42578125 2.19140625 C0.95527344 1.79824219 0.48476563 1.40507813 0 1 C0 0.67 0 0.34 0 0 Z " fill="#35465E" transform="translate(546,592)"/>
<path d="M0 0 C0.99 0.33 1.98 0.66 3 1 C2.67 1.99 2.34 2.98 2 4 C0.02 4.33 -1.96 4.66 -4 5 C-2.25 1.125 -2.25 1.125 0 0 Z " fill="#FA282A" transform="translate(574,764)"/>
<path d="M0 0 C3.99500618 1.3697164 6.80009492 3.25722422 10 6 C6.05879291 5.43697042 3.2491277 4.3208055 0 2 C0 1.34 0 0.68 0 0 Z " fill="#424968" transform="translate(642,621)"/>
<path d="M0 0 C0.66 1.32 1.32 2.64 2 4 C1.34 4 0.68 4 0 4 C0 2.68 0 1.36 0 0 Z " fill="#997552" transform="translate(524,604)"/>
<path d="M0 0 C1.65 0 3.3 0 5 0 C5 0.33 5 0.66 5 1 C3.35 1 1.7 1 0 1 C0 0.67 0 0.34 0 0 Z " fill="#82745A" transform="translate(469,487)"/>
<path d="M0 0 C0.66 1.32 1.32 2.64 2 4 C1.34 3.67 0.68 3.34 0 3 C0 2.01 0 1.02 0 0 Z " fill="#63685C" transform="translate(442,474)"/>
<path d="M0 0 C4 1 4 1 4 1 Z " fill="#81745B" transform="translate(464,487)"/>
<path d="M0 0 C0.66 0 1.32 0 2 0 C1.67 0.66 1.34 1.32 1 2 C0.67 1.34 0.34 0.68 0 0 Z " fill="#784F68" transform="translate(581,752)"/>
<path d="M0 0 C3 1 3 1 3 1 Z " fill="#DA4495" transform="translate(674,716)"/>
<path d="M0 0 C3 1 3 1 3 1 Z " fill="#C44B8E" transform="translate(693,616)"/>
<path d="M0 0 C0.66 0 1.32 0 2 0 C1.67 0.66 1.34 1.32 1 2 C0.67 1.34 0.34 0.68 0 0 Z " fill="#9D784C" transform="translate(492,606)"/>
<path d="M0 0 C3 1 3 1 3 1 Z " fill="#8A7D50" transform="translate(448,456)"/>
<path d="M0 0 C3 1 3 1 3 1 Z " fill="#D3AE32" transform="translate(525,447)"/>
<path d="M0 0 C3 1 3 1 3 1 Z " fill="#D6B031" transform="translate(493,447)"/>
<path d="M0 0 C2 1 2 1 2 1 Z " fill="#D7353B" transform="translate(606,855)"/>
<path d="M0 0 C2 1 2 1 2 1 Z " fill="#17A5D9" transform="translate(436,855)"/>
<path d="" fill="#C83D4D" transform="translate(0,0)"/>
<path d="M0 0 C2 1 2 1 2 1 Z " fill="#3E9F6E" transform="translate(308,711)"/>
<path d="" fill="#CE4393" transform="translate(0,0)"/>
<path d="" fill="#D44498" transform="translate(0,0)"/>
<path d="" fill="#AB4D90" transform="translate(0,0)"/>
<path d="M0 0 C2 1 2 1 2 1 Z " fill="#785A83" transform="translate(628,647)"/>
<path d="M0 0 C2 1 2 1 2 1 Z " fill="#555F79" transform="translate(615,639)"/>
<path d="" fill="#455F73" transform="translate(0,0)"/>
<path d="" fill="#515F73" transform="translate(0,0)"/>
<path d="" fill="#475A73" transform="translate(0,0)"/>
<path d="M0 0 C2 1 2 1 2 1 Z " fill="#505F71" transform="translate(588,585)"/>
<path d="M0 0 C2 1 2 1 2 1 Z " fill="#5E6868" transform="translate(440,576)"/>
<path d="M0 0 C2 1 2 1 2 1 Z " fill="#8B7253" transform="translate(566,571)"/>
<path d="M0 0 C2 1 2 1 2 1 Z " fill="#7A725D" transform="translate(558,487)"/>
<path d="M0 0 C2 1 2 1 2 1 Z " fill="#81745B" transform="translate(548,487)"/>
<path d="M0 0 C2 1 2 1 2 1 Z " fill="#907B56" transform="translate(517,487)"/>
<path d="M0 0 C2 1 2 1 2 1 Z " fill="#8D7955" transform="translate(509,487)"/>
<path d="M0 0 C2 1 2 1 2 1 Z " fill="#8C7856" transform="translate(493,487)"/>
<path d="M0 0 C2 1 2 1 2 1 Z " fill="#847659" transform="translate(477,487)"/>
<path d="" fill="#64675B" transform="translate(0,0)"/>
<path d="" fill="#716F5B" transform="translate(0,0)"/>
<path d="M0 0 C2 1 2 1 2 1 Z " fill="#CBA736" transform="translate(557,447)"/>
<path d="M0 0 C2 1 2 1 2 1 Z " fill="#D2AE35" transform="translate(541,447)"/>
<path d="M0 0 C2 1 2 1 2 1 Z " fill="#D5AF33" transform="translate(484,447)"/>
<path d="M0 0 C2 1 2 1 2 1 Z " fill="#D1AE33" transform="translate(480,447)"/>
<path d="M0 0 C2 1 2 1 2 1 Z " fill="#D1AE36" transform="translate(469,447)"/>
<path d="M0 0 C2 1 2 1 2 1 Z " fill="#CFAE37" transform="translate(464,447)"/>
<path d="" fill="#D33540" transform="translate(0,0)"/>
<path d="" fill="#1E9FD5" transform="translate(0,0)"/>
<path d="" fill="#15A3DA" transform="translate(0,0)"/>
<path d="" fill="#19BAA7" transform="translate(0,0)"/>
<path d="" fill="#1BB6A6" transform="translate(0,0)"/>
<path d="" fill="#DA313C" transform="translate(0,0)"/>
<path d="" fill="#CF3846" transform="translate(0,0)"/>
<path d="" fill="#CC394A" transform="translate(0,0)"/>
<path d="" fill="#D63037" transform="translate(0,0)"/>
<path d="" fill="#279ED3" transform="translate(0,0)"/>
<path d="" fill="#D72F3E" transform="translate(0,0)"/>
<path d="" fill="#D8343F" transform="translate(0,0)"/>
<path d="" fill="#C93F4F" transform="translate(0,0)"/>
<path d="" fill="#1AB8A1" transform="translate(0,0)"/>
<path d="" fill="#1BC0B8" transform="translate(0,0)"/>
<path d="" fill="#1EB7A0" transform="translate(0,0)"/>
<path d="" fill="#D93443" transform="translate(0,0)"/>
<path d="" fill="#20BDB1" transform="translate(0,0)"/>
<path d="" fill="#DB3343" transform="translate(0,0)"/>
<path d="" fill="#C34350" transform="translate(0,0)"/>
<path d="" fill="#2C94C8" transform="translate(0,0)"/>
<path d="" fill="#288BB7" transform="translate(0,0)"/>
<path d="" fill="#2D89B1" transform="translate(0,0)"/>
<path d="" fill="#D63A48" transform="translate(0,0)"/>
<path d="" fill="#2983AB" transform="translate(0,0)"/>
<path d="" fill="#D5374A" transform="translate(0,0)"/>
<path d="" fill="#D63A4A" transform="translate(0,0)"/>
<path d="" fill="#1DB39E" transform="translate(0,0)"/>
<path d="" fill="#1EB49E" transform="translate(0,0)"/>
<path d="" fill="#21B59F" transform="translate(0,0)"/>
<path d="" fill="#CB3F55" transform="translate(0,0)"/>
<path d="" fill="#AD4058" transform="translate(0,0)"/>
<path d="" fill="#A54459" transform="translate(0,0)"/>
<path d="" fill="#2590B5" transform="translate(0,0)"/>
<path d="" fill="#299C8F" transform="translate(0,0)"/>
<path d="" fill="#2985AB" transform="translate(0,0)"/>
<path d="" fill="#2787AC" transform="translate(0,0)"/>
<path d="" fill="#3B7A85" transform="translate(0,0)"/>
<path d="" fill="#445B77" transform="translate(0,0)"/>
<path d="" fill="#4C5973" transform="translate(0,0)"/>
<path d="" fill="#415B76" transform="translate(0,0)"/>
<path d="" fill="#3F5C77" transform="translate(0,0)"/>
<path d="" fill="#415B76" transform="translate(0,0)"/>
<path d="" fill="#3B637E" transform="translate(0,0)"/>
<path d="" fill="#3E8171" transform="translate(0,0)"/>
<path d="" fill="#386181" transform="translate(0,0)"/>
<path d="" fill="#3AA178" transform="translate(0,0)"/>
<path d="" fill="#D64490" transform="translate(0,0)"/>
<path d="" fill="#3C6179" transform="translate(0,0)"/>
<path d="" fill="#D04991" transform="translate(0,0)"/>
<path d="" fill="#3B5D78" transform="translate(0,0)"/>
<path d="" fill="#3FB174" transform="translate(0,0)"/>
<path d="" fill="#3A5C77" transform="translate(0,0)"/>
<path d="" fill="#3D946E" transform="translate(0,0)"/>
<path d="" fill="#CC4F90" transform="translate(0,0)"/>
<path d="" fill="#D94495" transform="translate(0,0)"/>
<path d="" fill="#45B270" transform="translate(0,0)"/>
<path d="" fill="#40A76A" transform="translate(0,0)"/>
<path d="" fill="#D34595" transform="translate(0,0)"/>
<path d="" fill="#395F7A" transform="translate(0,0)"/>
<path d="" fill="#3DAE67" transform="translate(0,0)"/>
<path d="" fill="#DC4499" transform="translate(0,0)"/>
<path d="" fill="#40B262" transform="translate(0,0)"/>
<path d="" fill="#3FB262" transform="translate(0,0)"/>
<path d="" fill="#3D5A76" transform="translate(0,0)"/>
<path d="" fill="#43B76C" transform="translate(0,0)"/>
<path d="" fill="#40B56A" transform="translate(0,0)"/>
<path d="" fill="#D04696" transform="translate(0,0)"/>
<path d="" fill="#D04697" transform="translate(0,0)"/>
<path d="" fill="#42B55F" transform="translate(0,0)"/>
<path d="" fill="#CC4695" transform="translate(0,0)"/>
<path d="" fill="#C74693" transform="translate(0,0)"/>
<path d="" fill="#40AF65" transform="translate(0,0)"/>
<path d="" fill="#CB4495" transform="translate(0,0)"/>
<path d="" fill="#9E4B8B" transform="translate(0,0)"/>
<path d="" fill="#6F5880" transform="translate(0,0)"/>
<path d="" fill="#5A5A78" transform="translate(0,0)"/>
<path d="" fill="#59587B" transform="translate(0,0)"/>
<path d="" fill="#416974" transform="translate(0,0)"/>
<path d="" fill="#3E6874" transform="translate(0,0)"/>
<path d="" fill="#495F77" transform="translate(0,0)"/>
<path d="" fill="#495E73" transform="translate(0,0)"/>
<path d="" fill="#6D587C" transform="translate(0,0)"/>
<path d="" fill="#40A95E" transform="translate(0,0)"/>
<path d="" fill="#475F77" transform="translate(0,0)"/>
<path d="" fill="#B74F92" transform="translate(0,0)"/>
<path d="" fill="#3E7869" transform="translate(0,0)"/>
<path d="" fill="#43AC5B" transform="translate(0,0)"/>
<path d="" fill="#C84994" transform="translate(0,0)"/>
<path d="" fill="#5B5E76" transform="translate(0,0)"/>
<path d="" fill="#447E69" transform="translate(0,0)"/>
<path d="" fill="#40AF5A" transform="translate(0,0)"/>
<path d="" fill="#42B05A" transform="translate(0,0)"/>
<path d="" fill="#41B057" transform="translate(0,0)"/>
<path d="" fill="#486174" transform="translate(0,0)"/>
<path d="" fill="#465E75" transform="translate(0,0)"/>
<path d="" fill="#4A5D73" transform="translate(0,0)"/>
<path d="" fill="#4A5B72" transform="translate(0,0)"/>
<path d="" fill="#756C62" transform="translate(0,0)"/>
<path d="" fill="#515E76" transform="translate(0,0)"/>
<path d="" fill="#42686B" transform="translate(0,0)"/>
<path d="" fill="#505B71" transform="translate(0,0)"/>
<path d="" fill="#4E5E70" transform="translate(0,0)"/>
<path d="" fill="#525F72" transform="translate(0,0)"/>
<path d="" fill="#4B6270" transform="translate(0,0)"/>
<path d="" fill="#545E71" transform="translate(0,0)"/>
<path d="" fill="#A87C4A" transform="translate(0,0)"/>
<path d="" fill="#4F6372" transform="translate(0,0)"/>
<path d="" fill="#545E6F" transform="translate(0,0)"/>
<path d="" fill="#5E646A" transform="translate(0,0)"/>
<path d="" fill="#7A6C5C" transform="translate(0,0)"/>
<path d="" fill="#B98336" transform="translate(0,0)"/>
<path d="" fill="#61676B" transform="translate(0,0)"/>
<path d="" fill="#B07E45" transform="translate(0,0)"/>
<path d="" fill="#876F5B" transform="translate(0,0)"/>
<path d="" fill="#4C5C74" transform="translate(0,0)"/>
<path d="" fill="#8F7559" transform="translate(0,0)"/>
<path d="" fill="#937953" transform="translate(0,0)"/>
<path d="" fill="#48636E" transform="translate(0,0)"/>
<path d="" fill="#4B5C6F" transform="translate(0,0)"/>
<path d="" fill="#4A6171" transform="translate(0,0)"/>
<path d="" fill="#4D6170" transform="translate(0,0)"/>
<path d="" fill="#5E6367" transform="translate(0,0)"/>
<path d="" fill="#5C6564" transform="translate(0,0)"/>
<path d="" fill="#656A69" transform="translate(0,0)"/>
<path d="" fill="#756A61" transform="translate(0,0)"/>
<path d="" fill="#8F744B" transform="translate(0,0)"/>
<path d="" fill="#95764E" transform="translate(0,0)"/>
<path d="" fill="#D39032" transform="translate(0,0)"/>
<path d="" fill="#D19233" transform="translate(0,0)"/>
<path d="" fill="#CF9035" transform="translate(0,0)"/>
<path d="" fill="#CE9136" transform="translate(0,0)"/>
<path d="" fill="#D09131" transform="translate(0,0)"/>
<path d="" fill="#8C7A59" transform="translate(0,0)"/>
<path d="" fill="#8E7A57" transform="translate(0,0)"/>
<path d="" fill="#8E7958" transform="translate(0,0)"/>
<path d="" fill="#907B54" transform="translate(0,0)"/>
<path d="" fill="#76715F" transform="translate(0,0)"/>
<path d="" fill="#6D6C5F" transform="translate(0,0)"/>
<path d="" fill="#6E6E5B" transform="translate(0,0)"/>
<path d="" fill="#737057" transform="translate(0,0)"/>
<path d="" fill="#B79644" transform="translate(0,0)"/>
<path d="" fill="#D3AE34" transform="translate(0,0)"/>
<path d="" fill="#D0AD31" transform="translate(0,0)"/>
<path d="" fill="#D3AF32" transform="translate(0,0)"/>
<path d="" fill="#D6AF33" transform="translate(0,0)"/>
<path d="" fill="#D4B034" transform="translate(0,0)"/>
<path d="" fill="#D2AF36" transform="translate(0,0)"/>
<path d="" fill="#CBA837" transform="translate(0,0)"/>
<path d="" fill="#C6A834" transform="translate(0,0)"/>
<path d="" fill="#C5AB38" transform="translate(0,0)"/>
<path d="" fill="#CDAE34" transform="translate(0,0)"/>
<path d="" fill="#EDC820" transform="translate(0,0)"/>
<path d="" fill="#F0CC20" transform="translate(0,0)"/>
<path d="" fill="#F8CD1D" transform="translate(0,0)"/>
<path d="" fill="#F4D01C" transform="translate(0,0)"/>
<path d="" fill="#F4CE1D" transform="translate(0,0)"/>
<path d="" fill="#F3CD1E" transform="translate(0,0)"/>
<path d="" fill="#F2CE1A" transform="translate(0,0)"/>
<path d="" fill="#F0CD1E" transform="translate(0,0)"/>
<path d="" fill="#F5CE1D" transform="translate(0,0)"/>
<path d="" fill="#F4D019" transform="translate(0,0)"/>
<path d="" fill="#F1CC20" transform="translate(0,0)"/>
<path d="" fill="#F5CE1C" transform="translate(0,0)"/>
</svg>
